<?xml version="1.0" encoding="UTF-8" standalone="no"?>
<svg width="992px" height="108px" viewBox="0 0 992 108" version="1.1" xmlns="http://www.w3.org/2000/svg" xmlns:xlink="http://www.w3.org/1999/xlink">
    <!-- Generator: Sketch 45 (43475) - http://www.bohemiancoding.com/sketch -->
    <title>booking-overview-sprite</title>
    <desc>Created with Sketch.</desc>
    <defs></defs>
    <g id="Page-1" stroke="none" stroke-width="1" fill="none" fill-rule="evenodd">
        <g id="booking-overview-sprite" fill-rule="nonzero">
            <g id="Page-7">
                <g>
                    <g id="booking-overview-sprite">
                        <polygon id="Path" fill="#FFFFFF" points="576.139498 94.755618 576.139498 95.755618 577.139498 95.755618 604.856601 95.755618 604.856601 93.755618 577.139498 93.755618 578.139498 94.755618 578.139498 67.8423107 576.139498 67.8423107"></polygon>
                        <path d="M605.749776,93.441194 C604.518636,85.4277005 602.959617,81.4628735 597.127833,75.6310899 C591.295951,69.7992073 587.331117,68.2401607 579.317697,67.0090235 C575.650637,66.4456367 574.138509,65.9314337 572.670968,64.4638928 C572.280444,64.0733685 571.647279,64.0733685 571.256755,64.4638928 C570.86623,64.8544171 570.86623,65.487582 571.256755,65.8781063 C573.116716,67.7380673 574.949893,68.3614443 579.013992,68.9858297 C586.645768,70.1583333 590.239948,71.5716323 595.713619,77.0453034 C601.187188,82.5188717 602.600463,86.1130482 603.772969,93.744897 C604.397337,97.808908 605.020686,99.642038 606.88054,101.501891 C607.271064,101.892416 607.904229,101.892416 608.294753,101.501891 C608.685278,101.111367 608.685278,100.478202 608.294753,100.087678 C606.827324,98.620249 606.313145,97.108162 605.749776,93.441194 Z" id="Stroke-1" fill="#FFFFFF"></path>
                        <path d="M572.363481,100.620225 C572.285526,100.719469 572.285526,100.719469 572.28029,100.725108 C572.439106,100.562121 572.439106,100.562121 572.593865,100.404707 C572.81473,100.180244 573.142067,99.848601 573.571876,99.413808 C574.386864,98.58937 575.566386,97.398003 577.079981,95.870381 C579.74414,93.181532 583.380354,89.5144331 587.745688,85.1137074 C591.151739,81.6800436 594.786784,78.016371 598.421829,74.3532573 C599.694096,73.0711663 600.672241,72.1992188 600.672241,72.1992188 L599.263062,70.744873 C599.263062,70.744873 598.274481,71.6623752 597.002187,72.9444931 C593.367059,76.6076905 589.731928,80.2714497 586.33913,83.6917528 C581.960195,88.1061902 578.323745,91.7735274 575.65926,94.462705 C574.145169,95.990827 572.965175,97.182671 572.149534,98.00777 C571.71873,98.44357 571.390446,98.776173 571.168272,99.001965 C571.011704,99.161217 571.011704,99.161217 570.908739,99.266557 C570.867297,99.309138 570.867297,99.309138 570.837368,99.340257 C570.759643,99.42684 570.759643,99.42684 570.715592,99.486884 C570.672771,99.55302 570.672771,99.55302 570.641541,99.613503 L570.620424,100.448144 C572.219178,100.972004 572.60371,100.468981 572.530628,99.921553 C572.457545,99.374125 571.954522,98.989592 571.407094,99.062674 C571.407094,99.062674 572.406097,100.554401 572.363481,100.620225 Z" id="Path-2" fill="#FFFFFF"></path>
                        <path d="M575.807355,95.725079 L575.807355,98.706556 C575.807355,99.258841 576.25507,99.706556 576.807355,99.706556 C577.359639,99.706556 577.807355,99.258841 577.807355,98.706556 L577.807355,94.725079 L577.807355,93.725079 L576.807355,93.725079 L572.851995,93.725079 C572.29971,93.725079 571.851995,94.172794 571.851995,94.725079 C571.851995,95.277364 572.29971,95.725079 572.851995,95.725079 L575.807355,95.725079 Z" id="Path-3" fill="#FFFFFF"></path>
                        <path d="M600.680176,73.983188 C601.128906,74.5705582 601.403075,74.983188 601.95536,74.983188 C602.507644,74.983188 602.95536,74.5354727 602.95536,73.983188 L602.95536,70.2448746 C602.95536,70.2448746 603.025938,69.4674675 602.775391,69.2169205 C602.524844,68.9663735 601.128906,69.0017106 601.128906,69.0017106 L598,69.0017106 C597.447715,69.0017106 597,69.4494258 597,70.0017106 C597,70.5539953 597.539917,70.8282487 598,71.2933366 L600.680176,73.983188 Z" id="Path-3" fill="#FFFFFF"></path>
                        <path d="M573.142954,98.38948 L573.142954,101.370957 C573.142954,101.923242 573.590669,102.370957 574.142954,102.370957 C574.695239,102.370957 575.142954,101.923242 575.142954,101.370957 L575.142954,97.38948 L575.142954,96.38948 L574.142954,96.38948 L570.187594,96.38948 C569.635309,96.38948 569.187594,96.837195 569.187594,97.38948 C569.187594,97.941764 569.635309,98.38948 570.187594,98.38948 L573.142954,98.38948 Z" id="Path-3" fill="#FFFFFF"></path>
                        <path d="M570.478553,101.05388 L570.478553,104.035358 C570.478553,104.587643 570.926268,105.035358 571.478553,105.035358 C572.030838,105.035358 572.478553,104.587643 572.478553,104.035358 L572.478553,100.05388 L572.478553,99.05388 L571.478553,99.05388 L567.523193,99.05388 C566.970909,99.05388 566.523193,99.501596 566.523193,100.05388 C566.523193,100.606165 566.970909,101.05388 567.523193,101.05388 L570.478553,101.05388 Z" id="Path-3" fill="#FFFFFF"></path>
                        <path d="M2,101.071242 C2,101.065961 35.9971408,101.069959 35.9971408,101.069959 C35.9970712,101.069959 36,69.9987169 36,69.9987169 C36,70.0039978 2.0028592,70 2.0028592,70 C2.0029288,70 2,101.071242 2,101.071242 Z M2.0028592,68 L35.9971408,68 C37.1032894,68 38,68.9021452 38,69.9987169 L38,101.071242 C38,102.175103 37.0981492,103.069959 35.9971408,103.069959 L2.0028592,103.069959 C0.8967106,103.069959 0,102.167814 0,101.071242 L0,69.9987169 C0,68.894856 0.9018508,68 2.0028592,68 Z" id="Rectangle" fill="#FFFFFF"></path>
                        <rect id="Rectangle-2" fill="#FFFFFF" x="10" y="64" width="2" height="10"></rect>
                        <rect id="Rectangle-2" fill="#FFFFFF" x="26" y="64" width="2" height="10"></rect>
                        <rect id="Rectangle-2" fill="#FFFFFF" transform="translate(29.000000, 81.000000) rotate(90.000000) translate(-29.000000, -81.000000) " x="28" y="78" width="2" height="6"></rect>
                        <rect id="Rectangle-2" fill="#FFFFFF" transform="translate(29.000000, 88.000000) rotate(90.000000) translate(-29.000000, -88.000000) " x="28" y="85" width="2" height="6"></rect>
                        <rect id="Rectangle-2-Copy" fill="#FFFFFF" transform="translate(29.000000, 95.000000) rotate(90.000000) translate(-29.000000, -95.000000) " x="28" y="92" width="2" height="6"></rect>
                        <rect id="Rectangle-2" fill="#FFFFFF" transform="translate(19.000000, 81.000000) rotate(90.000000) translate(-19.000000, -81.000000) " x="18" y="78" width="2" height="6"></rect>
                        <rect id="Rectangle-2" fill="#FFFFFF" transform="translate(19.000000, 88.000000) rotate(90.000000) translate(-19.000000, -88.000000) " x="18" y="85" width="2" height="6"></rect>
                        <rect id="Rectangle-2-Copy" fill="#FFFFFF" transform="translate(19.000000, 95.000000) rotate(90.000000) translate(-19.000000, -95.000000) " x="18" y="92" width="2" height="6"></rect>
                        <rect id="Rectangle-2" fill="#FFFFFF" transform="translate(9.000000, 81.000000) rotate(90.000000) translate(-9.000000, -81.000000) " x="8" y="78" width="2" height="6"></rect>
                        <rect id="Rectangle-2" fill="#FFFFFF" transform="translate(9.000000, 88.000000) rotate(90.000000) translate(-9.000000, -88.000000) " x="8" y="85" width="2" height="6"></rect>
                        <rect id="Rectangle-2-Copy" fill="#FFFFFF" transform="translate(9.000000, 95.000000) rotate(90.000000) translate(-9.000000, -95.000000) " x="8" y="92" width="2" height="6"></rect>
                        <path d="M118.41223,81.2153171 C118.41223,78.5341933 116.23875,76.360713 113.557626,76.360713 C110.876502,76.360713 108.703022,78.5341933 108.703022,81.2153171 C108.703022,83.896441 110.876502,86.0699213 113.557626,86.0699213 C116.23875,86.0699213 118.41223,83.896441 118.41223,81.2153171 Z M110.703022,81.2153171 C110.703022,79.6387628 111.981072,78.360713 113.557626,78.360713 C115.13418,78.360713 116.41223,79.6387628 116.41223,81.2153171 C116.41223,82.7918715 115.13418,84.0699213 113.557626,84.0699213 C111.981072,84.0699213 110.703022,82.7918715 110.703022,81.2153171 Z" id="Oval" fill="#FFFFFF"></path>
                        <path d="M110.839836,89.3404625 L115.879639,89.3404625 C118.696994,89.3404625 121.340756,92.042038 121.340756,94.996654 L105.373152,94.996654 C105.364858,91.9031049 108.128396,89.3404625 110.839836,89.3404625 Z M104.38134,96.996654 L122.338135,96.996654 C122.862347,96.996654 123.297586,96.591845 123.335514,96.069007 L123.382656,95.419157 C123.385277,91.3400858 119.861987,87.3404625 115.879639,87.3404625 L110.839836,87.3404625 C106.90505,87.3404625 103.373046,91.8247411 103.373046,95.932241 L103.381233,96.059944 L103.389527,96.124358 C103.453751,96.623155 103.878425,96.996654 104.38134,96.996654 Z" id="Stroke-1" fill="#FFFFFF"></path>
                        <path d="M91.098463,92.903865 C91.114256,92.601954 91.05325,92.884455 91.098463,92.522837 C91.226228,91.5009523 91.456895,90.4827973 91.812165,89.5435119 C92.792278,86.9522257 94.481521,85.4756109 97.172257,85.4756109 C97.455534,85.484397 97.782747,85.4916576 98.122889,85.4970746 C99.338183,85.5164288 100.635272,85.5117766 101.879356,85.4923267 C102.286649,85.4859591 102.590712,85.4795778 102.760034,85.4752904 C102.991911,85.4631283 103.295864,85.5038477 103.685282,85.6514228 C104.341007,85.8999182 105.008614,86.3781254 105.655897,87.1615374 C106.17704,87.792282 106.659793,88.5947124 107.091273,89.5881235 L108.925709,88.7913521 C108.421678,87.6309032 107.842147,86.6676083 107.197708,85.8876383 C106.329363,84.8366735 105.374715,84.1528584 104.394022,83.7812123 C103.730138,83.5296247 103.151555,83.4521141 102.710112,83.4750868 C102.662803,83.4779827 102.662803,83.4779827 102.634845,83.480611 C102.54624,83.4800629 102.248559,83.4863102 101.848092,83.492571 C100.623326,83.511719 99.346031,83.5163001 98.154736,83.4973281 C97.823312,83.49205 97.505077,83.4849886 97.201726,83.4760452 C93.545662,83.4756109 91.190195,85.5345912 89.941503,88.8359637 C89.524726,89.9378669 89.259983,91.1064293 89.113914,92.274711 C89.025071,92.985289 88.99544,93.551748 88.996266,93.90519 C88.998835,94.458977 89.445795,94.903865 89.996266,94.903865 L104.621604,94.903865 L104.621604,92.903865 C104.621604,92.903865 91.088988,93.084984 91.098463,92.903865 Z" id="Stroke-1" fill="#FFFFFF"></path>
                        <path d="M139.003733,95.073411 C139.554204,95.073411 140.001164,94.628523 140.003722,94.078058 C140.004671,93.673531 139.97087,93.027374 139.869399,92.215792 C139.702547,90.8812816 139.400204,89.5467525 138.92483,88.2899279 C137.506977,84.5413165 134.844526,82.2139928 130.738461,82.2139928 C128.996136,82.264926 127.39254,82.2710718 126.043727,82.2512937 C125.789026,82.2475589 125.610618,82.2438462 125.518354,82.2414169 C125.039088,82.2235738 124.433152,82.2738966 123.725304,82.4438017 C122.645267,82.7030434 121.576785,83.1901635 120.581676,83.9578302 C119.048874,85.140295 117.823363,86.8890715 117.008811,89.2671996 L118.900899,89.9152746 C119.590753,87.9012111 120.586855,86.4797962 121.803294,85.5413858 C123.120744,84.5250523 124.45889,84.2038564 125.418989,84.2386579 C125.565551,84.2433527 125.751709,84.2472267 126.014403,84.2510787 C127.390716,84.27126 129.022949,84.2650045 130.76793,84.2135585 C133.908667,84.2139928 135.904894,85.9589511 137.054168,88.9974761 C137.468034,90.0916829 137.736302,91.2758046 137.884851,92.463918 C137.937397,92.884191 137.985365,92.72215 138.003739,93.073411 C138.014801,93.284879 121.272297,93.073411 121.272297,93.073411 L121.272297,95.073411 L139.003733,95.073411 Z" id="Stroke-1" fill="#FFFFFF"></path>
                        <path d="M134.847812,74.8289734 C134.847812,71.4360526 132.097306,68.6855469 128.704386,68.6855469 C125.311465,68.6855469 122.560959,71.4360526 122.560959,74.8289734 C122.560959,78.2218942 125.311465,80.9723999 128.704386,80.9723999 C132.097306,80.9723999 134.847812,78.2218942 134.847812,74.8289734 Z M124.560959,74.8289734 C124.560959,72.5406221 126.416034,70.6855469 128.704386,70.6855469 C130.992737,70.6855469 132.847812,72.5406221 132.847812,74.8289734 C132.847812,77.1173247 130.992737,78.9723999 128.704386,78.9723999 C126.416034,78.9723999 124.560959,77.1173247 124.560959,74.8289734 Z" id="Oval" fill="#FFFFFF"></path>
                        <path d="M104.722324,76.7661979 C104.722324,73.7752098 102.297649,71.3505348 99.306661,71.3505348 C96.315673,71.3505348 93.890998,73.7752098 93.890998,76.7661979 C93.890998,79.7571861 96.315673,82.181861 99.306661,82.181861 C102.297649,82.181861 104.722324,79.7571861 104.722324,76.7661979 Z M95.890998,76.7661979 C95.890998,74.8797793 97.420243,73.3505348 99.306661,73.3505348 C101.19308,73.3505348 102.722324,74.8797793 102.722324,76.7661979 C102.722324,78.6526166 101.19308,80.181861 99.306661,80.181861 C97.420243,80.181861 95.890998,78.6526166 95.890998,76.7661979 Z" id="Oval" fill="#FFFFFF"></path>
                        <path d="M230.073242,68 C230.073242,66.9297608 228.618917,66.6075201 228.166837,67.5775903 C228.132549,67.6511661 228.070411,67.7875286 227.984393,67.9810888 C227.842288,68.3008579 227.684276,68.6665754 227.514324,69.072671 C227.029451,70.2312585 226.544791,71.4838172 226.09206,72.7862402 C225.486367,74.5287068 224.984928,76.2266342 224.623047,77.8333458 C223.544404,82.6224073 223.778562,86.2369052 225.812526,87.9704537 C226.258732,88.3507554 228.07312,89.0393066 228.07312,89.0393066 L228.07312,87.9704537 C228.07312,87.9704537 228.166837,86.9177246 228.073242,86.9177246 C225.513368,86.9177246 225.402644,83.4742552 226.57417,78.2727982 C226.917968,76.7463727 227.398616,75.118846 227.981182,73.4429119 C228.419473,72.1820315 228.073242,68 228.073242,68 L228.073242,86.9177246 L228.073242,102.412604 C228.073242,102.964889 228.520957,103.412604 229.073242,103.412604 C229.625527,103.412604 230.073242,102.964889 230.073242,102.412604 L230.073242,68 Z" id="Path-28" fill="#FFFFFF"></path>
                        <path d="M216,76.4700003 L216,69 C216,68.4477153 215.552285,68 215,68 C214.447715,68 214,68.4477153 214,69 L214,76.4767658 C213.950865,76.4693416 213.900557,76.4654928 213.849351,76.4654928 C213.052448,76.4654928 212.577276,76.0309634 212.271633,75.1623821 C212.065937,74.5778321 211.995985,73.9577536 212.000041,73.5397114 C212.000054,73.5387 212.000176,69 212.000176,69 C212.000176,68.4477153 211.552461,68 211.000176,68 C210.447891,68 210.000176,68.4477153 210.000176,69 L210.000176,73.5231442 C209.99402,74.1505365 210.087758,74.9814666 210.385029,75.826255 C210.946426,77.4216415 212.087911,78.4654928 213.849351,78.4654928 C213.900557,78.4654928 213.950865,78.461644 214,78.4542199 L214,102.412604 C214,102.964889 214.447715,103.412604 215,103.412604 C215.552285,103.412604 216,102.964889 216,102.412604 L216,78.4700003 C217.761598,78.4700003 218.903034,77.4256375 219.464377,75.8295556 C219.761604,74.9844421 219.85533,74.1531804 219.849216,73.5227239 C219.849097,73.512331 219.849175,69 219.849175,69 C219.849175,68.4477153 219.401459,68 218.849175,68 C218.29689,68 217.849175,68.4477153 217.849175,69 L217.849175,73.5255525 C217.853367,73.9604919 217.783403,74.5810114 217.577663,75.1659971 C217.271965,76.0351951 216.796745,76.4700003 216,76.4700003 Z" id="Combined-Shape" fill="#FFFFFF"></path>
                        <polygon id="Path-14" fill="#FFFFFF" points="188.497005 76 188.497005 78 202.312012 78 202.312012 76"></polygon>
                        <path d="M199.89502,66.6660156 C199.89502,66.6660156 199.965516,67.0749089 200.052551,67.5174919 C200.301242,68.7821145 200.549931,70.0988458 200.781911,71.4000339 C200.890055,72.0066139 200.992168,72.5966751 201.087262,73.1661872 C201.56047,76.0001988 201.832031,78.1565557 201.832031,79.2954102 C201.832031,82.7361617 195.362321,90.0948536 195.086274,89.8550139 C194.861665,89.6598652 194.09268,88.9973417 194.032821,88.9455837 C189.819826,85.3027332 188.305735,83.0324305 188.501855,79.2171069 C188.550228,78.2760586 188.63753,77.2593995 188.760092,76.1785593 C188.942075,74.5737017 189.19696,72.8664495 189.506121,71.1102827 C189.736619,69.800955 189.983667,68.5407149 190.230629,67.3762725 C190.316974,66.9691528 190.4552,66.6660156 190.4552,66.6660156 L195.089294,66.6660156 L195.089294,64.6660156 L189.584717,64.6660156 L188.793457,64.6660156 L188.611513,65.436073 C188.594112,65.5097198 188.562173,65.6479791 188.517772,65.8450878 C188.444175,66.1718025 188.362275,66.545801 188.274147,66.9613293 C188.022617,68.1473102 187.771172,69.4299835 187.53641,70.7635284 C187.220597,72.5574806 186.959812,74.3042573 186.772828,75.9532126 C186.645872,77.0727973 186.555105,78.1298125 186.504492,79.1144361 C186.267673,83.7215339 188.085211,86.4468411 192.724686,90.4584558 C192.787344,90.5126346 193.553697,91.1728907 193.774543,91.3647699 C194.042995,91.59801 194.272083,91.799714 194.486962,91.9926358 L195.069259,92.515433 L195.716707,92.075891 C200.686618,88.7019055 203.832031,83.4411505 203.832031,79.2954102 C203.832031,78.0080567 203.551591,75.7811992 203.059951,72.8367982 C202.963602,72.25977 202.860248,71.662537 202.750864,71.0490017 C202.516626,69.7351501 202.265795,68.4070773 202.014965,67.1315788 C201.927168,66.6851194 201.845623,66.2770249 201.772408,65.915676 C201.728391,65.6984361 201.696869,65.5447479 201.67992,65.4630004 L201.514679,64.6660156 L200.700745,64.6660156 L194.999978,64.6660156 L194.999978,66.6660156 L199.89502,66.6660156 Z" id="Path-11" fill="#FFFFFF"></path>
                        <path d="M196.20752,91.257958 C196.20752,90.7056733 195.759804,90.257958 195.20752,90.257958 C194.655235,90.257958 194.20752,90.7056733 194.20752,91.257958 L194.20752,102.051514 C194.20752,102.603798 194.655235,103.051514 195.20752,103.051514 C195.759804,103.051514 196.20752,102.603798 196.20752,102.051514 L196.20752,91.257958 Z" id="Path-12" fill="#FFFFFF"></path>
                        <path d="M201.923174,104 C202.475458,104 202.923174,103.552285 202.923174,103 C202.923174,102.447715 202.475458,102 201.923174,102 L188.094482,102 C187.542198,102 187.094482,102.447715 187.094482,103 C187.094482,103.552285 187.542198,104 188.094482,104 L201.923174,104 Z" id="Path-13" fill="#FFFFFF"></path>
                        <path d="M326,83.5 C326,81.0147186 323.985281,79 321.5,79 C319.014719,79 317,81.0147186 317,83.5 C317,85.9852814 319.014719,88 321.5,88 C323.985281,88 326,85.9852814 326,83.5 Z M319,83.5 C319,82.1192881 320.119288,81 321.5,81 C322.880712,81 324,82.1192881 324,83.5 C324,84.8807119 322.880712,86 321.5,86 C320.119288,86 319,84.8807119 319,83.5 Z" id="Oval-3" fill="#FFFFFF"></path>
                        <path d="M307,63.5 C307,61.0147186 304.985281,59 302.5,59 C300.014719,59 298,61.0147186 298,63.5 C298,65.9852814 300.014719,68 302.5,68 C304.985281,68 307,65.9852814 307,63.5 Z M300,63.5 C300,62.1192881 301.119288,61 302.5,61 C303.880712,61 305,62.1192881 305,63.5 C305,64.8807119 303.880712,66 302.5,66 C301.119288,66 300,64.8807119 300,63.5 Z" id="Oval-3" fill="#FFFFFF"></path>
                        <path d="M313.520508,96 C314.072793,96 314.520508,95.552285 314.520508,95 C314.520508,94.447715 314.072793,94 313.520508,94 L281.5,94 C280.947715,94 280.5,94.447715 280.5,95 C280.5,95.552285 280.947715,96 281.5,96 L313.520508,96 Z" id="Line" fill="#FFFFFF"></path>
                        <path d="M285.666667,106.830469 C285.666667,107.382753 286.114382,107.830469 286.666667,107.830469 C287.218951,107.830469 287.666667,107.382753 287.666667,106.830469 L287.666667,95 C287.666667,94.447715 287.218951,94 286.666667,94 C286.114382,94 285.666667,94.447715 285.666667,95 L285.666667,106.830469 Z" id="Line" fill="#FFFFFF"></path>
                        <path d="M306.666667,106.830469 C306.666667,107.382753 307.114382,107.830469 307.666667,107.830469 C308.218951,107.830469 308.666667,107.382753 308.666667,106.830469 L308.666667,95 C308.666667,94.447715 308.218951,94 307.666667,94 C307.114382,94 306.666667,94.447715 306.666667,95 L306.666667,106.830469 Z" id="Line" fill="#FFFFFF"></path>
                        <path d="M313.187999,86.8653922 C313.932764,87.0081658 314.485244,87.2409825 314.764005,87.5256746 C315.275187,88.027128 316.216038,88.9334651 317.475434,90.1401399 C318.175815,90.8111665 318.900863,91.5044298 319.625899,92.196749 C319.879651,92.439051 320.036732,92.588966 320.326752,92.865667 C320.544293,93.073158 320.544293,93.073158 320.592722,93.119324 C320.866299,93.380116 321.263536,93.46438 321.619429,93.337115 L327.284712,91.3112358 C327.391842,91.3055063 327.566974,91.3133812 327.702596,91.3673187 C327.84927,91.4256513 327.960486,91.5381671 328.054213,91.7869177 C328.301183,92.391662 328.139314,92.801313 327.759984,92.975603 C327.468622,93.109475 326.142319,93.645328 324.174106,94.42781 C323.292854,94.778088 322.411186,95.127105 321.529493,95.475181 C321.220882,95.597015 320.926636,95.718018 320.926636,95.718018 L315.697526,91.0101697 C315.513961,90.8451814 315.275866,90.7539062 315.029053,90.7539062 L284.602205,90.7539062 C284.555375,90.7468737 284.304082,90.6906777 284.072114,90.5725036 C283.763615,90.4153415 283.629282,90.2287503 283.63429,89.8899005 C283.627346,89.4747525 283.728811,89.3379691 283.985345,89.2366785 C284.17191,89.1630149 284.39261,89.1377723 284.544764,89.1431337 C284.54709,89.1432454 284.69448,89.140509 284.69448,89.140509 L310.867209,86.715094 C311.642305,86.6867555 312.44479,86.7229168 313.187999,86.8653922 Z M284.509931,87.1490418 L284.668117,87.14695 C284.212244,87.1301757 283.736814,87.1845527 283.250842,87.376435 C282.252408,87.7706592 281.611871,88.6341596 281.634562,89.8931425 C281.61718,91.0327982 282.223877,91.8755109 283.164251,92.354577 C283.6703,92.61238 284.157024,92.721224 284.521748,92.750664 L314.671326,92.753906 L320.051742,97.612877 C320.333405,97.866037 320.733914,97.938363 321.086333,97.799709 C321.145369,97.776482 321.145369,97.776482 321.41033,97.672118 C321.763552,97.532911 321.954857,97.457466 322.263898,97.335463 C323.146926,96.986859 324.029978,96.637295 324.85432,96.30964 C326.947975,95.47729 328.253984,94.949636 328.594997,94.792951 C329.947736,94.171411 330.558161,92.626569 329.915539,91.0556971 C329.632769,90.3041177 329.109093,89.7743228 328.441697,89.5088972 C327.921251,89.3019141 327.399215,89.2784402 326.91725,89.3562199 C326.818718,89.3721211 326.739449,89.3898067 326.682061,89.4056384 L321.500366,91.2866638 C321.210658,91.0102606 321.260611,90.9923482 321.007101,90.7502767 C320.282813,90.0586721 319.558539,89.3661497 318.882639,88.7185779 C317.605418,87.4948249 316.667917,86.5917151 316.178589,86.1119789 C315.572636,85.4928347 314.672682,85.1135919 313.564549,84.9011594 C312.648062,84.7254661 311.706931,84.6830572 310.888752,84.7129661 C310.806358,84.7159781 310.745691,84.7191265 310.709397,84.7215103 L284.509931,87.1490418 Z" id="Path-22" fill="#FFFFFF"></path>
                        <path d="M302.162393,84.3153467 C302.679221,84.2704911 303.075928,83.8378628 303.075928,83.3190918 L303.075928,78.4366455 L308.346158,83.28122 L308.48066,83.3848369 C308.604851,83.4646878 308.793372,83.5672949 309.033964,83.6674848 C309.553331,83.8837659 310.0933,83.993903 310.645227,83.9254246 C311.222138,83.8538463 311.743176,83.5857806 312.145823,83.1141004 C313.32668,81.73079 313.145091,80.2135839 311.907474,78.8952711 C311.546823,78.5111045 309.86697,76.8368649 307.245656,74.2418858 C306.181061,73.1880222 305.071972,72.0919154 303.962894,70.9970207 C303.574725,70.6138158 303.334433,70.3766968 302.890797,69.9390343 C302.55805,69.6108428 302.55805,69.6108428 302.484036,69.5378755 L302.404303,69.4672375 C302.168771,69.2799823 301.790168,69.0161999 301.317131,68.7519683 C300.750594,68.4355086 300.184515,68.2003849 299.625246,68.0821026 C299.371836,68.0285077 299.122932,68 298.878662,68 C297.132567,68 295.440731,69.3152759 295.075062,70.9032902 C294.963278,71.3887457 294.647441,73.5489506 294.166124,77.032455 C294.141625,77.2098394 294.141625,77.2098394 294.117149,77.3873729 C293.921758,78.8051521 293.715293,80.3239604 293.510732,81.8427351 C293.439139,82.3742797 293.372896,82.8678648 293.313627,83.3108468 C293.252724,83.766553 293.252724,83.766553 293.239214,83.8680394 C293.154779,84.5022947 293.679479,85.0515796 294.316934,84.9962549 L302.162393,84.3153467 Z M295.370239,82.1931152 C295.574548,80.6762167 295.903343,79.0759375 296.098422,77.6604218 C296.122852,77.4832253 296.122852,77.4832253 296.147302,77.3061951 C296.608304,73.9697224 296.933557,71.7451073 297.024059,71.3520809 C297.178509,70.6813387 298.054913,70 298.878662,70 C298.976706,70 299.088291,70.0127801 299.211411,70.0388194 C299.546781,70.1097482 299.9364,70.2715783 300.341804,70.4980317 C300.70794,70.7025501 301.002127,70.9075177 301.159662,71.0327625 L301.079929,70.9621245 C301.153752,71.0349035 301.153752,71.0349035 301.486271,71.3628701 C301.929657,71.8002855 302.169835,72.0372921 302.557811,72.4203058 C303.666288,73.514607 304.774754,74.6100985 305.809251,75.6341673 C308.418352,78.2170554 310.115267,79.9082998 310.449337,80.2641527 C311.038508,80.8917389 311.084597,81.2768239 310.624685,81.8155871 C310.555414,81.8967342 310.492663,81.9290185 310.398972,81.9406429 C310.245589,81.9596733 310.029623,81.9156229 309.802825,81.8211769 C309.682079,81.7708946 309.594136,81.7230293 309.562308,81.7025655 L309.696811,81.8061823 L302.751254,75.4463191 C302.109725,74.8588873 301.075928,75.3139895 301.075928,76.1838379 L301.079929,82.4830322 L295.370239,83.0169678 C295.370239,83.0169678 295.298728,82.7240562 295.370239,82.1931152 Z" id="Path-21" fill="#FFFFFF"></path>
                        <path d="M392.078411,89.0647683 C392.078411,83.6377164 387.678916,79.2382215 382.251864,79.2382215 C376.824812,79.2382215 372.425317,83.6377164 372.425317,89.0647683 C372.425317,94.49182 376.824812,98.891315 382.251864,98.891315 C387.678916,98.891315 392.078411,94.49182 392.078411,89.0647683 Z M374.425317,89.0647683 C374.425317,84.7422859 377.929382,81.2382215 382.251864,81.2382215 C386.574347,81.2382215 390.078411,84.7422859 390.078411,89.0647683 C390.078411,93.387251 386.574347,96.891315 382.251864,96.891315 C377.929382,96.891315 374.425317,93.387251 374.425317,89.0647683 Z" id="Oval-2" fill="#FFFFFF"></path>
                        <path d="M423.85398,89.0647683 C423.85398,83.6377164 419.454485,79.2382215 414.027433,79.2382215 C408.600381,79.2382215 404.200886,83.6377164 404.200886,89.0647683 C404.200886,94.49182 408.600381,98.891315 414.027433,98.891315 C419.454485,98.891315 423.85398,94.49182 423.85398,89.0647683 Z M406.200886,89.0647683 C406.200886,84.7422859 409.70495,81.2382215 414.027433,81.2382215 C418.349915,81.2382215 421.85398,84.7422859 421.85398,89.0647683 C421.85398,93.387251 418.349915,96.891315 414.027433,96.891315 C409.70495,96.891315 406.200886,93.387251 406.200886,89.0647683 Z" id="Oval-2" fill="#FFFFFF"></path>
                        <path d="M391.224555,79.465276 C391.068904,79.5070104 390.925645,79.5857435 390.806976,79.6947705 L381.951697,87.8305941 C381.343471,88.3894043 381.636559,89.4028913 382.449164,89.5508143 L394.820552,91.802848 C395.148777,91.8625966 395.48518,91.7547277 395.717457,91.5152523 L408.860019,77.9654111 L407.424394,76.572938 L394.966797,89.8351835 L394.966797,89.8351835 L384.578125,88.0272217 L391.903931,81.3970411 L391.903931,81.3970411 L407.940609,77.0538744 L407.422648,75.1221092 L391.224555,79.465276 Z" id="Path-6" fill="#FFFFFF"></path>
                        <path d="M394.149493,91.1255891 C394.328568,91.6480359 394.897263,91.9263939 395.41971,91.7473191 C395.942157,91.5682443 396.220515,90.9995486 396.04144,90.4771018 L390.508902,74.3360427 C390.329827,73.8135959 389.761132,73.5352379 389.238685,73.7143127 C388.716238,73.8933875 388.43788,74.4620831 388.616955,74.9845299 L394.149493,91.1255891 Z" id="Path-7" fill="#FFFFFF"></path>
                        <path d="M405.631865,71.1874626 C405.280187,71.4530572 405.143837,71.9175633 405.296163,72.3311019 L410.455326,86.3373549 C410.495069,86.4452511 410.553123,86.5454847 410.626935,86.6336488 L413.226198,89.7383119 C413.58073,90.1617798 414.211424,90.2176629 414.634892,89.8631303 C415.05836,89.5085976 415.114243,88.8779036 414.759711,88.4544357 L412.160448,85.3497725 L412.332057,85.6460664 L407.349365,72.3311019 L409.580979,70.7112829 C410.021699,70.3784407 410.109152,69.7513443 409.77631,69.3106238 C409.443468,68.8699033 408.816371,68.7824507 408.375651,69.1152928 L405.631865,71.1874626 Z" id="Path-8" fill="#FFFFFF"></path>
                        <path d="M385.721478,72.6117647 L385.330001,73.3852369 C384.990247,74.0565157 385.48556,74.848435 386.23783,74.8366984 L393.94504,74.7164539 C395.210213,74.6967153 395.27869,72.8330727 394.018377,72.7205384 L386.702644,72.0673107 C386.294988,72.0309108 385.906301,72.2465956 385.721478,72.6117647 Z" id="Path-9" fill="#FFFFFF"></path>
                        <path d="M508.925415,100.727051 L479.920044,100.727051 L473.221191,80.4425597 L515.480835,80.4425597 L514.376898,83.6768396 C514.198421,84.199491 514.47743,84.7678676 515.000082,84.9463442 C515.522733,85.1248208 516.09111,84.8458119 516.269586,84.3231604 L517.825875,79.7657201 C518.047446,79.11687 517.565169,78.4425597 516.879531,78.4425597 L471.85791,78.4425597 C471.176197,78.4425597 470.694316,79.1097208 470.908594,79.7568824 L478.287085,102.041373 C478.422611,102.45069 478.805232,102.727051 479.236401,102.727051 L509.606647,102.727051 C510.034672,102.727051 510.415238,102.45464 510.553243,102.049473 L511.815737,98.34293 C511.993805,97.820139 511.714353,97.251981 511.191563,97.073912 C510.668772,96.895843 510.100614,97.175295 509.922545,97.698086 L508.925415,100.727051 Z" id="Path-20" fill="#FFFFFF"></path>
                        <path d="M479.77835,78.1196846 C479.476655,78.5822842 479.607093,79.2018676 480.069693,79.503563 C480.532293,79.8052584 481.151876,79.6748198 481.453571,79.2122202 L489.601582,66.7186037 C489.903277,66.2560042 489.772839,65.6364207 489.310239,65.3347253 C488.84764,65.03303 488.228056,65.1634686 487.926361,65.6260682 L479.77835,78.1196846 Z" id="Line" fill="#FFFFFF"></path>
                        <path d="M506.938386,79.2122202 C507.240081,79.6748198 507.859665,79.8052584 508.322264,79.503563 C508.784864,79.2018676 508.915303,78.5822842 508.613607,78.1196846 L500.465596,65.6260682 C500.163901,65.1634686 499.544318,65.03303 499.081718,65.3347253 C498.619118,65.6364207 498.48868,66.2560042 498.790375,66.7186037 L506.938386,79.2122202 Z" id="Line" fill="#FFFFFF"></path>
                        <path d="M511,94 C511,94.552285 511.447715,95 512,95 C512.552285,95 513,94.552285 513,94 L513,88 C513,87.4477153 512.552285,87 512,87 C511.447715,87 511,87.4477153 511,88 L511,94 Z" id="Line" fill="#FFFFFF"></path>
                        <path d="M514.859375,92.028381 C515.41166,92.028381 515.859375,91.5806661 515.859375,91.0283813 C515.859375,90.4760966 515.41166,90.0283813 514.859375,90.0283813 L509,90.0283813 C508.447715,90.0283813 508,90.4760966 508,91.0283813 C508,91.5806661 508.447715,92.028381 509,92.028381 L514.859375,92.028381 Z" id="Line" fill="#FFFFFF"></path>
                        <path d="M512,97 C515.30817,97 518,94.310258 518,91 C518,87.6918296 515.310258,85 512,85 C508.69183,85 506,87.6897416 506,91 C506,94.30817 508.689742,97 512,97 Z M512,83 C516.418278,83 520,86.5907123 520,91 C520,95.418278 516.409288,99 512,99 C507.581722,99 504,95.409288 504,91 C504,86.581722 507.590712,83 512,83 Z" id="Rectangle-3" fill="#FFFFFF"></path>
                        <polygon id="Path" fill="#D5790A" points="576.139498 35.7556184 576.139498 36.7556184 577.139498 36.7556184 604.856601 36.7556184 604.856601 34.7556184 577.139498 34.7556184 578.139498 35.7556184 578.139498 8.8423107 576.139498 8.8423107"></polygon>
                        <path d="M605.749776,34.4411937 C604.518636,26.4277005 602.959617,22.4628735 597.127833,16.6310899 C591.295951,10.7992073 587.331117,9.2401607 579.317697,8.0090235 C575.650637,7.4456367 574.138509,6.9314337 572.670968,5.4638928 C572.280444,5.0733685 571.647279,5.0733685 571.256755,5.4638928 C570.86623,5.8544171 570.86623,6.487582 571.256755,6.8781063 C573.116716,8.7380673 574.949893,9.3614443 579.013992,9.9858297 C586.645768,11.1583333 590.239948,12.5716323 595.713619,18.0453034 C601.187188,23.5188717 602.600463,27.1130482 603.772969,34.7448971 C604.397337,38.8089078 605.020686,40.6420377 606.88054,42.5018914 C607.271064,42.8924157 607.904229,42.8924157 608.294753,42.5018914 C608.685278,42.1113671 608.685278,41.4782021 608.294753,41.0876778 C606.827324,39.6202486 606.313145,38.1081621 605.749776,34.4411937 Z" id="Stroke-1" fill="#D5790A"></path>
                        <path d="M572.363481,41.6202253 C572.285526,41.7194692 572.285526,41.7194692 572.28029,41.7251081 C572.439106,41.5621211 572.439106,41.5621211 572.593865,41.4047071 C572.81473,41.1802444 573.142067,40.8486014 573.571876,40.4138078 C574.386864,39.5893698 575.566386,38.3980026 577.079981,36.870381 C579.74414,34.1815323 583.380354,30.5144331 587.745688,26.1137074 C591.151739,22.6800436 594.786784,19.016371 598.421829,15.3532573 C599.694096,14.0711663 600.672241,13.1992188 600.672241,13.1992188 L599.263062,11.744873 C599.263062,11.744873 598.274481,12.6623752 597.002187,13.9444931 C593.367059,17.6076905 589.731928,21.2714497 586.33913,24.6917528 C581.960195,29.1061902 578.323745,32.7735274 575.65926,35.4627051 C574.145169,36.990827 572.965175,38.1826715 572.149534,39.0077698 C571.71873,39.4435697 571.390446,39.7761725 571.168272,40.0019654 C571.011704,40.1612171 571.011704,40.1612171 570.908739,40.2665575 C570.867297,40.3091378 570.867297,40.3091378 570.837368,40.3402573 C570.759643,40.4268399 570.759643,40.4268399 570.715592,40.4868843 C570.672771,40.55302 570.672771,40.55302 570.641541,40.6135034 L570.620424,41.448144 C572.219178,41.9720038 572.60371,41.4689806 572.530628,40.9215526 C572.457545,40.3741246 571.954522,39.9895918 571.407094,40.0626744 C571.407094,40.0626744 572.406097,41.5544014 572.363481,41.6202253 Z" id="Path-2" fill="#D5790A"></path>
                        <path d="M575.807355,36.7250788 L575.807355,39.7065562 C575.807355,40.2588409 576.25507,40.7065562 576.807355,40.7065562 C577.359639,40.7065562 577.807355,40.2588409 577.807355,39.7065562 L577.807355,35.7250788 L577.807355,34.7250788 L576.807355,34.7250788 L572.851995,34.7250788 C572.29971,34.7250788 571.851995,35.172794 571.851995,35.7250788 C571.851995,36.2773635 572.29971,36.7250788 572.851995,36.7250788 L575.807355,36.7250788 Z" id="Path-3" fill="#D5790A"></path>
                        <path d="M600.680176,14.983188 C601.128906,15.5705582 601.403075,15.983188 601.95536,15.983188 C602.507644,15.983188 602.95536,15.5354727 602.95536,14.983188 L602.95536,11.2448746 C602.95536,11.2448746 603.025938,10.4674675 602.775391,10.2169205 C602.524844,9.9663735 601.128906,10.0017106 601.128906,10.0017106 L598,10.0017106 C597.447715,10.0017106 597,10.4494258 597,11.0017106 C597,11.5539953 597.539917,11.8282487 598,12.2933366 L600.680176,14.983188 Z" id="Path-3" fill="#D5790A"></path>
                        <path d="M573.142954,39.3894796 L573.142954,42.370957 C573.142954,42.9232417 573.590669,43.370957 574.142954,43.370957 C574.695239,43.370957 575.142954,42.9232417 575.142954,42.370957 L575.142954,38.3894796 L575.142954,37.3894796 L574.142954,37.3894796 L570.187594,37.3894796 C569.635309,37.3894796 569.187594,37.8371949 569.187594,38.3894796 C569.187594,38.9417643 569.635309,39.3894796 570.187594,39.3894796 L573.142954,39.3894796 Z" id="Path-3" fill="#D5790A"></path>
                        <path d="M570.478553,42.0538804 L570.478553,45.0353578 C570.478553,45.5876426 570.926268,46.0353578 571.478553,46.0353578 C572.030838,46.0353578 572.478553,45.5876426 572.478553,45.0353578 L572.478553,41.0538804 L572.478553,40.0538804 L571.478553,40.0538804 L567.523193,40.0538804 C566.970909,40.0538804 566.523193,40.5015957 566.523193,41.0538804 C566.523193,41.6061652 566.970909,42.0538804 567.523193,42.0538804 L570.478553,42.0538804 Z" id="Path-3" fill="#D5790A"></path>
                        <path d="M2,42.071242 C2,42.0659611 35.9971408,42.0699589 35.9971408,42.0699589 C35.9970712,42.0699589 36,10.9987169 36,10.9987169 C36,11.0039978 2.0028592,11 2.0028592,11 C2.0029288,11 2,42.071242 2,42.071242 Z M2.0028592,9 L35.9971408,9 C37.1032894,9 38,9.9021452 38,10.9987169 L38,42.071242 C38,43.1751028 37.0981492,44.0699589 35.9971408,44.0699589 L2.0028592,44.0699589 C0.8967106,44.0699589 0,43.1678137 0,42.071242 L0,10.9987169 C0,9.894856 0.9018508,9 2.0028592,9 Z" id="Rectangle" fill="#7FA022"></path>
                        <rect id="Rectangle-2" fill="#7FA022" x="10" y="5" width="2" height="10"></rect>
                        <rect id="Rectangle-2" fill="#7FA022" x="26" y="5" width="2" height="10"></rect>
                        <rect id="Rectangle-2" fill="#7FA022" transform="translate(29.000000, 22.000000) rotate(90.000000) translate(-29.000000, -22.000000) " x="28" y="19" width="2" height="6"></rect>
                        <rect id="Rectangle-2" fill="#7FA022" transform="translate(29.000000, 29.000000) rotate(90.000000) translate(-29.000000, -29.000000) " x="28" y="26" width="2" height="6"></rect>
                        <rect id="Rectangle-2-Copy" fill="#7FA022" transform="translate(29.000000, 36.000000) rotate(90.000000) translate(-29.000000, -36.000000) " x="28" y="33" width="2" height="6"></rect>
                        <rect id="Rectangle-2" fill="#7FA022" transform="translate(19.000000, 22.000000) rotate(90.000000) translate(-19.000000, -22.000000) " x="18" y="19" width="2" height="6"></rect>
                        <rect id="Rectangle-2" fill="#7FA022" transform="translate(19.000000, 29.000000) rotate(90.000000) translate(-19.000000, -29.000000) " x="18" y="26" width="2" height="6"></rect>
                        <rect id="Rectangle-2-Copy" fill="#7FA022" transform="translate(19.000000, 36.000000) rotate(90.000000) translate(-19.000000, -36.000000) " x="18" y="33" width="2" height="6"></rect>
                        <rect id="Rectangle-2" fill="#7FA022" transform="translate(9.000000, 22.000000) rotate(90.000000) translate(-9.000000, -22.000000) " x="8" y="19" width="2" height="6"></rect>
                        <rect id="Rectangle-2" fill="#7FA022" transform="translate(9.000000, 29.000000) rotate(90.000000) translate(-9.000000, -29.000000) " x="8" y="26" width="2" height="6"></rect>
                        <rect id="Rectangle-2-Copy" fill="#7FA022" transform="translate(9.000000, 36.000000) rotate(90.000000) translate(-9.000000, -36.000000) " x="8" y="33" width="2" height="6"></rect>
                        <path d="M118.41223,22.2153171 C118.41223,19.5341933 116.23875,17.360713 113.557626,17.360713 C110.876502,17.360713 108.703022,19.5341933 108.703022,22.2153171 C108.703022,24.896441 110.876502,27.0699213 113.557626,27.0699213 C116.23875,27.0699213 118.41223,24.896441 118.41223,22.2153171 Z M110.703022,22.2153171 C110.703022,20.6387628 111.981072,19.360713 113.557626,19.360713 C115.13418,19.360713 116.41223,20.6387628 116.41223,22.2153171 C116.41223,23.7918715 115.13418,25.0699213 113.557626,25.0699213 C111.981072,25.0699213 110.703022,23.7918715 110.703022,22.2153171 Z" id="Oval" fill="#7FA022"></path>
                        <path d="M110.839836,30.3404625 L115.879639,30.3404625 C118.696994,30.3404625 121.340756,33.0420384 121.340756,35.9966544 L105.373152,35.9966544 C105.364858,32.9031049 108.128396,30.3404625 110.839836,30.3404625 Z M104.38134,37.9966544 L122.338135,37.9966544 C122.862347,37.9966544 123.297586,37.591845 123.335514,37.0690068 L123.382656,36.4191571 C123.385277,32.3400858 119.861987,28.3404625 115.879639,28.3404625 L110.839836,28.3404625 C106.90505,28.3404625 103.373046,32.8247411 103.373046,36.9322407 L103.381233,37.0599442 L103.389527,37.1243578 C103.453751,37.6231548 103.878425,37.9966544 104.38134,37.9966544 Z" id="Stroke-1" fill="#7FA022"></path>
                        <path d="M91.098463,33.9038647 C91.114256,33.601954 91.05325,33.884455 91.098463,33.5228369 C91.226228,32.5009523 91.456895,31.4827973 91.812165,30.5435119 C92.792278,27.9522257 94.481521,26.4756109 97.172257,26.4756109 C97.455534,26.484397 97.782747,26.4916576 98.122889,26.4970746 C99.338183,26.5164288 100.635272,26.5117766 101.879356,26.4923267 C102.286649,26.4859591 102.590712,26.4795778 102.760034,26.4752904 C102.991911,26.4631283 103.295864,26.5038477 103.685282,26.6514228 C104.341007,26.8999182 105.008614,27.3781254 105.655897,28.1615374 C106.17704,28.792282 106.659793,29.5947124 107.091273,30.5881235 L108.925709,29.7913521 C108.421678,28.6309032 107.842147,27.6676083 107.197708,26.8876383 C106.329363,25.8366735 105.374715,25.1528584 104.394022,24.7812123 C103.730138,24.5296247 103.151555,24.4521141 102.710112,24.4750868 C102.662803,24.4779827 102.662803,24.4779827 102.634845,24.480611 C102.54624,24.4800629 102.248559,24.4863102 101.848092,24.492571 C100.623326,24.511719 99.346031,24.5163001 98.154736,24.4973281 C97.823312,24.49205 97.505077,24.4849886 97.201726,24.4760452 C93.545662,24.4756109 91.190195,26.5345912 89.941503,29.8359637 C89.524726,30.9378669 89.259983,32.1064293 89.113914,33.2747112 C89.025071,33.9852894 88.99544,34.5517484 88.996266,34.9051895 C88.998835,35.4589768 89.445795,35.9038647 89.996266,35.9038647 L104.621604,35.9038647 L104.621604,33.9038647 C104.621604,33.9038647 91.088988,34.084984 91.098463,33.9038647 Z" id="Stroke-1" fill="#7FA022"></path>
                        <path d="M139.003733,36.0734112 C139.554204,36.0734112 140.001164,35.6285232 140.003722,35.0780584 C140.004671,34.6735315 139.97087,34.0273739 139.869399,33.215792 C139.702547,31.8812816 139.400204,30.5467525 138.92483,29.2899279 C137.506977,25.5413165 134.844526,23.2139928 130.738461,23.2139928 C128.996136,23.264926 127.39254,23.2710718 126.043727,23.2512937 C125.789026,23.2475589 125.610618,23.2438462 125.518354,23.2414169 C125.039088,23.2235738 124.433152,23.2738966 123.725304,23.4438017 C122.645267,23.7030434 121.576785,24.1901635 120.581676,24.9578302 C119.048874,26.140295 117.823363,27.8890715 117.008811,30.2671996 L118.900899,30.9152746 C119.590753,28.9012111 120.586855,27.4797962 121.803294,26.5413858 C123.120744,25.5250523 124.45889,25.2038564 125.418989,25.2386579 C125.565551,25.2433527 125.751709,25.2472267 126.014403,25.2510787 C127.390716,25.27126 129.022949,25.2650045 130.76793,25.2135585 C133.908667,25.2139928 135.904894,26.9589511 137.054168,29.9974761 C137.468034,31.0916829 137.736302,32.2758046 137.884851,33.4639177 C137.937397,33.8841907 137.985365,33.7221502 138.003739,34.0734112 C138.014801,34.2848786 121.272297,34.0734112 121.272297,34.0734112 L121.272297,36.0734112 L139.003733,36.0734112 Z" id="Stroke-1" fill="#7FA022"></path>
                        <path d="M134.847812,15.8289734 C134.847812,12.4360526 132.097306,9.6855469 128.704386,9.6855469 C125.311465,9.6855469 122.560959,12.4360526 122.560959,15.8289734 C122.560959,19.2218942 125.311465,21.9723999 128.704386,21.9723999 C132.097306,21.9723999 134.847812,19.2218942 134.847812,15.8289734 Z M124.560959,15.8289734 C124.560959,13.5406221 126.416034,11.6855469 128.704386,11.6855469 C130.992737,11.6855469 132.847812,13.5406221 132.847812,15.8289734 C132.847812,18.1173247 130.992737,19.9723999 128.704386,19.9723999 C126.416034,19.9723999 124.560959,18.1173247 124.560959,15.8289734 Z" id="Oval" fill="#7FA022"></path>
                        <path d="M104.722324,17.7661979 C104.722324,14.7752098 102.297649,12.3505348 99.306661,12.3505348 C96.315673,12.3505348 93.890998,14.7752098 93.890998,17.7661979 C93.890998,20.7571861 96.315673,23.181861 99.306661,23.181861 C102.297649,23.181861 104.722324,20.7571861 104.722324,17.7661979 Z M95.890998,17.7661979 C95.890998,15.8797793 97.420243,14.3505348 99.306661,14.3505348 C101.19308,14.3505348 102.722324,15.8797793 102.722324,17.7661979 C102.722324,19.6526166 101.19308,21.181861 99.306661,21.181861 C97.420243,21.181861 95.890998,19.6526166 95.890998,17.7661979 Z" id="Oval" fill="#7FA022"></path>
                        <path d="M230.073242,9 C230.073242,7.9297608 228.618917,7.6075201 228.166837,8.5775903 C228.132549,8.6511661 228.070411,8.7875286 227.984393,8.9810888 C227.842288,9.3008579 227.684276,9.6665754 227.514324,10.072671 C227.029451,11.2312585 226.544791,12.4838172 226.09206,13.7862402 C225.486367,15.5287068 224.984928,17.2266342 224.623047,18.8333458 C223.544404,23.6224073 223.778562,27.2369052 225.812526,28.9704537 C226.258732,29.3507554 228.07312,30.0393066 228.07312,30.0393066 L228.07312,28.9704537 C228.07312,28.9704537 228.166837,27.9177246 228.073242,27.9177246 C225.513368,27.9177246 225.402644,24.4742552 226.57417,19.2727982 C226.917968,17.7463727 227.398616,16.118846 227.981182,14.4429119 C228.419473,13.1820315 228.073242,9 228.073242,9 L228.073242,27.9177246 L228.073242,43.4126043 C228.073242,43.9648891 228.520957,44.4126043 229.073242,44.4126043 C229.625527,44.4126043 230.073242,43.9648891 230.073242,43.4126043 L230.073242,9 Z" id="Path-28" fill="#D5790A"></path>
                        <path d="M216,17.4700003 L216,10 C216,9.4477153 215.552285,9 215,9 C214.447715,9 214,9.4477153 214,10 L214,17.4767658 C213.950865,17.4693416 213.900557,17.4654928 213.849351,17.4654928 C213.052448,17.4654928 212.577276,17.0309634 212.271633,16.1623821 C212.065937,15.5778321 211.995985,14.9577536 212.000041,14.5397114 C212.000054,14.5387 212.000176,10 212.000176,10 C212.000176,9.4477153 211.552461,9 211.000176,9 C210.447891,9 210.000176,9.4477153 210.000176,10 L210.000176,14.5231442 C209.99402,15.1505365 210.087758,15.9814666 210.385029,16.826255 C210.946426,18.4216415 212.087911,19.4654928 213.849351,19.4654928 C213.900557,19.4654928 213.950865,19.461644 214,19.4542199 L214,43.4126043 C214,43.9648891 214.447715,44.4126043 215,44.4126043 C215.552285,44.4126043 216,43.9648891 216,43.4126043 L216,19.4700003 C217.761598,19.4700003 218.903034,18.4256375 219.464377,16.8295556 C219.761604,15.9844421 219.85533,15.1531804 219.849216,14.5227239 C219.849097,14.512331 219.849175,10 219.849175,10 C219.849175,9.4477153 219.401459,9 218.849175,9 C218.29689,9 217.849175,9.4477153 217.849175,10 L217.849175,14.5255525 C217.853367,14.9604919 217.783403,15.5810114 217.577663,16.1659971 C217.271965,17.0351951 216.796745,17.4700003 216,17.4700003 Z" id="Combined-Shape" fill="#D5790A"></path>
                        <polygon id="Path-14" fill="#D5790A" points="188.497005 17 188.497005 19 202.312012 19 202.312012 17"></polygon>
                        <path d="M199.89502,7.6660156 C199.89502,7.6660156 199.965516,8.0749089 200.052551,8.5174919 C200.301242,9.7821145 200.549931,11.0988458 200.781911,12.4000339 C200.890055,13.0066139 200.992168,13.5966751 201.087262,14.1661872 C201.56047,17.0001988 201.832031,19.1565557 201.832031,20.2954102 C201.832031,23.7361617 195.362321,31.0948536 195.086274,30.8550139 C194.861665,30.6598652 194.09268,29.9973417 194.032821,29.9455837 C189.819826,26.3027332 188.305735,24.0324305 188.501855,20.2171069 C188.550228,19.2760586 188.63753,18.2593995 188.760092,17.1785593 C188.942075,15.5737017 189.19696,13.8664495 189.506121,12.1102827 C189.736619,10.800955 189.983667,9.5407149 190.230629,8.3762725 C190.316974,7.9691528 190.4552,7.6660156 190.4552,7.6660156 L195.089294,7.6660156 L195.089294,5.6660156 L189.584717,5.6660156 L188.793457,5.6660156 L188.611513,6.436073 C188.594112,6.5097198 188.562173,6.6479791 188.517772,6.8450878 C188.444175,7.1718025 188.362275,7.545801 188.274147,7.9613293 C188.022617,9.1473102 187.771172,10.4299835 187.53641,11.7635284 C187.220597,13.5574806 186.959812,15.3042573 186.772828,16.9532126 C186.645872,18.0727973 186.555105,19.1298125 186.504492,20.1144361 C186.267673,24.7215339 188.085211,27.4468411 192.724686,31.4584558 C192.787344,31.5126346 193.553697,32.1728907 193.774543,32.3647699 C194.042995,32.59801 194.272083,32.799714 194.486962,32.9926358 L195.069259,33.5154328 L195.716707,33.0758913 C200.686618,29.7019055 203.832031,24.4411505 203.832031,20.2954102 C203.832031,19.0080567 203.551591,16.7811992 203.059951,13.8367982 C202.963602,13.25977 202.860248,12.662537 202.750864,12.0490017 C202.516626,10.7351501 202.265795,9.4070773 202.014965,8.1315788 C201.927168,7.6851194 201.845623,7.2770249 201.772408,6.915676 C201.728391,6.6984361 201.696869,6.5447479 201.67992,6.4630004 L201.514679,5.6660156 L200.700745,5.6660156 L194.999978,5.6660156 L194.999978,7.6660156 L199.89502,7.6660156 Z" id="Path-11" fill="#D5790A"></path>
                        <path d="M196.20752,32.257958 C196.20752,31.7056733 195.759804,31.257958 195.20752,31.257958 C194.655235,31.257958 194.20752,31.7056733 194.20752,32.257958 L194.20752,43.0515137 C194.20752,43.6037984 194.655235,44.0515137 195.20752,44.0515137 C195.759804,44.0515137 196.20752,43.6037984 196.20752,43.0515137 L196.20752,32.257958 Z" id="Path-12" fill="#D5790A"></path>
                        <path d="M201.923174,45 C202.475458,45 202.923174,44.5522847 202.923174,44 C202.923174,43.4477153 202.475458,43 201.923174,43 L188.094482,43 C187.542198,43 187.094482,43.4477153 187.094482,44 C187.094482,44.5522847 187.542198,45 188.094482,45 L201.923174,45 Z" id="Path-13" fill="#D5790A"></path>
                        <path d="M326,24.5 C326,22.0147186 323.985281,20 321.5,20 C319.014719,20 317,22.0147186 317,24.5 C317,26.9852814 319.014719,29 321.5,29 C323.985281,29 326,26.9852814 326,24.5 Z M319,24.5 C319,23.1192881 320.119288,22 321.5,22 C322.880712,22 324,23.1192881 324,24.5 C324,25.8807119 322.880712,27 321.5,27 C320.119288,27 319,25.8807119 319,24.5 Z" id="Oval-3" fill="#D5790A"></path>
                        <path d="M307,4.5 C307,2.0147186 304.985281,0 302.5,0 C300.014719,0 298,2.0147186 298,4.5 C298,6.9852814 300.014719,9 302.5,9 C304.985281,9 307,6.9852814 307,4.5 Z M300,4.5 C300,3.1192881 301.119288,2 302.5,2 C303.880712,2 305,3.1192881 305,4.5 C305,5.8807119 303.880712,7 302.5,7 C301.119288,7 300,5.8807119 300,4.5 Z" id="Oval-3" fill="#D5790A"></path>
                        <path d="M313.520508,37 C314.072793,37 314.520508,36.5522847 314.520508,36 C314.520508,35.4477153 314.072793,35 313.520508,35 L281.5,35 C280.947715,35 280.5,35.4477153 280.5,36 C280.5,36.5522847 280.947715,37 281.5,37 L313.520508,37 Z" id="Line" fill="#D5790A"></path>
                        <path d="M285.666667,47.8304688 C285.666667,48.3827535 286.114382,48.8304688 286.666667,48.8304688 C287.218951,48.8304688 287.666667,48.3827535 287.666667,47.8304688 L287.666667,36 C287.666667,35.4477153 287.218951,35 286.666667,35 C286.114382,35 285.666667,35.4477153 285.666667,36 L285.666667,47.8304688 Z" id="Line" fill="#D5790A"></path>
                        <path d="M306.666667,47.8304688 C306.666667,48.3827535 307.114382,48.8304688 307.666667,48.8304688 C308.218951,48.8304688 308.666667,48.3827535 308.666667,47.8304688 L308.666667,36 C308.666667,35.4477153 308.218951,35 307.666667,35 C307.114382,35 306.666667,35.4477153 306.666667,36 L306.666667,47.8304688 Z" id="Line" fill="#D5790A"></path>
                        <path d="M313.187999,27.8653922 C313.932764,28.0081658 314.485244,28.2409825 314.764005,28.5256746 C315.275187,29.027128 316.216038,29.9334651 317.475434,31.1401399 C318.175815,31.8111665 318.900863,32.5044298 319.625899,33.1967489 C319.879651,33.4390506 320.036732,33.5889658 320.326752,33.8656665 C320.544293,34.0731577 320.544293,34.0731577 320.592722,34.1193243 C320.866299,34.3801163 321.263536,34.4643804 321.619429,34.3371147 L327.284712,32.3112358 C327.391842,32.3055063 327.566974,32.3133812 327.702596,32.3673187 C327.84927,32.4256513 327.960486,32.5381671 328.054213,32.7869177 C328.301183,33.3916619 328.139314,33.8013133 327.759984,33.9756035 C327.468622,34.1094747 326.142319,34.6453282 324.174106,35.4278102 C323.292854,35.7780881 322.411186,36.1271045 321.529493,36.4751805 C321.220882,36.5970145 320.926636,36.7180176 320.926636,36.7180176 L315.697526,32.0101697 C315.513961,31.8451814 315.275866,31.7539062 315.029053,31.7539062 L284.602205,31.7539062 C284.555375,31.7468737 284.304082,31.6906777 284.072114,31.5725036 C283.763615,31.4153415 283.629282,31.2287503 283.63429,30.8899005 C283.627346,30.4747525 283.728811,30.3379691 283.985345,30.2366785 C284.17191,30.1630149 284.39261,30.1377723 284.544764,30.1431337 C284.54709,30.1432454 284.69448,30.140509 284.69448,30.140509 L310.867209,27.715094 C311.642305,27.6867555 312.44479,27.7229168 313.187999,27.8653922 Z M284.509931,28.1490418 L284.668117,28.14695 C284.212244,28.1301757 283.736814,28.1845527 283.250842,28.376435 C282.252408,28.7706592 281.611871,29.6341596 281.634562,30.8931425 C281.61718,32.0327982 282.223877,32.8755109 283.164251,33.3545767 C283.6703,33.6123797 284.157024,33.7212242 284.521748,33.7506643 L314.671326,33.7539062 L320.051742,38.6128772 C320.333405,38.8660372 320.733914,38.9383631 321.086333,38.799709 C321.145369,38.7764823 321.145369,38.7764823 321.41033,38.6721183 C321.763552,38.5329106 321.954857,38.4574663 322.263898,38.3354626 C323.146926,37.9868594 324.029978,37.6372954 324.85432,37.3096403 C326.947975,36.47729 328.253984,35.9496356 328.594997,35.7929512 C329.947736,35.1714109 330.558161,33.6265694 329.915539,32.0556971 C329.632769,31.3041177 329.109093,30.7743228 328.441697,30.5088972 C327.921251,30.3019141 327.399215,30.2784402 326.91725,30.3562199 C326.818718,30.3721211 326.739449,30.3898067 326.682061,30.4056384 L321.500366,32.2866638 C321.210658,32.0102606 321.260611,31.9923482 321.007101,31.7502767 C320.282813,31.0586721 319.558539,30.3661497 318.882639,29.7185779 C317.605418,28.4948249 316.667917,27.5917151 316.178589,27.1119789 C315.572636,26.4928347 314.672682,26.1135919 313.564549,25.9011594 C312.648062,25.7254661 311.706931,25.6830572 310.888752,25.7129661 C310.806358,25.7159781 310.745691,25.7191265 310.709397,25.7215103 L284.509931,28.1490418 Z" id="Path-22" fill="#D5790A"></path>
                        <path d="M302.162393,25.3153467 C302.679221,25.2704911 303.075928,24.8378628 303.075928,24.3190918 L303.075928,19.4366455 L308.346158,24.28122 L308.48066,24.3848369 C308.604851,24.4646878 308.793372,24.5672949 309.033964,24.6674848 C309.553331,24.8837659 310.0933,24.993903 310.645227,24.9254246 C311.222138,24.8538463 311.743176,24.5857806 312.145823,24.1141004 C313.32668,22.73079 313.145091,21.2135839 311.907474,19.8952711 C311.546823,19.5111045 309.86697,17.8368649 307.245656,15.2418858 C306.181061,14.1880222 305.071972,13.0919154 303.962894,11.9970207 C303.574725,11.6138158 303.334433,11.3766968 302.890797,10.9390343 C302.55805,10.6108428 302.55805,10.6108428 302.484036,10.5378755 L302.404303,10.4672375 C302.168771,10.2799823 301.790168,10.0161999 301.317131,9.7519683 C300.750594,9.4355086 300.184515,9.2003849 299.625246,9.0821026 C299.371836,9.0285077 299.122932,9 298.878662,9 C297.132567,9 295.440731,10.3152759 295.075062,11.9032902 C294.963278,12.3887457 294.647441,14.5489506 294.166124,18.032455 C294.141625,18.2098394 294.141625,18.2098394 294.117149,18.3873729 C293.921758,19.8051521 293.715293,21.3239604 293.510732,22.8427351 C293.439139,23.3742797 293.372896,23.8678648 293.313627,24.3108468 C293.252724,24.766553 293.252724,24.766553 293.239214,24.8680394 C293.154779,25.5022947 293.679479,26.0515796 294.316934,25.9962549 L302.162393,25.3153467 Z M295.370239,23.1931152 C295.574548,21.6762167 295.903343,20.0759375 296.098422,18.6604218 C296.122852,18.4832253 296.122852,18.4832253 296.147302,18.3061951 C296.608304,14.9697224 296.933557,12.7451073 297.024059,12.3520809 C297.178509,11.6813387 298.054913,11 298.878662,11 C298.976706,11 299.088291,11.0127801 299.211411,11.0388194 C299.546781,11.1097482 299.9364,11.2715783 300.341804,11.4980317 C300.70794,11.7025501 301.002127,11.9075177 301.159662,12.0327625 L301.079929,11.9621245 C301.153752,12.0349035 301.153752,12.0349035 301.486271,12.3628701 C301.929657,12.8002855 302.169835,13.0372921 302.557811,13.4203058 C303.666288,14.514607 304.774754,15.6100985 305.809251,16.6341673 C308.418352,19.2170554 310.115267,20.9082998 310.449337,21.2641527 C311.038508,21.8917389 311.084597,22.2768239 310.624685,22.8155871 C310.555414,22.8967342 310.492663,22.9290185 310.398972,22.9406429 C310.245589,22.9596733 310.029623,22.9156229 309.802825,22.8211769 C309.682079,22.7708946 309.594136,22.7230293 309.562308,22.7025655 L309.696811,22.8061823 L302.751254,16.4463191 C302.109725,15.8588873 301.075928,16.3139895 301.075928,17.1838379 L301.079929,23.4830322 L295.370239,24.0169678 C295.370239,24.0169678 295.298728,23.7240562 295.370239,23.1931152 Z" id="Path-21" fill="#D5790A"></path>
                        <path d="M392.078411,30.0647683 C392.078411,24.6377164 387.678916,20.2382215 382.251864,20.2382215 C376.824812,20.2382215 372.425317,24.6377164 372.425317,30.0647683 C372.425317,35.4918203 376.824812,39.8913152 382.251864,39.8913152 C387.678916,39.8913152 392.078411,35.4918203 392.078411,30.0647683 Z M374.425317,30.0647683 C374.425317,25.7422859 377.929382,22.2382215 382.251864,22.2382215 C386.574347,22.2382215 390.078411,25.7422859 390.078411,30.0647683 C390.078411,34.3872508 386.574347,37.8913152 382.251864,37.8913152 C377.929382,37.8913152 374.425317,34.3872508 374.425317,30.0647683 Z" id="Oval-2" fill="#D5790A"></path>
                        <path d="M423.85398,30.0647683 C423.85398,24.6377164 419.454485,20.2382215 414.027433,20.2382215 C408.600381,20.2382215 404.200886,24.6377164 404.200886,30.0647683 C404.200886,35.4918203 408.600381,39.8913152 414.027433,39.8913152 C419.454485,39.8913152 423.85398,35.4918203 423.85398,30.0647683 Z M406.200886,30.0647683 C406.200886,25.7422859 409.70495,22.2382215 414.027433,22.2382215 C418.349915,22.2382215 421.85398,25.7422859 421.85398,30.0647683 C421.85398,34.3872508 418.349915,37.8913152 414.027433,37.8913152 C409.70495,37.8913152 406.200886,34.3872508 406.200886,30.0647683 Z" id="Oval-2" fill="#D5790A"></path>
                        <path d="M391.224555,20.465276 C391.068904,20.5070104 390.925645,20.5857435 390.806976,20.6947705 L381.951697,28.8305941 C381.343471,29.3894043 381.636559,30.4028913 382.449164,30.5508143 L394.820552,32.802848 C395.148777,32.8625966 395.48518,32.7547277 395.717457,32.5152523 L408.860019,18.9654111 L407.424394,17.572938 L394.966797,30.8351835 L394.966797,30.8351835 L384.578125,29.0272217 L391.903931,22.3970411 L391.903931,22.3970411 L407.940609,18.0538744 L407.422648,16.1221092 L391.224555,20.465276 Z" id="Path-6" fill="#D5790A"></path>
                        <path d="M394.149493,32.1255891 C394.328568,32.6480359 394.897263,32.9263939 395.41971,32.7473191 C395.942157,32.5682443 396.220515,31.9995486 396.04144,31.4771018 L390.508902,15.3360427 C390.329827,14.8135959 389.761132,14.5352379 389.238685,14.7143127 C388.716238,14.8933875 388.43788,15.4620831 388.616955,15.9845299 L394.149493,32.1255891 Z" id="Path-7" fill="#D5790A"></path>
                        <path d="M405.631865,12.1874626 C405.280187,12.4530572 405.143837,12.9175633 405.296163,13.3311019 L410.455326,27.3373549 C410.495069,27.4452511 410.553123,27.5454847 410.626935,27.6336488 L413.226198,30.7383119 C413.58073,31.1617798 414.211424,31.2176629 414.634892,30.8631303 C415.05836,30.5085976 415.114243,29.8779036 414.759711,29.4544357 L412.160448,26.3497725 L412.332057,26.6460664 L407.349365,13.3311019 L409.580979,11.7112829 C410.021699,11.3784407 410.109152,10.7513443 409.77631,10.3106238 C409.443468,9.8699033 408.816371,9.7824507 408.375651,10.1152928 L405.631865,12.1874626 Z" id="Path-8" fill="#D5790A"></path>
                        <path d="M385.721478,13.6117647 L385.330001,14.3852369 C384.990247,15.0565157 385.48556,15.848435 386.23783,15.8366984 L393.94504,15.7164539 C395.210213,15.6967153 395.27869,13.8330727 394.018377,13.7205384 L386.702644,13.0673107 C386.294988,13.0309108 385.906301,13.2465956 385.721478,13.6117647 Z" id="Path-9" fill="#D5790A"></path>
                        <path d="M508.925415,41.7270508 L479.920044,41.7270508 L473.221191,21.4425597 L515.480835,21.4425597 L514.376898,24.6768396 C514.198421,25.199491 514.47743,25.7678676 515.000082,25.9463442 C515.522733,26.1248208 516.09111,25.8458119 516.269586,25.3231604 L517.825875,20.7657201 C518.047446,20.11687 517.565169,19.4425597 516.879531,19.4425597 L471.85791,19.4425597 C471.176197,19.4425597 470.694316,20.1097208 470.908594,20.7568824 L478.287085,43.0413735 C478.422611,43.4506896 478.805232,43.7270508 479.236401,43.7270508 L509.606647,43.7270508 C510.034672,43.7270508 510.415238,43.4546404 510.553243,43.049473 L511.815737,39.34293 C511.993805,38.8201395 511.714353,38.2519807 511.191563,38.0739118 C510.668772,37.895843 510.100614,38.1752951 509.922545,38.6980856 L508.925415,41.7270508 Z" id="Path-20" fill="#D5790A"></path>
                        <path d="M479.77835,19.1196846 C479.476655,19.5822842 479.607093,20.2018676 480.069693,20.503563 C480.532293,20.8052584 481.151876,20.6748198 481.453571,20.2122202 L489.601582,7.7186037 C489.903277,7.2560042 489.772839,6.6364207 489.310239,6.3347253 C488.84764,6.03303 488.228056,6.1634686 487.926361,6.6260682 L479.77835,19.1196846 Z" id="Line" fill="#D5790A"></path>
                        <path d="M506.938386,20.2122202 C507.240081,20.6748198 507.859665,20.8052584 508.322264,20.503563 C508.784864,20.2018676 508.915303,19.5822842 508.613607,19.1196846 L500.465596,6.6260682 C500.163901,6.1634686 499.544318,6.03303 499.081718,6.3347253 C498.619118,6.6364207 498.48868,7.2560042 498.790375,7.7186037 L506.938386,20.2122202 Z" id="Line" fill="#D5790A"></path>
                        <path d="M511,35 C511,35.5522847 511.447715,36 512,36 C512.552285,36 513,35.5522847 513,35 L513,29 C513,28.4477153 512.552285,28 512,28 C511.447715,28 511,28.4477153 511,29 L511,35 Z" id="Line" fill="#D5790A"></path>
                        <path d="M514.859375,33.0283813 C515.41166,33.0283813 515.859375,32.5806661 515.859375,32.0283813 C515.859375,31.4760966 515.41166,31.0283813 514.859375,31.0283813 L509,31.0283813 C508.447715,31.0283813 508,31.4760966 508,32.0283813 C508,32.5806661 508.447715,33.0283813 509,33.0283813 L514.859375,33.0283813 Z" id="Line" fill="#D5790A"></path>
                        <path d="M512,38 C515.30817,38 518,35.3102584 518,32 C518,28.6918296 515.310258,26 512,26 C508.69183,26 506,28.6897416 506,32 C506,35.3081704 508.689742,38 512,38 Z M512,24 C516.418278,24 520,27.5907123 520,32 C520,36.418278 516.409288,40 512,40 C507.581722,40 504,36.4092877 504,32 C504,27.581722 507.590712,24 512,24 Z" id="Rectangle-3" fill="#D5790A"></path>
                    </g>
                </g>
            </g>
            <path d="M688.099499,21.5252192 C689.559866,21.1162806 690,19.9001745 690,18.2651676 C690,16.3378482 688.782812,15.0300183 686.855099,15.0300183 L683.955909,15.0300183 L682.99054,12.2563936 C681.237801,7 675.979584,7 675.979584,7 L656.949709,7 C656.949709,7 651.691492,7 649.938753,12.2563936 L648.939308,15.0300183 L646.149354,15.0300183 C644.22164,15.0300183 642.929293,16.3378482 642.929293,18.2651676 C642.929293,19.8418615 643.485935,21.1973 644.946301,21.6645516 C643.42761,22.9496804 642,24.8650031 642,27.0255745 L642,30.9869995 C642,31.9798157 642.829226,33.3482912 643.938896,34.0495424 L643.938896,40.9478951 C643.938896,41.9407113 644.977286,43 645.970306,43 L651.923445,43 C652.916464,43 653.940819,41.9407113 653.940819,40.9478951 L653.940819,37.0035387 C659.778865,37.0035387 663.134891,37.0035387 666.464647,37.0035387 C669.794402,37.0035387 672.700648,37.0035387 678.901428,37.0035387 L678.901428,40.7955029 C678.901428,41.7883191 680.108859,43 681.101878,43 L686.855099,43 C687.848118,43 689.016968,41.9743836 689.016968,40.9815674 L689.121551,34.1093559 C690.23122,33.4671653 691.010498,31.0616883 691.010498,30.0105591 L691.010498,27.0255745 C691.010498,24.8650031 689.618191,22.8103481 688.099499,21.5252192 Z M686.49527,16.5127872 C687.488289,16.5127872 688.248009,17.2723514 688.248009,18.2651676 C688.248009,19.2579838 687.488289,20.0175481 686.49527,20.0175481 L685.911273,20.0175481 L684.742531,16.5127872 L686.49527,16.5127872 Z M651.574842,12.7819582 C652.100514,11.1462038 653.151859,9.92013561 654.729623,9.21888441 C655.31362,8.98563241 656.390027,8.96838379 657.032349,8.96838379 L676.020996,8.96838379 C676.664066,8.96838379 677.499024,8.92731941 678.083021,9.21888441 C679.660037,9.92013561 680.712129,11.1462038 681.237801,12.7819582 L684.041884,20.0175481 L648.887409,20.0175481 L651.574842,12.7819582 Z M644.681284,18.2651676 C644.681284,17.2723514 645.441004,16.5127872 646.434023,16.5127872 L648.186762,16.5127872 L647.01802,20.0175481 L646.434023,20.0175481 C645.441004,20.0175481 644.681284,19.2579838 644.681284,18.2651676 Z M651.986911,40.999878 L645.95151,40.999878 L645.95151,34.9962172 C647.411876,35.5225294 650.000873,36.7667326 651.986911,37.0007322 L651.986911,40.999878 Z M686.953838,41.0036608 L680.958347,41.0036608 L680.958347,37.0140329 C682.944385,36.7217203 685.493471,35.5255646 686.953838,35 L686.953838,41.0036608 Z M689.034668,30.0421143 C688.742296,30.9183045 685.560576,33.7867289 684.800856,34.0207285 C682.172495,34.7212321 679.291713,35.0389262 676.495933,35.0389262 C671.395927,35.0389262 660.897703,35.0389262 656.581262,35.0389262 C653.785923,35.0389262 650.815123,34.7795451 648.186762,34.0207285 C647.427042,33.7867289 644.212197,31.9461365 643.978149,31.0699463 L643.978149,27.0255745 C643.978149,24.1054389 647.009733,21.9924344 649.931213,21.9924344 L682.926412,21.9924344 C685.847145,21.9924344 689.034668,24.1054389 689.034668,27.0255745 L689.034668,30.0421143 Z M682.99054,24.2739417 C681.062079,24.2739417 679.485062,25.8506355 679.485062,27.7779549 C679.485062,29.7052743 681.062079,31.2827157 682.99054,31.2827157 C684.918254,31.2827157 686.49527,29.7052743 686.49527,27.7779549 C686.49527,25.8506355 684.918254,24.2739417 682.99054,24.2739417 Z M682.99054,29.5303353 C681.996773,29.5303353 681.237801,28.7707711 681.237801,27.7779549 C681.237801,26.7851387 681.996773,26.0255745 682.99054,26.0255745 C683.983559,26.0255745 684.742531,26.7851387 684.742531,27.7779549 C684.742531,28.7707711 683.983559,29.5303353 682.99054,29.5303353 Z M649.938753,24.2739417 C648.01104,24.2739417 646.434023,25.8506355 646.434023,27.7779549 C646.434023,29.7052743 648.01104,31.2827157 649.938753,31.2827157 C651.867215,31.2827157 653.444231,29.7052743 653.444231,27.7779549 C653.444231,25.8506355 651.867215,24.2739417 649.938753,24.2739417 Z M649.938753,29.5303353 C648.945734,29.5303353 648.186762,28.7707711 648.186762,27.7779549 C648.186762,26.7851387 648.945734,26.0255745 649.938753,26.0255745 C650.93252,26.0255745 651.691492,26.7851387 651.691492,27.7779549 C651.691492,28.7707711 650.93252,29.5303353 649.938753,29.5303353 Z M658,29.995058 C658,29.4455026 658.454635,29 658.987312,29 L674.009941,29 C674.555218,29 674.997253,29.4416712 674.997253,29.995058 C674.997253,30.5446133 674.542618,30.9901159 674.009941,30.9901159 L658.987312,30.9901159 C658.442035,30.9901159 658,30.5484447 658,29.995058 Z M656,25.995058 C656,25.4455026 656.438557,25 656.998615,25 L675.998638,25 C676.550158,25 676.997253,25.4416712 676.997253,25.995058 C676.997253,26.5446133 676.558696,26.9901159 675.998638,26.9901159 L656.998615,26.9901159 C656.447095,26.9901159 656,26.5484447 656,25.995058 Z" id="Page-1" fill="#7FA022"></path>
            <path d="M688.099499,77.5252192 C689.559866,77.1162806 690,75.9001745 690,74.2651676 C690,72.3378482 688.782812,71.0300183 686.855099,71.0300183 L683.955909,71.0300183 L682.99054,68.2563936 C681.237801,63 675.979584,63 675.979584,63 L656.949709,63 C656.949709,63 651.691492,63 649.938753,68.2563936 L648.939308,71.0300183 L646.149354,71.0300183 C644.22164,71.0300183 642.929293,72.3378482 642.929293,74.2651676 C642.929293,75.8418615 643.485935,77.1973 644.946301,77.6645516 C643.42761,78.9496804 642,80.8650031 642,83.0255745 L642,86.9869995 C642,87.9798157 642.829226,89.3482912 643.938896,90.0495424 L643.938896,96.9478951 C643.938896,97.9407113 644.977286,99 645.970306,99 L651.923445,99 C652.916464,99 653.940819,97.9407113 653.940819,96.9478951 L653.940819,93.0035387 C659.778865,93.0035387 663.134891,93.0035387 666.464647,93.0035387 C669.794402,93.0035387 672.700648,93.0035387 678.901428,93.0035387 L678.901428,96.7955029 C678.901428,97.7883191 680.108859,99 681.101878,99 L686.855099,99 C687.848118,99 689.016968,97.9743836 689.016968,96.9815674 L689.121551,90.1093559 C690.23122,89.4671653 691.010498,87.0616883 691.010498,86.0105591 L691.010498,83.0255745 C691.010498,80.8650031 689.618191,78.8103481 688.099499,77.5252192 Z M686.49527,72.5127872 C687.488289,72.5127872 688.248009,73.2723514 688.248009,74.2651676 C688.248009,75.2579838 687.488289,76.0175481 686.49527,76.0175481 L685.911273,76.0175481 L684.742531,72.5127872 L686.49527,72.5127872 Z M651.574842,68.7819582 C652.100514,67.1462038 653.151859,65.9201356 654.729623,65.2188844 C655.31362,64.9856324 656.390027,64.9683838 657.032349,64.9683838 L676.020996,64.9683838 C676.664066,64.9683838 677.499024,64.9273194 678.083021,65.2188844 C679.660037,65.9201356 680.712129,67.1462038 681.237801,68.7819582 L684.041884,76.0175481 L648.887409,76.0175481 L651.574842,68.7819582 Z M644.681284,74.2651676 C644.681284,73.2723514 645.441004,72.5127872 646.434023,72.5127872 L648.186762,72.5127872 L647.01802,76.0175481 L646.434023,76.0175481 C645.441004,76.0175481 644.681284,75.2579838 644.681284,74.2651676 Z M651.986911,96.999878 L645.95151,96.999878 L645.95151,90.9962172 C647.411876,91.5225294 650.000873,92.7667326 651.986911,93.0007322 L651.986911,96.999878 Z M686.953838,97.0036608 L680.958347,97.0036608 L680.958347,93.0140329 C682.944385,92.7217203 685.493471,91.5255646 686.953838,91 L686.953838,97.0036608 Z M689.034668,86.0421143 C688.742296,86.9183045 685.560576,89.7867289 684.800856,90.0207285 C682.172495,90.7212321 679.291713,91.0389262 676.495933,91.0389262 C671.395927,91.0389262 660.897703,91.0389262 656.581262,91.0389262 C653.785923,91.0389262 650.815123,90.7795451 648.186762,90.0207285 C647.427042,89.7867289 644.212197,87.9461365 643.978149,87.0699463 L643.978149,83.0255745 C643.978149,80.1054389 647.009733,77.9924344 649.931213,77.9924344 L682.926412,77.9924344 C685.847145,77.9924344 689.034668,80.1054389 689.034668,83.0255745 L689.034668,86.0421143 Z M682.99054,80.2739417 C681.062079,80.2739417 679.485062,81.8506355 679.485062,83.7779549 C679.485062,85.7052743 681.062079,87.2827157 682.99054,87.2827157 C684.918254,87.2827157 686.49527,85.7052743 686.49527,83.7779549 C686.49527,81.8506355 684.918254,80.2739417 682.99054,80.2739417 Z M682.99054,85.5303353 C681.996773,85.5303353 681.237801,84.7707711 681.237801,83.7779549 C681.237801,82.7851387 681.996773,82.0255745 682.99054,82.0255745 C683.983559,82.0255745 684.742531,82.7851387 684.742531,83.7779549 C684.742531,84.7707711 683.983559,85.5303353 682.99054,85.5303353 Z M649.938753,80.2739417 C648.01104,80.2739417 646.434023,81.8506355 646.434023,83.7779549 C646.434023,85.7052743 648.01104,87.2827157 649.938753,87.2827157 C651.867215,87.2827157 653.444231,85.7052743 653.444231,83.7779549 C653.444231,81.8506355 651.867215,80.2739417 649.938753,80.2739417 Z M649.938753,85.5303353 C648.945734,85.5303353 648.186762,84.7707711 648.186762,83.7779549 C648.186762,82.7851387 648.945734,82.0255745 649.938753,82.0255745 C650.93252,82.0255745 651.691492,82.7851387 651.691492,83.7779549 C651.691492,84.7707711 650.93252,85.5303353 649.938753,85.5303353 Z M658,85.995058 C658,85.4455026 658.454635,85 658.987312,85 L674.009941,85 C674.555218,85 674.997253,85.4416712 674.997253,85.995058 C674.997253,86.5446133 674.542618,86.9901159 674.009941,86.9901159 L658.987312,86.9901159 C658.442035,86.9901159 658,86.5484447 658,85.995058 Z M656,81.995058 C656,81.4455026 656.438557,81 656.998615,81 L675.998638,81 C676.550158,81 676.997253,81.4416712 676.997253,81.995058 C676.997253,82.5446133 676.558696,82.9901159 675.998638,82.9901159 L656.998615,82.9901159 C656.447095,82.9901159 656,82.5484447 656,81.995058 Z" id="Page-1-Copy" fill="#FFFFFF"></path>
            <path d="M726,39 C724.343146,39 723,37.6568542 723,36 L723,7 C723,5.34314575 724.343146,4 726,4 L762,4 C763.656854,4 765,5.34314575 765,7 L765,36 C765,37.6568542 763.656854,39 762,39 L756.083181,39 L756.083181,45.6689674 C756.083181,46.1994004 755.872467,46.7081083 755.497395,47.083181 C754.716346,47.8642296 753.450016,47.8642296 752.668967,47.083181 L744.585786,39 L726,39 Z M756.083181,37 L762,37 C762.552285,37 763,36.5522847 763,36 L763,7 C763,6.44771525 762.552285,6 762,6 L726,6 C725.447715,6 725,6.44771525 725,7 L725,36 C725,36.5522847 725.447715,37 726,37 L745.414214,37 L754.083181,45.6689674 L754.083181,39 C754.083181,37.8954305 754.978612,37 756.083181,37 Z M743.805504,11.1498188 L743.805504,11.1498188 C745.282688,11.1498188 746.724099,11.6575394 747.843175,12.5635946 C748.96218,13.4696848 749.774245,14.8322571 749.774245,16.410445 C749.774245,17.8892772 749.394007,18.9944295 748.786721,19.7750363 C748.179469,20.5556571 747.450943,20.9766826 746.877604,21.3861346 C746.304266,21.7955867 745.863286,22.1587102 745.506124,22.8218297 C745.148998,23.4850543 744.858786,24.5059665 744.858786,26.2302946 C744.913357,26.8115236 744.394834,27.3808987 743.81094,27.3808987 C743.227081,27.3808987 742.708558,26.8115236 742.763128,26.2302946 C742.763128,24.2721843 743.088235,22.8710691 743.651859,21.8245201 C744.215552,20.7779712 744.994405,20.1327589 745.648757,19.6654399 C746.303144,19.198156 746.805499,18.8848331 747.118997,18.481799 C747.43253,18.0788 747.66761,17.5619259 747.66761,16.410445 C747.66761,15.533674 747.248373,14.7810537 746.52651,14.1965981 C745.804682,13.6121426 744.780964,13.2540693 743.805504,13.2540693 C741.825404,13.2540693 740.24122,14.6808212 739.921374,15.9610823 C739.790875,16.4998756 739.178503,16.869347 738.640937,16.7336579 C738.103301,16.5979688 737.739722,15.9821248 737.880636,15.4459969 C738.476244,13.0617408 740.869233,11.1498188 743.805504,11.1498188 Z M743.816376,28.6852535 C744.591968,28.6852535 745.220788,29.3133372 745.220788,30.0880871 C745.220788,30.8628371 744.591968,31.4909208 743.816376,31.4909208 C743.040749,31.4909208 742.411999,30.8628371 742.411999,30.0880871 C742.411999,29.3133372 743.040749,28.6852535 743.816376,28.6852535 Z" id="Combined-Shape" fill="#7FA022"></path>
            <path d="M800.989502,13 C799.884933,13 798.989502,13.8954305 798.989502,15 L798.989502,35 C798.989502,36.1045695 799.884933,37 800.989502,37 L836.989502,37 C838.094071,37 838.989502,36.1045695 838.989502,35 L838.989502,15 C838.989502,13.8954305 838.094071,13 836.989502,13 L800.989502,13 Z M809.135572,24.9450597 L803.010176,31.0704555 L804.424389,32.4846691 L810.549785,26.3592732 L815.453968,31.263456 C817.40659,33.2160774 820.572414,33.2160774 822.525036,31.263456 L827.383167,26.405325 L833.462511,32.4846691 L834.876724,31.0704555 L828.79738,24.9911115 L835.252958,18.5355339 L833.838744,17.1213203 L821.110822,29.8492424 C819.939249,31.0208153 818.039755,31.0208153 816.868182,29.8492424 L804.14026,17.1213203 L802.726046,18.5355339 L809.135572,24.9450597 Z M800.989502,11 L836.989502,11 C839.198641,11 840.989502,12.790861 840.989502,15 L840.989502,35 C840.989502,37.209139 839.198641,39 836.989502,39 L800.989502,39 C798.780363,39 796.989502,37.209139 796.989502,35 L796.989502,15 C796.989502,12.790861 798.780363,11 800.989502,11 Z" id="email" fill="#7FA022"></path>
            <path d="M801,72 C799.895431,72 799,72.8954305 799,74 L799,94 C799,95.1045695 799.895431,96 801,96 L837,96 C838.104569,96 839,95.1045695 839,94 L839,74 C839,72.8954305 838.104569,72 837,72 L801,72 Z M809.14607,83.9450597 L803.020674,90.0704555 L804.434887,91.4846691 L810.560283,85.3592732 L815.464466,90.263456 C817.417088,92.2160774 820.582912,92.2160774 822.535534,90.263456 L827.393665,85.405325 L833.473009,91.4846691 L834.887222,90.0704555 L828.807878,83.9911115 L835.263456,77.5355339 L833.849242,76.1213203 L821.12132,88.8492424 C819.949747,90.0208153 818.050253,90.0208153 816.87868,88.8492424 L804.150758,76.1213203 L802.736544,77.5355339 L809.14607,83.9450597 Z M801,70 L837,70 C839.209139,70 841,71.790861 841,74 L841,94 C841,96.209139 839.209139,98 837,98 L801,98 C798.790861,98 797,96.209139 797,94 L797,74 C797,71.790861 798.790861,70 801,70 Z" id="email-copy" fill="#FFFFFF"></path>
            <path d="M726,98 C724.343146,98 723,96.6568542 723,95 L723,66 C723,64.3431458 724.343146,63 726,63 L762,63 C763.656854,63 765,64.3431458 765,66 L765,95 C765,96.6568542 763.656854,98 762,98 L756.083181,98 L756.083181,104.668967 C756.083181,105.1994 755.872467,105.708108 755.497395,106.083181 C754.716346,106.86423 753.450016,106.86423 752.668967,106.083181 L744.585786,98 L726,98 Z M756.083181,96 L762,96 C762.552285,96 763,95.5522847 763,95 L763,66 C763,65.4477153 762.552285,65 762,65 L726,65 C725.447715,65 725,65.4477153 725,66 L725,95 C725,95.5522847 725.447715,96 726,96 L745.414214,96 L754.083181,104.668967 L754.083181,98 C754.083181,96.8954305 754.978612,96 756.083181,96 Z M743.805504,70.1498188 L743.805504,70.1498188 C745.282688,70.1498188 746.724099,70.6575394 747.843175,71.5635946 C748.96218,72.4696848 749.774245,73.8322571 749.774245,75.410445 C749.774245,76.8892772 749.394007,77.9944295 748.786721,78.7750363 C748.179469,79.5556571 747.450943,79.9766826 746.877604,80.3861346 C746.304266,80.7955867 745.863286,81.1587102 745.506124,81.8218297 C745.148998,82.4850543 744.858786,83.5059665 744.858786,85.2302946 C744.913357,85.8115236 744.394834,86.3808987 743.81094,86.3808987 C743.227081,86.3808987 742.708558,85.8115236 742.763128,85.2302946 C742.763128,83.2721843 743.088235,81.8710691 743.651859,80.8245201 C744.215552,79.7779712 744.994405,79.1327589 745.648757,78.6654399 C746.303144,78.198156 746.805499,77.8848331 747.118997,77.481799 C747.43253,77.0788 747.66761,76.5619259 747.66761,75.410445 C747.66761,74.533674 747.248373,73.7810537 746.52651,73.1965981 C745.804682,72.6121426 744.780964,72.2540693 743.805504,72.2540693 C741.825404,72.2540693 740.24122,73.6808212 739.921374,74.9610823 C739.790875,75.4998756 739.178503,75.869347 738.640937,75.7336579 C738.103301,75.5979688 737.739722,74.9821248 737.880636,74.4459969 C738.476244,72.0617408 740.869233,70.1498188 743.805504,70.1498188 Z M743.816376,87.6852535 C744.591968,87.6852535 745.220788,88.3133372 745.220788,89.0880871 C745.220788,89.8628371 744.591968,90.4909208 743.816376,90.4909208 C743.040749,90.4909208 742.411999,89.8628371 742.411999,89.0880871 C742.411999,88.3133372 743.040749,87.6852535 743.816376,87.6852535 Z" id="Combined-Shape-Copy" fill="#FFFFFF"></path>
            <path d="M880.706602,11.5494732 C877.84412,11.5167999 874.891693,14.7003516 875.003037,17.7466772 C875.091551,20.1683969 879.625334,28.3708544 884.815719,33.6204214 C891.196024,40.0734752 897.830335,44.2517801 901.892689,44.5018899 C905.440052,44.720293 908.1006,42.1455166 908.087756,38.9514051 C908.077151,36.3141226 903.900189,32.1079545 901.989026,32.1079545 C901.406362,32.1079545 900.975601,32.3283649 900.036476,33.0390063 C899.95607,33.0998854 899.95607,33.0998854 899.873986,33.1618939 C898.683764,34.0594675 897.932292,34.4239078 896.820981,34.3712762 C895.239704,34.2963871 892.222969,32.6954861 890.061173,30.5496198 C887.73951,28.2450649 885.551707,24.5319667 885.512288,22.9167992 C885.483521,21.7381215 885.82728,21.0324581 886.654175,20.0403167 C886.712289,19.9707185 886.712289,19.9707185 886.768427,19.9035158 C887.419912,19.1223659 887.603668,18.7159397 887.556235,17.8370974 C887.426218,15.4281619 883.446572,11.5807482 880.706602,11.5494732 Z M880.729429,9.54960349 C884.527043,9.59295079 889.366718,14.2718165 889.553328,17.7293089 C889.632857,19.2028131 889.248972,20.0518775 888.304361,21.1844953 C888.24625,21.25406 888.24625,21.25406 888.190534,21.3207868 C887.644802,21.9755768 887.497302,22.2783632 887.511692,22.8680019 C887.535784,23.8551036 889.479875,27.1545807 891.470147,29.1301861 C893.308896,30.9553863 895.889657,32.3249271 896.915594,32.3735154 C897.420038,32.3974058 897.829135,32.1990063 898.669777,31.5650593 C898.748776,31.5053813 898.748776,31.5053813 898.829642,31.4441542 C900.099578,30.4831868 900.832916,30.1079545 901.989026,30.1079545 C905.006562,30.1079545 910.072726,35.2095418 910.08774,38.9433629 C910.105187,43.2823742 906.482512,46.7882619 901.769786,46.4981101 C897.093971,46.2102308 890.08915,41.7985783 883.393512,35.0265956 C877.883265,29.4535205 873.114231,20.8254492 873.004371,17.819729 C872.852119,13.6541834 876.701349,9.50362558 880.729429,9.54960349 Z M899.000462,24.5516836 L897.126262,25.8415294 L898.142365,18.6206301 C896.348659,16.9340421 895.331237,14.7872583 895.331237,12.5 C895.331237,7.18873856 900.751958,3 907.331237,3 C913.910517,3 919.331237,7.18873856 919.331237,12.5 C919.331237,17.8112614 913.910517,22 907.331237,22 C905.967185,22 904.633488,21.8204068 903.372702,21.4732203 C902.300897,22.2572073 900.844128,23.2828517 899.000462,24.5516836 Z M899.742278,21.6038639 C900.913365,20.7850464 901.860648,20.1071057 902.583276,19.5707141 L902.993113,19.2665007 L903.47991,19.419933 C904.688942,19.8010049 905.990908,20 907.331237,20 C912.902222,20 917.331237,16.5775793 917.331237,12.5 C917.331237,8.42242069 912.902222,5 907.331237,5 C901.760252,5 897.331237,8.42242069 897.331237,12.5 C897.331237,14.3405356 898.229003,16.0933441 899.852971,17.4672492 L900.27422,17.8236339 L899.742278,21.6038639 Z M902.831237,14 C902.00281,14 901.331237,13.3284271 901.331237,12.5 C901.331237,11.6715729 902.00281,11 902.831237,11 C903.659664,11 904.331237,11.6715729 904.331237,12.5 C904.331237,13.3284271 903.659664,14 902.831237,14 Z M907.831237,14 C907.00281,14 906.331237,13.3284271 906.331237,12.5 C906.331237,11.6715729 907.00281,11 907.831237,11 C908.659664,11 909.331237,11.6715729 909.331237,12.5 C909.331237,13.3284271 908.659664,14 907.831237,14 Z M912.831237,14 C912.00281,14 911.331237,13.3284271 911.331237,12.5 C911.331237,11.6715729 912.00281,11 912.831237,11 C913.659664,11 914.331237,11.6715729 914.331237,12.5 C914.331237,13.3284271 913.659664,14 912.831237,14 Z" id="call" fill="#7FA022"></path>
            <path d="M880.706602,70.5494732 C877.84412,70.5167999 874.891693,73.7003516 875.003037,76.7466772 C875.091551,79.1683969 879.625334,87.3708544 884.815719,92.6204214 C891.196024,99.0734752 897.830335,103.25178 901.892689,103.50189 C905.440052,103.720293 908.1006,101.145517 908.087756,97.9514051 C908.077151,95.3141226 903.900189,91.1079545 901.989026,91.1079545 C901.406362,91.1079545 900.975601,91.3283649 900.036476,92.0390063 C899.95607,92.0998854 899.95607,92.0998854 899.873986,92.1618939 C898.683764,93.0594675 897.932292,93.4239078 896.820981,93.3712762 C895.239704,93.2963871 892.222969,91.6954861 890.061173,89.5496198 C887.73951,87.2450649 885.551707,83.5319667 885.512288,81.9167992 C885.483521,80.7381215 885.82728,80.0324581 886.654175,79.0403167 C886.712289,78.9707185 886.712289,78.9707185 886.768427,78.9035158 C887.419912,78.1223659 887.603668,77.7159397 887.556235,76.8370974 C887.426218,74.4281619 883.446572,70.5807482 880.706602,70.5494732 Z M880.729429,68.5496035 C884.527043,68.5929508 889.366718,73.2718165 889.553328,76.7293089 C889.632857,78.2028131 889.248972,79.0518775 888.304361,80.1844953 C888.24625,80.25406 888.24625,80.25406 888.190534,80.3207868 C887.644802,80.9755768 887.497302,81.2783632 887.511692,81.8680019 C887.535784,82.8551036 889.479875,86.1545807 891.470147,88.1301861 C893.308896,89.9553863 895.889657,91.3249271 896.915594,91.3735154 C897.420038,91.3974058 897.829135,91.1990063 898.669777,90.5650593 C898.748776,90.5053813 898.748776,90.5053813 898.829642,90.4441542 C900.099578,89.4831868 900.832916,89.1079545 901.989026,89.1079545 C905.006562,89.1079545 910.072726,94.2095418 910.08774,97.9433629 C910.105187,102.282374 906.482512,105.788262 901.769786,105.49811 C897.093971,105.210231 890.08915,100.798578 883.393512,94.0265956 C877.883265,88.4535205 873.114231,79.8254492 873.004371,76.819729 C872.852119,72.6541834 876.701349,68.5036256 880.729429,68.5496035 Z M899.000462,83.5516836 L897.126262,84.8415294 L898.142365,77.6206301 C896.348659,75.9340421 895.331237,73.7872583 895.331237,71.5 C895.331237,66.1887386 900.751958,62 907.331237,62 C913.910517,62 919.331237,66.1887386 919.331237,71.5 C919.331237,76.8112614 913.910517,81 907.331237,81 C905.967185,81 904.633488,80.8204068 903.372702,80.4732203 C902.300897,81.2572073 900.844128,82.2828517 899.000462,83.5516836 Z M899.742278,80.6038639 C900.913365,79.7850464 901.860648,79.1071057 902.583276,78.5707141 L902.993113,78.2665007 L903.47991,78.419933 C904.688942,78.8010049 905.990908,79 907.331237,79 C912.902222,79 917.331237,75.5775793 917.331237,71.5 C917.331237,67.4224207 912.902222,64 907.331237,64 C901.760252,64 897.331237,67.4224207 897.331237,71.5 C897.331237,73.3405356 898.229003,75.0933441 899.852971,76.4672492 L900.27422,76.8236339 L899.742278,80.6038639 Z M902.831237,73 C902.00281,73 901.331237,72.3284271 901.331237,71.5 C901.331237,70.6715729 902.00281,70 902.831237,70 C903.659664,70 904.331237,70.6715729 904.331237,71.5 C904.331237,72.3284271 903.659664,73 902.831237,73 Z M907.831237,73 C907.00281,73 906.331237,72.3284271 906.331237,71.5 C906.331237,70.6715729 907.00281,70 907.831237,70 C908.659664,70 909.331237,70.6715729 909.331237,71.5 C909.331237,72.3284271 908.659664,73 907.831237,73 Z M912.831237,73 C912.00281,73 911.331237,72.3284271 911.331237,71.5 C911.331237,70.6715729 912.00281,70 912.831237,70 C913.659664,70 914.331237,70.6715729 914.331237,71.5 C914.331237,72.3284271 913.659664,73 912.831237,73 Z" id="call-copy" fill="#FFFFFF"></path>
            <path d="M987.966744,10.3865907 C986.783302,10.4678972 985.857185,10.5736012 985.188393,10.7037029 C985.018076,10.7376248 984.851326,10.6710933 984.748483,10.5454671 C983.9987,9.75153048 983.086337,9.10748648 982.066523,8.66629137 C981.076926,8.23819407 979.981568,8 978.830639,8 C976.582634,8 974.546273,8.91232464 973.072007,10.3865907 C971.597749,11.8608483 970.685416,13.8972182 970.685416,16.1452233 C970.685416,16.4702418 970.703925,16.7855012 970.738958,17.0914058 C970.774966,17.4060934 970.826993,17.7101457 970.89302,18.0042348 C970.949557,18.2496988 970.441837,18.5628047 970.390079,18.5560069 C966.818608,18.3707818 963.449626,17.438663 960.434361,15.9109988 C958.69818,15.0313689 956.488254,13.3520842 953.804583,10.8731446 L953.804552,10.8731779 C953.428386,10.5257092 952.841765,10.5489727 952.494296,10.9251382 C952.39261,11.0352225 952.319122,11.1683138 952.280126,11.3130132 C952.280126,11.3130132 952.280126,11.3130132 952.280126,11.3130132 C952.097224,11.9917895 952,12.7072804 952,13.4453579 C952,14.833804 952.347229,16.1415161 952.958329,17.2835289 C953.592684,18.4689132 954.511808,19.4789393 955.622552,20.2183589 C955.833656,20.3577147 955.957215,20.639345 955.817691,20.8489005 C955.719525,20.9963673 955.483499,21.0695719 955.318803,21.0505923 C954.60708,21.0288526 953.918817,20.9204571 953.261072,20.7387657 C953.261072,20.7387657 953.261072,20.7387657 953.261072,20.7387657 L953.261072,20.7387657 C952.861542,20.6283873 952.44818,20.8627906 952.337802,21.2623201 C952.300063,21.3989224 952.301772,21.5434185 952.342731,21.67909 C952.77502,23.1111263 953.252418,24.147056 953.774881,24.7868922 C954.945323,26.2202655 956.591349,27.2485925 958.467798,27.6288674 C958.716055,27.6772598 958.87557,27.9178773 958.825561,28.1646192 C958.787635,28.3518298 958.639966,28.4887632 958.463155,28.5221466 C958.096911,28.6178889 957.714381,28.6919582 957.32051,28.7426732 C956.916542,28.7947004 956.512978,28.8215554 956.115405,28.8215554 C956.115405,28.8215554 956.115405,28.8215554 956.115405,28.8215554 L956.115405,28.8215554 C955.838403,28.8215554 955.613848,29.0461105 955.613848,29.3231132 C955.613848,29.4199709 955.641893,29.5147567 955.694595,29.5960209 C956.482477,30.8108963 957.193757,31.6543216 957.828436,32.1262967 C959.147962,33.1076107 960.773455,33.7006406 962.535449,33.7375927 C962.787811,33.7411604 962.990569,33.9142734 962.985319,34.1659961 C962.982054,34.3230202 962.896712,34.4950832 962.774149,34.5745043 C961.242475,35.766821 959.512288,36.7130377 957.64331,37.3552345 C957.052493,37.5582508 956.276366,37.7385718 955.314931,37.8961976 L955.314931,37.8961976 C954.769922,37.9855509 954.40054,38.4998029 954.489894,39.0448115 C954.547883,39.3985156 954.790739,39.6941335 955.126459,39.8196757 C955.540179,39.9743853 955.910682,40.0996452 956.23797,40.1954554 C958.374118,40.820825 960.637133,41.1564769 962.985319,41.1564769 C970.125192,41.1564769 975.775062,38.4393168 979.794412,34.4206332 C984.522025,29.6937296 987.000992,23.1691536 987.000992,17.144573 C987.000992,17.1382239 986.992927,16.7702521 986.976796,16.0406577 C986.971142,15.8704754 987.297693,15.5049948 987.434189,15.4235214 C987.973957,15.033396 988.581874,14.3053451 989.257938,13.2393688 L989.999461,11.8601219 L989.999461,11.8601219 C990.260985,11.3736821 990.078654,10.7673377 989.592215,10.5058137 C989.446648,10.4275529 989.283954,10.3865907 989.118683,10.3865907 L987.966744,10.3865907 Z" id="Shape" stroke="#7FA022" stroke-width="2"></path>
            <path d="M987.966744,69.3865907 C986.783302,69.4678972 985.857185,69.5736012 985.188393,69.7037029 C985.018076,69.7376248 984.851326,69.6710933 984.748483,69.5454671 C983.9987,68.7515305 983.086337,68.1074865 982.066523,67.6662914 C981.076926,67.2381941 979.981568,67 978.830639,67 C976.582634,67 974.546273,67.9123246 973.072007,69.3865907 C971.597749,70.8608483 970.685416,72.8972182 970.685416,75.1452233 C970.685416,75.4702418 970.703925,75.7855012 970.738958,76.0914058 C970.774966,76.4060934 970.826993,76.7101457 970.89302,77.0042348 C970.949557,77.2496988 970.441837,77.5628047 970.390079,77.5560069 C966.818608,77.3707818 963.449626,76.438663 960.434361,74.9109988 C958.69818,74.0313689 956.488254,72.3520842 953.804583,69.8731446 L953.804552,69.8731779 C953.428386,69.5257092 952.841765,69.5489727 952.494296,69.9251382 C952.39261,70.0352225 952.319122,70.1683138 952.280126,70.3130132 C952.280126,70.3130132 952.280126,70.3130132 952.280126,70.3130132 C952.097224,70.9917895 952,71.7072804 952,72.4453579 C952,73.833804 952.347229,75.1415161 952.958329,76.2835289 C953.592684,77.4689132 954.511808,78.4789393 955.622552,79.2183589 C955.833656,79.3577147 955.957215,79.639345 955.817691,79.8489005 C955.719525,79.9963673 955.483499,80.0695719 955.318803,80.0505923 C954.60708,80.0288526 953.918817,79.9204571 953.261072,79.7387657 C953.261072,79.7387657 953.261072,79.7387657 953.261072,79.7387657 L953.261072,79.7387657 C952.861542,79.6283873 952.44818,79.8627906 952.337802,80.2623201 C952.300063,80.3989224 952.301772,80.5434185 952.342731,80.67909 C952.77502,82.1111263 953.252418,83.147056 953.774881,83.7868922 C954.945323,85.2202655 956.591349,86.2485925 958.467798,86.6288674 C958.716055,86.6772598 958.87557,86.9178773 958.825561,87.1646192 C958.787635,87.3518298 958.639966,87.4887632 958.463155,87.5221466 C958.096911,87.6178889 957.714381,87.6919582 957.32051,87.7426732 C956.916542,87.7947004 956.512978,87.8215554 956.115405,87.8215554 C956.115405,87.8215554 956.115405,87.8215554 956.115405,87.8215554 L956.115405,87.8215554 C955.838403,87.8215554 955.613848,88.0461105 955.613848,88.3231132 C955.613848,88.4199709 955.641893,88.5147567 955.694595,88.5960209 C956.482477,89.8108963 957.193757,90.6543216 957.828436,91.1262967 C959.147962,92.1076107 960.773455,92.7006406 962.535449,92.7375927 C962.787811,92.7411604 962.990569,92.9142734 962.985319,93.1659961 C962.982054,93.3230202 962.896712,93.4950832 962.774149,93.5745043 C961.242475,94.766821 959.512288,95.7130377 957.64331,96.3552345 C957.052493,96.5582508 956.276366,96.7385718 955.314931,96.8961976 L955.314931,96.8961976 C954.769922,96.9855509 954.40054,97.4998029 954.489894,98.0448115 C954.547883,98.3985156 954.790739,98.6941335 955.126459,98.8196757 C955.540179,98.9743853 955.910682,99.0996452 956.23797,99.1954554 C958.374118,99.820825 960.637133,100.156477 962.985319,100.156477 C970.125192,100.156477 975.775062,97.4393168 979.794412,93.4206332 C984.522025,88.6937296 987.000992,82.1691536 987.000992,76.144573 C987.000992,76.1382239 986.992927,75.7702521 986.976796,75.0406577 C986.971142,74.8704754 987.297693,74.5049948 987.434189,74.4235214 C987.973957,74.033396 988.581874,73.3053451 989.257938,72.2393688 L989.999461,70.8601219 L989.999461,70.8601219 C990.260985,70.3736821 990.078654,69.7673377 989.592215,69.5058137 C989.446648,69.4275529 989.283954,69.3865907 989.118683,69.3865907 L987.966744,69.3865907 Z" id="Shape-Copy" stroke="#FFFFFF" stroke-width="2"></path>
        </g>
    </g>
</svg>