<?xml version="1.0" standalone="no"?>
<!DOCTYPE svg PUBLIC "-//W3C//DTD SVG 20010904//EN"
 "http://www.w3.org/TR/2001/REC-SVG-20010904/DTD/svg10.dtd">
<svg version="1.0" xmlns="http://www.w3.org/2000/svg"
 width="16.000000pt" height="16.000000pt" viewBox="0 0 16.000000 16.000000"
 preserveAspectRatio="xMidYMid meet">
<metadata>
Created by potrace 1.11, written by Peter Selinger 2001-2013
</metadata>
<g transform="translate(0.000000,16.000000) scale(0.000705,-0.000705)"
fill="#000000" stroke="none">
<path d="M19155 20022 c-27 -9 -52 -19 -55 -22 -3 -3 -9 -6 -15 -7 -18 -3
-209 -73 -243 -89 -18 -8 -43 -17 -55 -20 -12 -2 -23 -8 -25 -14 -2 -5 -10
-10 -18 -10 -8 0 -22 -4 -32 -9 -9 -4 -33 -15 -52 -24 -173 -80 -402 -202
-408 -218 -2 -5 -9 -9 -17 -9 -7 0 -18 -7 -25 -15 -7 -8 -16 -12 -21 -9 -5 3
-9 2 -9 -3 0 -4 -25 -24 -55 -43 -30 -19 -55 -38 -55 -42 0 -5 -5 -8 -11 -8
-6 0 -16 -6 -23 -12 -7 -7 -31 -26 -52 -43 -118 -92 -344 -316 -458 -455 -92
-112 -108 -132 -121 -152 -49 -74 -81 -118 -87 -118 -5 0 -9 19 -9 43 -1 23
-2 58 -4 77 -1 19 -5 87 -9 150 -4 63 -9 117 -11 119 -5 4 -16 -7 -99 -104
-38 -44 -77 -88 -88 -98 -10 -10 -18 -21 -18 -25 0 -4 -15 -23 -33 -42 -17
-19 -45 -53 -61 -75 -17 -22 -33 -42 -36 -45 -3 -3 -21 -26 -40 -52 -18 -27
-37 -48 -42 -48 -4 0 -7 -3 -6 -7 2 -9 -57 -96 -83 -124 -9 -9 -18 -20 -20
-25 -2 -5 -43 -67 -90 -139 -47 -71 -98 -150 -113 -175 -15 -25 -31 -52 -36
-60 -28 -45 -100 -172 -100 -177 0 -3 -10 -22 -22 -42 -13 -20 -23 -38 -24
-41 0 -3 -39 -82 -86 -177 -47 -95 -91 -185 -96 -200 -6 -15 -22 -54 -35 -85
-14 -32 -22 -60 -19 -63 3 -3 0 -5 -6 -5 -7 0 -12 -8 -12 -17 0 -10 -4 -24 -9
-31 -8 -13 -14 18 -37 173 -4 22 -6 50 -6 63 0 12 -3 22 -7 22 -3 0 -6 10 -7
23 0 12 -3 42 -7 67 -3 25 -9 68 -13 95 -3 28 -8 51 -9 53 -2 2 -25 -27 -51
-65 -27 -37 -52 -69 -56 -71 -5 -2 -8 -8 -8 -13 0 -6 -20 -40 -44 -77 -59 -90
-166 -278 -166 -290 0 -6 -4 -12 -8 -14 -8 -3 -162 -311 -162 -323 0 -3 -13
-32 -28 -63 -16 -31 -29 -60 -30 -65 -1 -4 -9 -23 -17 -43 -8 -20 -15 -43 -15
-50 0 -8 -4 -14 -10 -14 -5 0 -10 -7 -10 -16 0 -8 -5 -25 -12 -37 -7 -12 -13
-29 -15 -37 -1 -9 -10 -34 -19 -55 -10 -22 -19 -48 -21 -58 -2 -10 -10 -31
-18 -47 -8 -16 -15 -38 -15 -50 0 -11 -5 -20 -12 -20 -6 0 -9 -3 -5 -6 3 -3
-1 -25 -10 -47 -8 -23 -16 -46 -17 -52 -1 -5 -5 -16 -9 -22 -5 -7 -5 -17 -2
-23 3 -5 2 -10 -3 -10 -5 0 -9 -6 -10 -12 -1 -17 -5 -31 -31 -117 -13 -41 -25
-82 -27 -92 -2 -11 -7 -29 -10 -41 -3 -13 -7 -30 -9 -38 -2 -8 -4 -16 -5 -17
-3 -4 -4 -6 -19 -78 -7 -33 -18 -76 -24 -95 -6 -19 -11 -39 -12 -45 -4 -44
-29 -166 -35 -170 -4 -2 -14 26 -23 63 -8 37 -30 121 -47 187 -18 66 -32 126
-33 133 0 6 -4 12 -8 12 -5 0 -6 7 -3 15 3 8 2 20 -2 27 -5 7 -9 19 -10 26 -2
8 -5 21 -9 30 -6 16 -16 5 -41 -48 -4 -8 -24 -44 -43 -80 -50 -90 -151 -310
-151 -326 0 -8 -4 -14 -9 -14 -5 0 -13 -15 -16 -32 -4 -18 -11 -37 -15 -43 -8
-11 -104 -263 -109 -287 -1 -4 -10 -28 -21 -53 -11 -25 -19 -46 -19 -48 0 -1
-2 -9 -5 -17 -17 -52 -30 -96 -32 -102 -1 -5 -3 -10 -4 -13 -1 -3 -4 -9 -5
-15 -1 -5 -3 -11 -5 -12 -1 -2 -3 -10 -5 -18 -2 -8 -20 -67 -39 -130 -20 -63
-38 -124 -40 -135 -3 -11 -17 -63 -31 -115 -15 -52 -28 -104 -31 -115 -2 -11
-6 -30 -9 -42 -3 -13 -7 -32 -10 -44 -2 -11 -6 -28 -9 -37 -5 -16 -9 -34 -22
-102 -2 -14 -9 -49 -15 -79 -12 -57 -17 -86 -24 -136 -2 -16 -6 -41 -8 -55
-26 -159 -40 -306 -41 -412 0 -68 -9 -87 -22 -46 -3 12 -13 37 -22 57 -9 20
-16 38 -17 41 -1 3 -7 19 -14 35 -7 17 -24 60 -38 97 -15 37 -28 67 -29 65 -2
-1 -6 -18 -9 -37 -3 -19 -10 -57 -15 -85 -5 -27 -11 -63 -14 -80 -2 -16 -5
-30 -6 -30 -1 0 -4 -13 -6 -30 -4 -41 -12 -90 -14 -90 -1 0 -4 -11 -6 -25 -2
-14 -6 -34 -8 -45 -3 -11 -5 -28 -5 -37 -1 -22 -15 -23 -38 -4 -10 8 -83 61
-163 118 -80 56 -149 106 -155 110 -9 7 -49 37 -107 81 -9 6 -27 19 -39 27
-12 8 -30 22 -39 31 -10 9 -22 18 -27 20 -6 2 -25 15 -42 29 -18 14 -56 43
-84 65 -29 22 -54 42 -57 45 -3 3 -52 41 -110 84 -58 44 -107 82 -110 86 -3 3
-32 25 -65 49 -33 25 -62 47 -65 51 -3 3 -41 33 -85 68 -44 34 -87 68 -95 75
-12 11 -270 213 -305 239 -5 4 -25 20 -44 35 -18 15 -86 66 -150 114 -64 48
-120 92 -126 96 -5 4 -29 21 -52 37 -24 16 -43 33 -43 37 0 5 -6 9 -12 9 -7 0
-29 14 -48 30 -19 16 -41 30 -47 30 -7 0 -13 3 -13 8 0 4 -25 23 -55 42 -30
19 -54 38 -55 43 0 4 -7 7 -15 7 -8 0 -15 4 -15 8 0 5 -10 14 -22 21 -13 6
-35 19 -49 29 -15 9 -45 28 -68 41 -22 14 -41 28 -41 33 0 4 -4 8 -9 8 -12 0
-115 63 -119 73 -2 4 -7 7 -12 7 -5 0 -48 23 -97 51 -48 28 -115 65 -148 81
-33 17 -61 34 -63 39 -2 5 -10 9 -17 9 -16 0 -77 31 -87 45 -4 6 -8 7 -8 3 0
-4 -26 5 -57 21 -89 45 -221 99 -227 93 -4 -3 -6 -1 -6 5 0 6 -20 16 -45 23
-25 7 -45 17 -45 23 0 6 -3 8 -6 4 -3 -3 -18 -1 -33 5 -14 5 -33 12 -41 14
-17 4 -155 53 -155 54 0 1 -10 3 -22 6 -43 8 -48 9 -53 15 -4 4 -210 61 -270
74 -8 2 -49 12 -90 23 -41 11 -95 23 -120 28 -25 4 -47 8 -50 9 -28 8 -59 16
-80 19 -14 3 -34 7 -45 9 -11 3 -63 12 -115 21 -52 9 -108 19 -125 22 -16 3
-43 7 -60 9 -16 2 -48 6 -71 10 -22 3 -56 8 -75 10 -19 2 -34 4 -34 5 0 1 -18
3 -40 5 -22 1 -60 5 -85 8 -59 8 -207 20 -247 20 -18 0 -33 3 -33 6 0 8 -725
5 -845 -3 -49 -3 -112 -8 -140 -12 -27 -3 -75 -7 -105 -10 -55 -4 -70 -6 -185
-20 -33 -4 -77 -8 -97 -8 -21 -1 -38 -4 -38 -7 0 -3 -6 -6 -12 -6 -16 0 -105
-11 -133 -17 -11 -2 -42 -7 -70 -10 -82 -12 -109 -16 -130 -23 -11 -3 -33 -7
-50 -8 -31 -2 -69 -9 -143 -26 -23 -5 -59 -12 -80 -15 -20 -3 -44 -8 -52 -11
-8 -3 -28 -7 -45 -10 -35 -4 -70 -11 -70 -13 0 -3 -51 -12 -72 -13 -13 -1 -23
-4 -23 -7 0 -3 -10 -7 -23 -8 -12 -1 -31 -4 -42 -6 -11 -3 -29 -5 -40 -6 -15
-1 -13 -4 9 -10 16 -5 33 -7 38 -4 4 3 8 2 8 -3 0 -4 10 -9 23 -9 77 -4 355
-68 412 -94 11 -6 29 -12 40 -13 11 -2 29 -8 40 -12 63 -25 195 -75 199 -75 2
0 25 -10 52 -22 27 -12 52 -21 57 -20 4 1 7 -2 7 -8 0 -6 3 -9 8 -8 15 3 266
-117 376 -180 83 -48 93 -53 159 -91 32 -19 54 -37 49 -40 -6 -3 -87 -6 -181
-5 -94 0 -171 -3 -171 -8 0 -7 15 -12 33 -9 4 0 7 -3 7 -8 0 -4 22 -19 50 -32
28 -13 50 -27 50 -31 0 -5 4 -8 9 -8 10 0 109 -59 127 -75 6 -5 27 -19 47 -30
20 -11 37 -23 37 -27 0 -5 7 -8 15 -8 8 0 15 -3 15 -7 0 -5 23 -21 50 -38 28
-16 50 -32 50 -36 0 -4 8 -9 18 -12 9 -4 49 -29 87 -57 168 -120 221 -158 288
-207 40 -29 83 -61 97 -72 14 -10 108 -81 210 -156 102 -76 187 -142 188 -147
2 -4 8 -8 14 -8 6 0 25 -12 43 -27 18 -16 45 -37 60 -48 l28 -20 -199 -5 -199
-5 109 -105 c166 -160 186 -179 186 -174 0 2 8 -4 18 -13 41 -40 209 -179 281
-233 18 -14 47 -37 65 -51 17 -14 69 -54 116 -89 47 -35 87 -68 88 -72 2 -4 8
-8 13 -8 10 0 132 -91 137 -102 2 -5 8 -8 13 -8 8 0 48 -29 124 -88 6 -4 32
-23 60 -42 27 -19 56 -40 65 -47 8 -7 23 -19 34 -26 16 -12 -8 -14 -163 -13
-100 1 -186 -1 -191 -4 -15 -9 173 -191 330 -320 30 -25 57 -48 58 -52 2 -5 8
-8 13 -8 6 0 21 -11 35 -25 14 -14 28 -25 32 -25 4 0 18 -10 32 -23 62 -56
479 -347 499 -347 5 0 11 -4 13 -8 6 -15 279 -178 401 -240 16 -8 26 -17 23
-20 -3 -3 -93 -5 -201 -5 l-195 1 29 -27 c16 -14 39 -33 51 -41 12 -8 56 -41
97 -72 42 -32 79 -58 84 -58 4 0 14 -6 21 -13 24 -23 242 -160 321 -202 20
-11 37 -23 37 -28 0 -4 4 -6 9 -2 5 3 15 0 23 -7 26 -25 374 -202 583 -298
138 -63 477 -196 520 -204 6 -1 15 -4 20 -8 6 -3 25 -9 42 -13 70 -15 34 -20
-128 -19 -94 1 -166 -3 -162 -7 4 -4 31 -16 58 -27 28 -11 75 -31 105 -44 30
-14 78 -33 105 -42 28 -10 57 -20 65 -23 8 -4 18 -5 23 -5 4 1 7 -3 7 -10 0
-6 3 -9 6 -5 4 3 22 0 40 -8 19 -8 34 -11 34 -8 0 3 6 0 14 -6 8 -7 24 -14 36
-16 13 -2 48 -12 79 -21 31 -9 63 -18 71 -20 8 -2 33 -8 55 -14 22 -6 64 -17
92 -23 l53 -12 -40 -63 c-22 -34 -40 -64 -40 -66 0 -3 -39 -63 -149 -231 -25
-38 -49 -74 -53 -80 -5 -5 -51 -71 -104 -145 -53 -74 -104 -141 -112 -147 -9
-7 -12 -13 -6 -13 5 0 4 -4 -2 -8 -9 -6 -49 -55 -138 -167 -17 -21 -45 -55
-62 -75 -17 -19 -42 -48 -55 -64 -173 -204 -568 -603 -716 -721 -14 -11 -42
-36 -63 -55 -21 -19 -47 -42 -58 -50 -11 -8 -39 -32 -63 -52 -24 -20 -57 -48
-74 -62 l-30 -25 45 15 c25 9 53 18 64 20 10 2 44 11 75 20 31 10 59 18 64 20
4 1 8 2 10 4 1 1 9 3 17 5 8 2 49 14 90 28 41 13 90 28 108 32 17 3 32 11 32
17 0 6 3 9 6 5 3 -3 63 15 132 39 70 25 132 46 137 48 6 2 17 6 25 9 8 4 51
20 95 36 188 67 231 84 241 92 6 5 14 6 17 2 4 -3 7 -1 7 6 0 7 4 10 8 7 5 -3
19 1 33 8 13 6 44 20 69 30 25 10 56 23 70 29 14 5 30 11 36 12 6 2 35 14 66
29 30 14 58 26 61 26 3 0 38 15 79 34 40 18 83 36 96 40 12 4 22 12 22 18 0 6
3 9 6 6 6 -6 109 38 217 93 31 16 57 25 57 21 0 -4 4 -2 8 3 7 10 167 90 187
94 6 2 18 10 29 19 10 9 21 16 25 16 6 -2 53 21 136 66 28 15 104 55 170 90
66 35 128 70 138 78 9 8 17 11 17 6 0 -5 4 -4 8 1 8 12 80 54 105 62 9 3 17 9
17 14 0 5 4 9 10 9 5 0 59 29 119 65 60 36 114 65 120 65 5 0 14 6 18 14 4 7
26 23 48 35 40 21 70 39 89 54 37 27 229 147 236 147 4 0 10 4 12 8 4 11 185
133 195 131 5 -1 10 0 13 1 3 1 23 3 45 5 22 2 67 6 100 10 33 4 77 8 97 9 21
0 38 3 38 6 0 3 17 6 38 7 20 0 51 3 68 7 31 6 54 9 154 21 30 3 66 8 80 10
14 2 45 7 70 10 25 3 56 8 70 10 36 5 105 15 137 19 15 2 44 7 63 10 19 3 51
8 70 10 19 2 78 12 130 21 52 9 106 18 120 19 14 1 30 4 35 8 6 3 22 5 38 4
15 -1 27 1 27 4 0 3 10 6 23 7 12 0 38 3 57 7 140 26 288 48 420 62 25 2 66 6
92 9 27 2 53 7 59 11 7 4 9 3 5 -4 -4 -7 2 -8 21 -3 32 9 423 11 423 2 0 -3
19 -6 43 -7 43 -1 88 -7 157 -23 22 -5 40 -6 40 -3 0 3 5 1 12 -6 7 -7 18 -12
26 -12 17 0 158 -56 175 -70 6 -5 43 -33 82 -62 79 -59 90 -68 153 -123 92
-81 290 -287 338 -352 12 -17 14 -16 38 6 14 14 26 29 26 34 0 5 -20 34 -45
63 -25 28 -45 57 -45 63 0 6 -4 11 -8 11 -4 0 -31 30 -59 68 -29 37 -61 77
-73 90 -11 12 -17 22 -13 22 4 0 0 6 -9 12 -23 19 -150 188 -141 188 4 0 1 5
-7 10 -11 7 -11 10 -2 10 7 0 11 4 8 9 -4 5 -8 54 -11 109 -3 54 -8 110 -10
123 -3 13 -8 47 -11 74 -4 28 -8 53 -10 56 -2 4 -6 24 -9 45 -6 37 -20 92 -32
124 -3 8 -8 24 -10 35 -1 11 -7 29 -12 40 -6 11 -20 45 -32 75 -13 30 -25 57
-28 60 -4 3 -17 26 -29 52 -13 25 -32 55 -43 67 -10 11 -19 23 -19 25 0 24
-184 196 -209 196 -6 0 -11 4 -11 9 0 5 -9 12 -19 16 -11 3 -36 17 -55 30 -20
13 -36 23 -36 20 0 -2 -27 9 -59 26 -61 30 -346 128 -391 135 -14 2 -52 10
-85 19 -33 8 -73 17 -90 21 -16 3 -50 10 -75 16 -25 6 -56 12 -70 13 -14 2
-28 3 -32 4 -4 1 -2 12 4 26 6 14 13 23 16 21 2 -3 24 21 47 52 24 31 57 72
74 91 17 19 31 37 31 40 0 3 16 24 35 46 42 48 44 51 75 95 13 19 27 37 31 40
3 3 38 50 77 105 39 55 75 105 79 110 5 6 20 28 33 50 13 22 30 46 37 53 7 7
13 17 13 21 0 4 8 16 18 27 9 10 26 36 37 57 11 20 22 37 26 37 4 0 9 8 13 18
3 9 11 26 18 36 60 91 99 157 182 312 33 60 63 111 68 112 4 2 8 7 8 11 0 5
38 86 84 182 46 96 89 191 97 212 7 20 17 37 21 37 4 0 8 7 8 16 0 9 6 30 14
47 19 41 95 225 97 235 1 4 5 17 10 30 5 13 12 34 15 48 3 13 10 27 15 29 4 3
6 12 2 20 -3 8 0 15 6 15 6 0 11 7 11 15 0 8 13 54 29 102 33 101 82 261 85
277 1 6 5 17 9 24 5 6 6 12 3 12 -3 0 1 19 10 41 8 23 16 51 19 63 2 12 9 39
15 61 6 22 13 51 16 65 3 14 7 30 8 35 2 6 6 28 11 50 4 22 11 45 15 50 4 6 7
17 7 25 1 8 4 29 7 45 4 17 9 41 12 55 3 14 7 33 10 42 3 10 7 30 10 45 3 16
12 66 21 113 15 82 20 107 28 158 2 12 9 54 15 93 7 38 10 76 7 83 -3 7 -2 17
3 22 8 9 13 38 26 154 9 88 8 83 18 99 7 10 6 12 -4 6 -9 -6 -11 -4 -5 5 5 7
9 32 11 54 1 23 5 66 9 96 3 30 8 83 10 118 3 34 7 92 10 130 17 220 29 638
38 1257 2 88 6 165 9 170 4 6 3 17 -2 25 -4 7 -4 24 1 37 6 18 6 22 -3 17 -7
-5 -8 -3 -3 7 5 7 10 56 12 109 1 52 4 122 7 155 3 33 7 98 10 145 4 47 8 94
10 105 2 11 7 45 10 76 4 31 9 67 11 80 5 27 17 117 18 137 0 6 3 12 7 12 4 0
6 10 5 22 -1 12 7 58 17 102 10 44 16 86 13 93 -2 8 -1 12 3 9 5 -3 14 24 21
59 7 36 16 65 20 65 4 0 8 6 8 13 1 21 11 60 27 102 8 22 15 48 16 58 0 9 5
17 11 17 5 0 8 4 4 9 -3 5 -1 12 5 16 5 3 10 16 10 28 0 13 6 31 14 42 7 11
17 31 21 45 9 28 52 127 66 150 4 8 22 42 38 75 51 103 95 180 109 188 6 4 12
12 12 18 0 8 59 103 83 134 4 6 36 48 70 95 34 47 74 99 89 115 23 25 36 48
26 44 -2 0 -25 -8 -53 -17z"/>
<path d="M3267 8544 c-1 -1 -47 -4 -102 -8 -108 -6 -187 -13 -250 -21 -22 -3
-56 -7 -75 -9 -19 -2 -65 -9 -103 -16 -37 -7 -74 -9 -83 -6 -8 3 -12 2 -9 -4
4 -6 -6 -10 -23 -10 -16 0 -32 -3 -36 -7 -3 -4 -21 -8 -39 -10 -46 -4 -60 -8
-74 -16 -7 -5 -13 -6 -13 -3 0 2 -24 -2 -52 -10 -29 -8 -60 -16 -68 -18 -46
-11 -106 -29 -129 -38 -14 -6 -30 -12 -36 -12 -16 -2 -117 -36 -152 -52 -17
-8 -36 -14 -42 -14 -6 0 -19 -4 -29 -9 -9 -5 -78 -35 -152 -67 -74 -32 -137
-60 -140 -63 -3 -4 -39 -23 -80 -44 -102 -52 -134 -70 -142 -82 -4 -5 -8 -6
-8 -2 0 4 -10 -1 -22 -13 -12 -11 -26 -20 -31 -20 -6 0 -25 -11 -43 -25 -18
-14 -35 -25 -38 -25 -3 0 -14 -6 -23 -14 -10 -8 -57 -44 -105 -79 -127 -94
-179 -139 -308 -267 -163 -163 -226 -239 -340 -409 -89 -133 -229 -409 -220
-437 1 -4 -2 -10 -7 -13 -10 -7 -64 -171 -66 -201 -1 -11 -4 -20 -8 -20 -4 0
-6 -8 -4 -17 1 -10 -2 -29 -7 -42 -4 -13 -10 -40 -13 -60 -2 -20 -7 -52 -10
-71 -3 -19 -8 -53 -10 -75 -7 -51 -7 -343 -1 -372 3 -12 8 -53 11 -90 4 -37 9
-72 12 -76 2 -4 7 -22 9 -40 8 -56 10 -66 17 -73 4 -4 7 -16 7 -27 0 -10 12
-58 27 -106 15 -47 27 -88 28 -91 1 -3 9 -22 18 -44 9 -21 17 -41 17 -44 0
-15 114 -242 122 -242 4 0 8 -4 8 -10 0 -13 62 -114 72 -118 4 -2 8 -8 8 -13
0 -25 196 -257 295 -349 94 -88 110 -102 170 -148 33 -26 62 -50 63 -54 2 -4
10 -8 17 -8 7 0 15 -4 17 -9 6 -16 199 -136 323 -200 28 -14 53 -30 57 -36 4
-5 8 -7 8 -3 0 4 26 -6 59 -22 32 -17 61 -30 63 -30 3 0 27 -10 54 -22 27 -12
51 -22 54 -23 3 0 41 -13 85 -29 74 -26 92 -32 105 -34 3 -1 32 -11 64 -22 33
-11 62 -18 64 -15 3 3 10 1 16 -4 7 -6 23 -12 36 -15 14 -2 48 -10 75 -16 28
-6 61 -14 75 -16 14 -3 42 -9 63 -15 20 -5 42 -7 47 -4 6 3 10 2 10 -2 0 -5 8
-9 18 -9 9 -1 53 -6 97 -13 132 -20 253 -32 360 -36 44 -2 80 -4 80 -5 0 -1
83 -1 185 -2 213 0 476 12 567 26 21 3 61 9 88 12 28 3 83 12 124 20 41 7 77
12 79 9 3 -3 11 0 18 6 8 6 21 9 29 5 8 -3 15 -2 15 3 0 4 26 13 58 20 31 7
95 24 142 38 47 15 90 28 95 29 9 2 142 51 188 69 19 8 24 27 5 20 -19 -6 -68
-16 -103 -20 -16 -1 -30 -4 -30 -5 0 -3 -97 -12 -142 -14 -24 0 -43 -3 -43 -6
0 -4 -10 -6 -22 -7 -13 0 -75 -4 -138 -8 -151 -10 -455 -11 -605 -1 -128 9
-180 13 -180 16 0 1 -16 3 -35 5 -78 8 -118 14 -180 25 -36 7 -76 14 -90 16
-14 3 -32 7 -40 10 -8 3 -33 8 -55 11 -22 2 -42 7 -45 11 -3 4 -21 9 -40 10
-19 2 -40 8 -45 12 -6 5 -22 10 -35 12 -14 2 -31 7 -37 11 -7 5 -13 6 -13 3 0
-5 -184 59 -255 88 -22 9 -53 22 -70 29 -85 34 -295 150 -410 225 -71 46 -132
87 -135 91 -3 3 -30 26 -60 51 -105 85 -191 169 -275 264 -27 32 -55 63 -60
69 -6 7 -24 30 -40 52 -17 22 -36 46 -42 53 -7 7 -13 17 -13 22 0 5 -6 15 -13
22 -57 59 -243 427 -261 516 -1 9 -6 24 -9 32 -13 31 -49 166 -51 190 -1 14
-5 30 -8 35 -3 6 -9 33 -12 60 -4 28 -9 64 -12 80 -14 99 -17 146 -18 290 -1
88 2 180 6 205 12 69 37 211 44 245 3 16 21 75 40 130 19 55 35 105 37 110 2
6 10 26 19 45 8 19 26 60 39 90 12 30 26 57 29 60 3 3 14 21 24 40 26 53 40
76 56 95 8 10 14 20 12 22 -5 7 131 195 194 268 82 94 205 214 272 265 18 14
43 34 55 44 82 70 343 215 437 242 87 25 204 53 240 58 66 8 176 10 188 2 6
-3 13 -2 17 4 4 6 11 8 16 4 5 -3 26 -8 47 -10 83 -11 99 -13 127 -19 61 -13
120 -27 135 -32 8 -4 21 -7 29 -9 17 -3 113 -41 171 -67 75 -34 76 -34 110 39
16 36 30 70 30 75 0 5 5 9 10 9 6 0 10 5 10 10 0 6 20 53 45 106 25 52 45 99
45 104 0 6 5 10 10 10 6 0 10 7 10 16 0 9 7 28 15 42 8 15 21 41 29 57 l14 30
-85 0 c-46 0 -85 -1 -86 -1z"/>
<path d="M11065 8474 c-66 -18 -129 -36 -140 -38 -11 -3 -29 -7 -40 -10 -45
-12 -241 -58 -260 -62 -11 -2 -48 -10 -82 -18 -34 -9 -77 -18 -95 -21 -18 -3
-40 -8 -48 -10 -8 -2 -31 -7 -50 -10 -19 -3 -53 -11 -75 -16 -22 -5 -58 -12
-80 -15 -49 -6 -80 -12 -80 -14 0 -1 -13 -3 -30 -6 -69 -9 -103 -15 -155 -24
-30 -5 -80 -12 -110 -16 -97 -11 -105 -12 -105 -14 0 -1 -20 -3 -45 -5 -25 -2
-45 -4 -45 -5 0 -1 -18 -3 -40 -5 -22 -1 -58 -5 -80 -9 -22 -3 -83 -8 -137
-11 -53 -4 -104 -8 -115 -10 -10 -2 -51 -4 -90 -4 -58 -1 -73 -4 -73 -16 0 -8
4 -15 9 -15 5 0 11 -8 15 -17 3 -10 15 -34 27 -53 30 -48 68 -146 76 -195 10
-67 5 -285 -7 -285 -4 0 -7 -10 -8 -22 -2 -32 -7 -60 -32 -163 -22 -89 -26
-106 -34 -145 -4 -16 16 -9 117 43 67 34 124 64 127 67 3 3 46 26 95 52 145
74 160 83 163 91 2 4 12 7 23 7 10 0 19 3 19 8 0 4 10 12 23 18 41 20 182 97
187 103 3 3 30 19 60 35 30 16 66 38 79 48 13 10 27 18 32 18 15 0 411 249
417 263 2 4 8 7 13 7 8 0 215 135 229 150 3 3 32 23 64 45 33 22 64 44 70 50
6 5 29 22 52 38 22 15 50 36 61 47 12 10 24 16 27 13 3 -4 6 -1 6 5 0 5 15 20
33 31 17 11 43 30 57 43 14 13 42 34 62 48 21 14 38 28 38 33 0 4 -1 7 -2 6
-2 0 -57 -16 -123 -35z"/>
<path d="M12968 8118 c8 -39 8 -208 -1 -258 -3 -19 -14 -62 -23 -95 -9 -33
-18 -68 -19 -77 -2 -10 -24 -100 -49 -201 -25 -101 -47 -195 -50 -208 -3 -13
-15 -62 -26 -109 -22 -88 -27 -108 -34 -137 -2 -10 -19 -76 -36 -147 -18 -71
-34 -139 -37 -150 -2 -12 -5 -25 -7 -31 -2 -5 -6 -28 -11 -50 -4 -22 -10 -44
-13 -50 -3 -5 -7 -20 -8 -33 -2 -14 -6 -32 -10 -41 -4 -9 -8 -25 -9 -36 -2
-11 -11 -49 -20 -85 -9 -36 -18 -72 -20 -80 -2 -8 -8 -35 -14 -60 -7 -25 -14
-56 -17 -70 -2 -14 -7 -33 -10 -42 -3 -9 -7 -25 -9 -35 -2 -10 -16 -67 -31
-128 -14 -60 -27 -117 -29 -125 -2 -8 -4 -15 -5 -15 -2 0 -6 -18 -15 -64 -3
-19 -8 -38 -10 -41 -3 -4 -7 -25 -11 -46 -3 -22 -10 -44 -15 -50 -5 -6 -6 -14
-2 -17 3 -4 1 -13 -6 -20 -6 -8 -9 -21 -5 -30 3 -8 0 -18 -5 -22 -6 -3 -9 -11
-6 -16 4 -5 3 -15 -2 -21 -4 -7 -8 -17 -9 -23 -5 -26 -15 -68 -39 -165 -14
-58 -28 -114 -30 -125 -2 -11 -4 -20 -5 -20 -2 0 -5 -16 -13 -55 -3 -14 -10
-43 -15 -65 -25 -96 -42 -162 -46 -185 -2 -14 -5 -25 -6 -25 -1 0 -3 -7 -5
-15 -1 -8 -17 -73 -34 -145 -18 -71 -34 -141 -37 -155 -3 -14 -7 -32 -9 -40
-2 -8 -4 -16 -5 -17 -3 -3 -3 -3 -15 -58 -12 -59 -12 -56 -25 -105 -7 -25 -14
-54 -16 -65 -2 -11 -13 -58 -24 -105 -31 -129 -31 -132 -23 -128 46 22 63 33
63 40 0 4 9 8 19 8 11 0 22 4 25 9 7 11 209 111 224 111 6 0 12 4 14 10 2 5
12 11 23 13 11 2 38 11 60 21 63 27 273 96 293 96 10 0 23 10 29 23 11 22 76
291 76 315 0 6 3 12 7 12 3 0 6 8 7 18 0 15 12 66 43 192 13 53 20 83 24 105
3 11 19 79 36 150 18 72 34 138 36 148 2 9 6 27 10 40 3 12 7 33 10 47 3 14
12 52 21 85 17 68 17 66 28 120 12 55 12 55 14 58 2 1 4 12 7 24 2 12 18 80
35 150 17 70 31 136 31 146 0 9 3 17 9 17 5 0 8 3 7 8 -1 4 1 23 5 42 4 19 9
44 11 55 2 11 9 40 16 65 7 25 14 52 15 60 2 8 11 47 20 85 23 96 22 92 39
165 8 36 19 80 25 99 6 19 8 38 5 42 -3 5 -2 9 3 9 4 0 9 10 10 23 3 25 10 62
14 62 1 0 3 9 5 20 1 11 5 30 8 43 3 12 8 30 10 40 3 9 12 46 21 82 19 76 26
107 29 135 2 11 6 27 9 35 3 8 9 29 13 45 4 17 8 32 9 35 4 14 16 68 19 85 2
11 9 38 15 60 6 22 12 51 15 65 2 14 5 25 6 25 1 0 3 10 6 22 2 12 20 88 40
169 20 81 37 156 39 166 2 11 7 28 10 38 6 19 11 42 21 95 3 17 9 34 13 38 20
21 376 10 466 -14 22 -6 47 -12 55 -13 8 -2 26 -8 40 -13 14 -6 42 -16 63 -24
20 -7 37 -17 37 -23 0 -5 3 -7 6 -3 9 8 70 -38 123 -93 61 -63 95 -133 109
-225 12 -77 3 -279 -13 -305 -2 -4 -6 -18 -9 -33 -4 -15 -8 -38 -11 -53 -3
-14 -16 -58 -29 -99 -13 -41 -21 -77 -18 -80 3 -3 0 -5 -6 -5 -6 0 -14 -16
-18 -35 -3 -19 -10 -38 -15 -41 -5 -3 -9 -12 -9 -20 0 -33 -153 -317 -207
-384 -6 -8 -30 -39 -51 -68 -52 -70 -161 -190 -242 -268 -96 -91 -118 -110
-200 -174 -25 -19 -46 -38 -48 -42 -2 -5 -10 -8 -17 -8 -7 0 -15 -7 -19 -15
-3 -8 -12 -15 -21 -15 -8 0 -15 -3 -15 -7 0 -5 -17 -19 -38 -33 -20 -14 -39
-27 -42 -30 -3 -3 -45 -31 -94 -63 -93 -59 -89 -67 17 -34 26 8 47 13 47 11 0
-2 19 4 43 12 23 9 49 17 57 19 8 2 16 4 18 5 1 2 5 3 10 4 17 4 89 29 117 41
38 16 67 27 80 30 24 6 188 82 280 130 171 89 297 171 469 305 50 39 232 221
278 279 68 86 157 230 192 311 15 36 31 74 36 85 10 22 23 83 19 87 -1 2 3 13
10 25 6 13 13 52 15 87 2 36 6 68 8 73 4 7 3 118 -1 118 -1 0 -4 29 -6 65 -2
36 -7 76 -10 90 -3 14 -8 34 -10 45 -3 11 -14 45 -26 75 -11 30 -23 63 -26 73
-3 9 -9 17 -14 17 -5 0 -8 3 -7 8 7 25 -173 232 -202 232 -6 0 -20 8 -30 18
-48 44 -235 121 -370 152 -30 7 -62 15 -70 17 -14 5 -52 11 -115 18 -16 1 -30
4 -30 5 0 1 -18 4 -40 5 -22 2 -69 6 -105 10 -36 4 -298 9 -582 12 l-518 5 8
-34z"/>
<path d="M7440 7483 c0 -5 -12 -9 -27 -9 -20 1 -27 -3 -24 -14 22 -93 19 -235
-6 -315 -4 -11 -8 -24 -9 -30 -1 -5 -12 -50 -24 -100 -12 -49 -24 -101 -26
-115 -3 -14 -7 -32 -11 -40 -3 -8 -8 -24 -10 -34 -2 -10 -17 -76 -34 -145 -17
-69 -33 -134 -35 -144 -2 -10 -6 -27 -9 -37 -8 -26 -16 -61 -19 -90 -2 -14 -8
-36 -14 -50 -5 -14 -16 -58 -23 -97 -7 -40 -16 -73 -19 -73 -3 0 -6 -8 -7 -17
-1 -10 -4 -31 -8 -48 -4 -16 -9 -37 -10 -45 -1 -8 -5 -22 -8 -30 -5 -13 -17
-65 -32 -135 -2 -11 -8 -34 -14 -52 -5 -17 -7 -34 -3 -37 3 -3 1 -6 -4 -6 -5
0 -10 -8 -10 -17 -1 -22 -8 -54 -24 -113 -12 -46 -16 -63 -26 -114 -2 -16 -7
-33 -10 -38 -3 -5 -8 -20 -10 -35 -3 -15 -13 -63 -24 -108 -58 -255 -38 -406
69 -518 36 -39 118 -87 156 -93 11 -2 34 -6 50 -10 38 -8 197 -12 210 -5 6 3
19 6 30 7 99 6 286 78 407 156 74 48 158 134 158 162 0 3 -26 -11 -57 -30 -59
-35 -119 -56 -163 -57 -54 0 -110 7 -110 15 0 4 -7 8 -15 8 -20 0 -54 38 -72
79 -8 18 -14 61 -14 95 1 62 7 131 10 131 2 0 5 11 15 65 2 14 5 25 6 25 1 0
3 8 5 19 8 43 28 122 33 130 3 5 6 21 8 35 1 14 5 35 8 46 30 115 47 186 52
215 3 19 9 39 12 45 3 5 7 18 8 30 1 11 19 87 39 169 20 82 38 156 40 165 2 9
17 72 33 141 16 69 34 141 38 160 11 48 11 50 14 53 2 2 6 18 14 57 3 14 13
57 21 95 l16 71 227 -1 227 0 21 85 c12 47 20 88 18 91 -2 3 -103 6 -224 5
-121 -1 -220 3 -220 7 0 10 40 177 47 197 3 8 7 22 8 30 1 8 6 29 10 45 3 17
8 37 9 45 2 8 8 26 13 40 6 13 10 36 9 50 -1 22 -5 25 -33 24 -18 0 -33 4 -33
10 0 6 -4 6 -11 -1 -7 -7 -21 -8 -40 -3 -16 5 -29 6 -29 2 0 -4 -16 -7 -35 -7
-19 0 -35 4 -35 8 0 5 -5 5 -12 1 -17 -11 -138 -11 -138 0 0 5 -6 5 -12 0 -16
-11 -39 -11 -55 -1 -8 5 -13 3 -13 -4 0 -8 -4 -8 -15 1 -8 7 -15 8 -15 3 0 -6
-12 -8 -27 -6 -16 2 -32 4 -38 4 -5 0 -35 -2 -65 -3 -30 -1 -61 1 -68 6 -6 4
-12 3 -12 -1z"/>
<path d="M20205 7137 c-42 -7 -105 -20 -199 -42 -10 -2 -35 -10 -55 -17 -20
-7 -38 -13 -41 -13 -3 -1 -16 -6 -30 -12 -14 -6 -56 -23 -95 -38 -38 -16 -77
-34 -86 -42 -8 -7 -19 -13 -23 -13 -12 0 -181 -102 -184 -111 -2 -5 -10 -9
-17 -9 -7 0 -15 -3 -17 -8 -1 -4 -28 -25 -58 -47 -65 -47 -244 -222 -286 -280
-16 -22 -31 -42 -34 -45 -14 -14 -60 -80 -60 -86 0 -4 -6 -15 -14 -23 -20 -22
-99 -182 -127 -256 -22 -57 -25 -67 -32 -97 -1 -7 -5 -17 -8 -23 -4 -5 -5 -18
-4 -27 2 -10 0 -18 -4 -18 -7 0 -31 -128 -37 -195 -5 -51 -5 -269 -1 -290 3
-11 7 -41 11 -66 12 -82 16 -103 33 -159 9 -30 17 -58 19 -62 1 -5 3 -10 4
-13 1 -3 3 -8 4 -12 1 -5 10 -26 20 -48 10 -22 23 -51 29 -65 6 -14 18 -33 26
-42 8 -10 11 -18 7 -18 -4 0 -1 -7 6 -15 29 -32 37 -43 32 -47 -2 -3 5 -13 16
-23 11 -10 20 -22 20 -27 0 -4 8 -16 18 -26 9 -10 35 -38 57 -63 55 -63 185
-175 185 -161 0 4 5 -1 11 -10 5 -10 17 -18 24 -18 8 0 15 -4 15 -9 0 -5 9
-12 19 -16 11 -3 34 -16 53 -28 60 -41 298 -137 376 -152 9 -2 17 -4 17 -5 0
-2 25 -7 105 -21 41 -7 77 -15 80 -18 6 -7 34 -8 245 -11 187 -3 267 4 420 36
123 26 261 75 277 98 4 6 8 8 8 4 0 -7 132 65 154 83 6 6 20 17 31 25 19 15
19 15 -5 9 -14 -3 -32 -8 -40 -10 -8 -2 -15 -4 -15 -5 0 -1 -11 -3 -25 -5 -14
-2 -36 -6 -50 -10 -14 -3 -38 -8 -55 -11 -42 -7 -318 -12 -328 -6 -5 2 -32 6
-60 9 -61 5 -81 8 -122 17 -84 20 -157 40 -225 63 -85 29 -310 142 -310 155 0
5 -4 6 -10 3 -5 -3 -10 -1 -10 4 0 6 -5 11 -10 11 -6 0 -16 4 -23 10 -136 110
-257 220 -257 235 0 3 -10 16 -23 28 -34 33 -103 138 -147 226 -22 44 -40 82
-40 84 0 3 -5 18 -11 34 -6 15 -11 30 -11 33 0 3 -5 16 -10 30 -10 27 -19 72
-22 108 0 12 -4 22 -7 22 -7 0 -8 12 -10 150 -1 124 4 173 27 280 3 14 7 36
10 49 10 48 77 217 112 281 147 271 384 459 627 497 228 36 456 -44 608 -214
30 -34 41 -29 67 30 12 28 36 81 53 117 17 36 30 68 29 73 -1 4 2 7 6 7 4 0 8
10 9 22 1 11 7 24 13 28 6 4 13 13 14 21 1 8 10 30 18 49 14 31 14 36 0 47
-23 19 -173 74 -183 67 -5 -3 -9 0 -9 5 0 6 -12 11 -26 11 -14 0 -33 4 -42 9
-43 22 -321 34 -417 18z"/>
<path d="M12366 7103 c-4 -4 -12 -9 -17 -9 -5 -1 -10 -2 -11 -4 -3 -2 -15 -5
-53 -13 -11 -3 -47 -15 -80 -27 -33 -12 -70 -24 -82 -27 -13 -3 -23 -10 -23
-16 0 -6 -3 -8 -6 -5 -5 6 -136 -57 -212 -101 -139 -81 -307 -226 -392 -340
-43 -58 -70 -81 -52 -43 5 9 20 65 33 124 13 60 27 108 31 108 4 0 5 7 2 15
-3 8 -2 20 2 27 5 7 9 22 11 33 2 21 10 58 13 63 3 3 4 5 19 74 7 32 13 61 14
65 1 5 -168 8 -375 8 -360 1 -376 0 -367 -17 6 -10 7 -23 4 -28 -3 -6 -2 -10
3 -10 15 0 12 -160 -4 -231 -20 -90 -25 -111 -27 -134 -1 -11 -5 -22 -8 -25
-5 -4 -19 -60 -35 -145 -3 -16 -10 -38 -15 -47 -5 -10 -8 -18 -5 -18 3 0 0
-15 -5 -32 -11 -34 -14 -50 -26 -108 -9 -46 -10 -50 -13 -52 -1 -2 -3 -11 -6
-20 -2 -10 -6 -26 -8 -35 -3 -10 -5 -18 -6 -18 -3 0 -10 -49 -11 -67 0 -10 -4
-18 -8 -18 -5 0 -8 -10 -8 -22 0 -13 -7 -48 -16 -78 -9 -30 -18 -66 -21 -80
-2 -14 -11 -54 -21 -89 -9 -35 -18 -77 -20 -92 -2 -16 -6 -32 -9 -37 -3 -5 -7
-19 -10 -33 -9 -44 -14 -64 -26 -109 -12 -43 -15 -56 -26 -110 -3 -14 -7 -32
-9 -40 -2 -8 -4 -15 -5 -15 -1 0 -3 -7 -5 -15 -11 -50 -22 -99 -42 -175 -3
-11 -6 -29 -8 -40 -2 -11 -4 -20 -5 -20 -1 0 -3 -7 -5 -15 -1 -8 -7 -33 -13
-55 -6 -22 -13 -51 -16 -65 -9 -46 -15 -71 -21 -91 -6 -18 3 -19 328 -19 309
0 335 1 342 18 7 15 14 43 31 122 3 14 10 43 16 65 7 22 12 42 13 45 1 3 5 25
9 50 5 25 12 52 17 61 4 9 10 31 12 50 3 19 7 41 11 49 3 8 8 26 10 40 3 14
14 61 26 105 11 44 22 92 25 106 2 15 11 53 20 85 9 33 18 71 20 87 2 15 8 33
12 40 4 6 8 17 8 22 0 15 36 117 51 145 7 14 23 47 35 75 57 124 223 334 321
405 21 15 34 30 31 34 -3 3 -2 6 4 6 6 0 35 16 64 36 131 88 264 138 404 151
33 3 64 9 68 13 7 7 60 172 71 225 3 11 19 66 36 123 30 98 35 133 16 115z"/>
<path d="M3645 7088 c-22 -5 -53 -10 -70 -12 -16 -2 -30 -5 -30 -6 0 -1 -11
-4 -25 -6 -45 -8 -204 -66 -288 -105 -45 -21 -86 -39 -90 -40 -36 -12 -271
-166 -330 -216 -124 -107 -153 -135 -205 -193 -86 -98 -95 -110 -141 -180 -61
-93 -98 -160 -89 -160 4 0 3 -4 -2 -8 -19 -13 -76 -166 -89 -234 -2 -15 -7
-31 -9 -35 -10 -17 -21 -143 -21 -243 1 -135 12 -226 37 -290 3 -8 13 -37 23
-64 16 -43 80 -159 108 -194 37 -46 140 -140 191 -176 94 -64 213 -121 307
-145 4 -1 22 -7 40 -12 73 -22 214 -47 242 -43 9 1 16 -1 16 -4 0 -4 55 -6
123 -5 150 1 255 11 346 32 22 5 42 6 46 3 3 -3 5 -1 5 4 0 5 12 10 28 11 28
3 65 10 70 13 1 2 5 3 10 4 31 7 152 50 174 62 15 8 29 14 30 13 4 -3 150 70
164 82 6 5 14 6 17 2 4 -3 7 -2 7 4 0 6 18 20 41 32 22 12 50 31 62 42 21 20
21 21 2 16 -40 -11 -140 -27 -215 -34 -77 -8 -423 -12 -434 -5 -5 3 -30 7 -55
8 -25 2 -80 10 -121 19 -41 8 -87 18 -101 21 -15 2 -51 14 -80 25 -30 11 -58
22 -64 23 -43 12 -169 76 -173 88 -2 4 -8 8 -14 8 -11 0 -89 59 -118 89 -61
63 -145 193 -133 205 4 3 1 6 -5 6 -7 0 -11 3 -10 8 0 4 -1 14 -4 22 -18 48
-31 119 -32 180 0 38 -5 70 -9 70 -5 0 -5 6 0 12 4 7 8 31 10 53 4 59 42 200
75 280 49 119 62 145 70 145 4 0 7 3 6 8 -10 35 193 313 317 436 107 105 241
196 290 196 8 0 15 3 15 8 0 14 94 6 127 -12 80 -41 96 -178 42 -363 -25 -86
-24 -83 -36 -113 -6 -14 -16 -42 -24 -62 -7 -21 -17 -38 -23 -38 -5 0 -7 -3
-4 -6 15 -14 -121 -240 -237 -393 -33 -45 -227 -232 -265 -257 -25 -16 -50
-33 -56 -39 -6 -6 -29 -19 -52 -30 -23 -11 -44 -26 -47 -33 -2 -7 0 -10 5 -7
5 3 27 8 47 11 78 10 89 11 123 19 19 5 42 9 50 10 8 1 35 8 60 15 25 8 48 14
53 16 4 1 9 3 12 4 3 1 8 3 13 4 117 26 401 183 499 276 18 16 37 30 44 30 7
0 10 2 8 5 -3 2 26 37 64 77 99 104 217 287 231 358 1 3 5 11 10 18 13 21 35
111 43 172 21 168 -12 293 -104 391 -43 46 -131 97 -198 114 -16 5 -37 10 -45
12 -31 8 -216 9 -255 1z"/>
<path d="M9676 7093 c-3 -3 -22 -6 -43 -8 -21 -2 -38 -4 -38 -5 0 -2 -9 -4
-55 -13 -33 -7 -180 -54 -205 -66 -11 -5 -49 -22 -85 -37 -36 -16 -68 -33 -72
-39 -4 -5 -8 -7 -8 -3 0 4 -28 -9 -62 -29 -35 -20 -72 -41 -83 -47 -11 -6 -40
-25 -64 -41 -24 -17 -51 -34 -59 -40 -105 -69 -277 -233 -363 -345 -19 -25
-36 -47 -39 -50 -17 -16 -88 -139 -83 -144 4 -3 2 -6 -4 -6 -5 0 -18 -19 -29
-42 -10 -24 -23 -46 -29 -50 -5 -4 -7 -8 -2 -8 4 0 1 -13 -8 -30 -9 -16 -13
-30 -10 -30 3 0 -1 -12 -8 -27 -8 -16 -20 -53 -27 -83 -7 -30 -15 -59 -17 -63
-5 -9 -10 -55 -18 -162 -2 -33 -6 -72 -8 -87 -2 -16 -1 -28 3 -28 3 0 6 -17 5
-37 -1 -35 4 -73 19 -148 12 -57 51 -160 78 -208 16 -26 28 -52 28 -57 0 -6 4
-10 9 -10 5 0 12 -8 16 -19 8 -26 142 -160 195 -196 25 -16 47 -33 50 -36 3
-3 20 -12 38 -20 17 -8 32 -17 32 -21 0 -5 3 -7 8 -6 4 1 17 -3 29 -10 27 -15
176 -70 206 -76 234 -49 402 -61 565 -41 31 4 73 9 92 11 19 2 48 7 65 10 37
9 65 14 88 16 9 1 17 5 17 8 0 3 8 7 18 8 21 2 43 7 62 15 8 3 40 13 70 23 30
9 61 21 68 27 6 5 12 7 12 4 0 -3 27 8 60 24 33 16 62 29 65 29 9 0 188 112
203 126 13 14 11 15 -24 8 -21 -3 -43 -9 -48 -12 -5 -3 -23 -7 -40 -8 -17 -1
-58 -6 -91 -10 -75 -9 -446 -14 -460 -6 -5 4 -26 7 -45 8 -19 1 -48 4 -65 8
-16 3 -43 8 -60 11 -135 26 -304 85 -377 132 -21 12 -42 23 -47 23 -6 0 -14 6
-18 13 -4 7 -20 20 -34 29 -66 42 -153 145 -192 228 -33 70 -41 92 -38 108 1
6 -2 12 -6 12 -4 0 -9 15 -11 33 -5 53 -5 260 0 287 14 68 58 212 67 220 3 3
7 12 9 20 6 27 74 163 108 218 19 29 34 57 34 62 0 6 5 10 10 10 6 0 10 7 10
15 0 8 4 15 8 15 4 0 15 12 24 28 9 15 26 37 38 50 11 12 19 22 16 22 -6 0 61
76 128 144 27 28 76 72 110 98 33 26 66 51 71 56 6 4 37 20 70 36 69 33 144
38 192 13 34 -18 67 -76 69 -122 1 -16 3 -32 4 -35 1 -3 2 -9 1 -14 -1 -5 -4
-32 -6 -60 -6 -63 -8 -78 -18 -93 -5 -7 -6 -13 -3 -13 3 0 -4 -26 -15 -57 -11
-32 -19 -59 -19 -61 2 -6 -38 -94 -91 -198 -46 -92 -147 -254 -169 -274 -4 -3
-13 -14 -21 -26 -71 -105 -247 -266 -368 -337 -44 -27 -81 -51 -81 -53 0 -3 4
-2 10 1 5 3 29 8 52 10 24 2 43 4 43 5 0 2 24 6 72 14 21 3 45 7 53 9 84 20
166 45 207 63 17 8 34 14 37 14 3 0 30 11 61 25 30 13 58 24 62 24 3 -1 9 3
12 8 3 4 22 17 41 27 19 11 44 24 54 30 11 6 25 14 30 19 178 129 297 246 381
371 30 46 55 88 55 95 0 6 5 11 11 11 5 0 7 5 4 10 -3 6 -1 10 6 10 7 0 9 3 6
7 -4 3 -2 12 3 18 13 15 60 149 68 190 3 17 6 47 6 67 1 21 4 38 7 38 10 0 5
44 -6 52 -6 5 -6 8 2 8 7 0 10 9 7 23 -3 12 -7 36 -9 52 -2 17 -4 31 -5 33 -2
1 -3 5 -5 10 -18 66 -51 120 -102 170 -57 54 -156 109 -190 103 -7 -1 -13 2
-13 6 0 11 -7 11 -147 16 -62 3 -114 2 -117 0z"/>
<path d="M19051 7085 c-25 -8 -48 -12 -53 -9 -4 3 -8 1 -8 -3 0 -5 -34 -20
-75 -34 -41 -13 -75 -28 -75 -32 0 -5 -4 -5 -10 -2 -5 3 -10 2 -10 -2 0 -5
-10 -9 -22 -10 -11 -1 -24 -6 -27 -10 -3 -5 -19 -14 -36 -21 -16 -8 -48 -24
-70 -37 -22 -12 -43 -23 -48 -24 -4 0 -17 -10 -29 -21 -12 -11 -25 -20 -29
-20 -9 0 -153 -111 -157 -122 -2 -4 -7 -6 -11 -3 -5 2 -13 -6 -20 -18 -7 -12
-25 -31 -40 -42 -16 -10 -36 -30 -45 -44 -8 -14 -31 -42 -49 -62 -18 -20 -41
-47 -50 -60 l-17 -24 9 26 c5 14 12 39 15 55 6 35 12 59 25 102 5 17 8 32 6
32 -3 0 0 11 5 25 5 14 12 36 14 48 2 12 12 51 21 87 9 36 18 74 19 85 2 11 5
22 6 25 2 3 4 10 5 15 2 6 4 12 5 15 14 37 22 36 -370 36 -335 -1 -377 -2
-370 -16 4 -8 10 -34 14 -58 3 -24 8 -47 11 -53 4 -5 3 -9 -2 -9 -4 0 -8 -24
-7 -52 1 -29 -8 -89 -18 -133 -11 -44 -22 -91 -24 -105 -3 -14 -7 -32 -10 -40
-4 -8 -8 -24 -10 -35 -1 -11 -5 -29 -8 -40 -22 -82 -98 -395 -102 -415 -3 -14
-7 -33 -10 -42 -5 -18 -6 -21 -29 -118 -9 -36 -17 -69 -19 -75 -9 -28 -20 -77
-30 -135 -2 -8 -6 -22 -9 -30 -4 -13 -13 -46 -33 -132 -6 -27 -10 -41 -49
-198 -20 -80 -38 -156 -40 -170 -2 -14 -4 -25 -5 -25 -2 0 -10 -30 -14 -55 -2
-8 -9 -35 -16 -60 -6 -25 -14 -56 -17 -70 -4 -25 -19 -88 -29 -123 -5 -16 14
-17 333 -15 l338 3 13 50 c7 28 15 61 17 75 9 48 11 55 18 68 5 6 6 12 3 12
-2 0 0 15 5 33 8 27 74 299 84 347 29 135 96 389 115 435 4 11 15 38 25 60 37
91 127 246 169 292 6 6 29 33 51 59 22 26 51 58 65 71 14 12 41 37 62 55 20
19 56 47 80 63 23 17 45 33 46 38 2 4 10 7 18 7 8 0 14 5 14 10 0 6 3 9 8 8 4
-1 30 10 57 24 59 30 154 64 210 74 22 5 43 9 48 10 4 1 27 2 52 3 45 1 59 14
70 66 2 6 13 43 25 84 12 41 23 81 25 90 2 9 8 28 14 44 6 15 8 27 5 27 -4 0
-1 7 6 15 7 8 9 15 5 15 -4 0 -1 7 6 17 8 9 12 17 10 17 -2 1 2 19 8 41 17 64
18 63 -58 40z"/>
<path d="M21677 7094 c-2 -2 -17 -6 -33 -8 -163 -23 -290 -82 -391 -182 -29
-30 -51 -54 -48 -54 4 0 0 -7 -7 -15 -29 -32 -39 -45 -33 -45 3 0 -1 -10 -9
-22 -30 -48 -62 -187 -58 -253 1 -25 12 -112 16 -131 18 -89 109 -304 128
-304 4 0 8 -4 8 -10 0 -8 56 -96 70 -110 3 -3 21 -25 40 -50 19 -25 38 -46 42
-48 4 -2 8 -9 8 -16 0 -6 9 -18 20 -26 11 -8 20 -18 20 -23 0 -4 10 -18 23
-30 13 -12 36 -40 53 -62 16 -22 34 -44 40 -50 25 -21 108 -153 136 -215 17
-38 30 -85 31 -112 1 -27 5 -48 8 -48 5 0 -5 -111 -14 -150 -11 -52 -82 -142
-115 -146 -4 0 -16 -5 -27 -10 -33 -15 -156 -9 -197 9 -21 10 -41 17 -44 16
-4 0 -10 3 -13 8 -3 4 -22 17 -41 27 -19 11 -37 22 -40 25 -3 3 -25 22 -50 42
-53 43 -91 80 -141 135 l-35 40 -31 -46 c-17 -25 -66 -98 -109 -163 l-77 -119
29 -24 c16 -13 34 -23 41 -24 6 0 13 -3 15 -7 3 -7 74 -47 87 -49 3 0 23 -8
43 -17 35 -16 153 -50 208 -61 14 -3 34 -7 45 -9 110 -25 360 -23 430 3 11 4
28 6 38 5 9 -2 17 0 17 4 0 4 6 8 13 9 65 4 199 76 267 142 16 15 31 25 34 22
3 -3 6 0 6 7 0 6 9 21 19 33 35 37 96 164 107 223 1 6 3 12 4 15 8 21 11 57
12 135 2 147 -44 279 -151 435 -44 63 -218 282 -260 327 -12 12 -21 25 -21 28
0 3 -10 16 -21 28 -54 56 -175 257 -183 304 -1 7 -5 16 -9 19 -4 4 -7 17 -7
29 0 12 -3 25 -7 29 -9 9 -13 176 -4 191 3 6 6 15 7 20 11 59 68 120 131 138
42 12 121 14 171 3 48 -11 129 -64 184 -121 78 -81 79 -82 128 -150 23 -33 46
-64 50 -68 4 -4 27 23 51 60 24 37 47 70 51 71 5 2 8 8 8 13 0 6 19 38 42 72
72 104 71 102 33 131 -18 14 -45 31 -59 37 -14 7 -26 17 -26 22 0 6 -3 7 -6 4
-4 -4 -23 2 -43 12 -80 41 -203 80 -273 87 -10 1 -19 2 -20 4 -13 9 -302 22
-311 14z"/>
<path d="M6135 7053 c-26 -2 -131 -18 -190 -28 -11 -2 -47 -13 -80 -25 -33
-11 -64 -22 -70 -23 -15 -4 -89 -40 -95 -46 -3 -4 -21 -14 -40 -24 -20 -10
-64 -43 -98 -73 l-62 -55 7 33 c3 18 10 41 15 51 5 9 7 17 4 17 -2 0 4 33 15
73 10 39 19 74 19 77 0 5 -687 6 -744 1 -16 -1 -17 -3 -5 -18 10 -11 14 -47
14 -127 -1 -91 -7 -135 -33 -241 -18 -71 -35 -141 -38 -155 -9 -44 -45 -185
-51 -200 -3 -8 -5 -22 -4 -32 1 -9 -3 -19 -9 -23 -6 -3 -8 -11 -5 -16 4 -5 3
-14 -1 -21 -4 -7 -9 -21 -10 -33 -2 -11 -19 -83 -38 -160 -19 -76 -32 -143
-30 -147 3 -4 1 -8 -4 -8 -5 0 -9 -6 -10 -12 -2 -24 -9 -63 -15 -78 -3 -8 -11
-40 -18 -70 -7 -30 -14 -57 -14 -60 -4 -15 -19 -86 -20 -90 0 -3 -4 -11 -8
-17 -5 -7 -6 -13 -3 -13 3 0 -1 -21 -9 -47 -8 -27 -16 -59 -19 -73 -2 -14 -14
-63 -26 -110 -11 -47 -23 -96 -26 -110 -3 -14 -12 -50 -20 -80 -8 -30 -17 -64
-19 -75 -3 -11 -9 -41 -15 -66 -6 -26 -13 -55 -15 -65 -2 -11 -4 -19 -5 -19
-1 0 -3 -8 -5 -17 -3 -17 18 -18 336 -18 264 0 339 3 340 13 1 17 4 33 24 107
9 36 19 74 21 85 2 11 15 65 28 120 24 93 103 419 112 458 2 9 6 27 9 40 3 12
11 49 20 82 48 197 117 484 121 504 3 14 7 28 9 32 3 4 7 24 11 45 25 159 145
310 304 382 45 20 146 52 158 51 4 -1 12 0 17 1 6 1 34 2 64 1 58 0 89 -16
123 -62 26 -35 40 -130 26 -181 -4 -16 -2 -30 4 -34 6 -4 6 -9 1 -13 -8 -5
-37 -109 -47 -166 -2 -11 -11 -49 -21 -85 -9 -36 -19 -76 -22 -89 -2 -14 -18
-81 -35 -150 -17 -69 -32 -135 -34 -146 -2 -11 -12 -54 -24 -95 -11 -41 -22
-87 -25 -103 -3 -15 -21 -91 -41 -170 -62 -250 -68 -284 -62 -381 11 -166 88
-266 234 -300 41 -10 232 -15 242 -6 3 3 8 4 62 15 56 11 50 9 85 24 65 28
120 57 144 76 44 36 79 72 90 93 12 23 15 44 3 25 -12 -20 -74 -40 -117 -39
-120 4 -165 89 -125 237 7 24 14 53 16 64 6 32 11 54 44 185 17 69 33 133 35
143 2 10 7 27 10 37 3 10 7 27 9 37 2 10 16 68 31 128 15 61 28 115 29 120 2
6 7 28 11 50 12 55 12 54 15 60 1 3 3 8 4 13 27 118 59 251 64 262 3 8 7 24 9
35 4 28 11 60 13 60 14 0 23 258 11 320 -40 214 -192 330 -442 338 -46 1 -97
1 -114 0z"/>
<path d="M16576 7033 c-1 -1 -36 -3 -79 -5 -42 -2 -77 -5 -77 -8 0 -3 -17 -5
-38 -6 -97 -2 -295 -41 -452 -89 -47 -14 -89 -27 -95 -28 -64 -18 -267 -107
-277 -122 -4 -5 -8 -6 -8 -2 0 8 -79 -31 -90 -44 -3 -3 -21 -14 -40 -24 -43
-22 -148 -94 -156 -106 -3 -5 -10 -7 -15 -4 -5 4 -9 2 -9 -3 0 -5 -30 -33 -66
-62 -36 -30 -87 -76 -113 -104 -25 -27 -54 -58 -63 -68 -10 -10 -18 -21 -18
-24 0 -4 -8 -14 -18 -23 -57 -52 -168 -258 -199 -366 -1 -5 -9 -33 -17 -62
-21 -77 -40 -293 -25 -293 3 0 5 -12 4 -27 -1 -16 3 -48 7 -73 5 -25 10 -55
13 -68 14 -78 89 -257 122 -290 7 -7 13 -17 13 -22 0 -8 114 -125 141 -145 47
-34 100 -65 112 -65 7 0 18 -5 25 -12 6 -6 19 -13 27 -15 23 -5 38 -9 60 -16
99 -32 345 -38 475 -12 107 21 247 77 265 104 14 23 26 9 25 -26 -1 -21 -2
-50 -1 -65 l1 -28 371 0 371 0 -7 28 c-14 54 -16 68 -16 107 0 47 6 87 27 170
9 33 17 67 19 75 2 8 8 34 14 58 7 23 9 47 6 52 -3 5 -1 11 4 14 9 6 41 124
43 164 1 6 5 12 9 12 4 0 6 8 5 17 -2 9 3 38 11 63 15 50 54 208 55 228 1 6 4
12 8 12 3 0 7 10 7 23 1 21 9 59 13 65 3 2 3 2 15 57 4 22 9 45 11 50 35 139
150 596 160 640 8 33 17 69 20 80 3 11 7 31 10 45 3 14 18 73 33 133 19 70 25
107 17 108 -19 2 -638 4 -640 2z m-76 -182 c0 -3 -10 -44 -21 -91 -11 -47 -21
-94 -22 -105 -2 -11 -5 -24 -8 -30 -4 -5 -14 -46 -23 -90 -10 -44 -19 -86 -21
-93 -16 -47 -42 -181 -37 -187 3 -3 0 -5 -6 -5 -7 0 -12 -10 -12 -22 0 -13 -9
-56 -19 -95 -11 -40 -17 -73 -15 -73 2 0 -1 -12 -7 -27 -6 -16 -13 -39 -15
-52 -3 -13 -12 -51 -20 -85 -8 -34 -17 -70 -19 -81 -3 -11 -12 -49 -21 -85 -9
-36 -18 -76 -21 -90 -5 -29 -31 -128 -40 -150 -3 -8 -7 -21 -9 -29 -9 -44 -98
-204 -139 -249 -45 -50 -144 -118 -175 -119 -8 -1 -28 -5 -45 -11 -32 -10
-152 -9 -199 2 -16 4 -34 8 -40 9 -6 1 -13 4 -16 7 -3 3 -26 16 -52 28 -48 25
-148 117 -148 138 0 6 -7 17 -16 24 -16 14 -30 43 -62 135 -29 82 -37 141 -35
270 1 101 5 143 18 203 3 12 7 32 10 44 11 53 78 209 119 278 92 157 194 270
356 393 104 79 301 171 435 202 11 2 38 9 59 14 22 5 44 8 48 5 4 -3 8 -2 8 3
0 4 15 8 33 8 17 -1 45 2 62 5 40 8 115 8 115 1z"/>
<path d="M13857 4054 c-1 -1 -48 -4 -105 -7 -56 -3 -107 -9 -112 -12 -6 -3
-10 -1 -10 6 0 8 -4 8 -12 1 -7 -5 -44 -13 -83 -17 -38 -4 -79 -9 -90 -11 -11
-2 -33 -6 -50 -9 -39 -6 -145 -28 -195 -40 -14 -3 -34 -8 -45 -10 -34 -7 -239
-67 -265 -78 -8 -3 -36 -13 -61 -21 -42 -13 -212 -80 -279 -109 -14 -5 -28
-10 -32 -9 -5 1 -8 -3 -8 -8 0 -6 -5 -10 -11 -10 -15 0 -102 -42 -110 -53 -3
-5 -9 -8 -13 -7 -10 3 -118 -52 -134 -67 -7 -7 -17 -13 -22 -13 -7 0 -121 -64
-160 -90 -59 -39 -278 -173 -290 -178 -8 -3 -17 -8 -20 -12 -6 -8 -150 -90
-158 -90 -3 0 -13 -6 -21 -14 -9 -8 -23 -16 -31 -18 -8 -2 -17 -5 -20 -8 -12
-13 -266 -140 -279 -140 -5 0 -11 -3 -13 -7 -4 -11 -75 -43 -93 -43 -8 0 -15
-4 -15 -10 0 -5 -9 -10 -20 -10 -11 0 -20 -5 -20 -11 0 -5 -5 -7 -10 -4 -6 4
-16 2 -23 -3 -7 -6 -37 -20 -67 -32 -30 -11 -68 -27 -85 -34 -16 -7 -66 -26
-110 -41 -44 -15 -87 -30 -95 -33 -8 -3 -17 -6 -20 -6 -3 -1 -11 -5 -17 -9 -7
-5 -17 -5 -23 -2 -5 3 -10 2 -10 -3 0 -4 -41 -19 -90 -32 -50 -12 -93 -26 -96
-31 -2 -4 -11 -6 -19 -2 -9 3 -22 0 -30 -7 -8 -7 -15 -10 -15 -7 0 3 -16 1
-36 -5 -20 -5 -44 -11 -53 -13 -213 -42 -282 -54 -356 -58 -16 -1 -34 -5 -40
-7 -5 -3 -47 -5 -92 -5 -115 0 -109 -13 12 -31 22 -3 54 -8 70 -11 17 -3 44
-6 60 -7 17 0 35 -4 40 -7 23 -13 562 0 630 15 11 3 49 8 85 12 36 3 68 8 71
10 4 2 24 6 45 10 34 5 271 59 299 68 70 21 102 29 113 27 6 -1 12 4 12 10 0
7 3 10 6 7 5 -5 115 28 164 49 8 3 20 7 25 9 6 1 27 9 48 18 20 9 37 13 37 9
0 -5 4 -3 8 2 4 6 34 21 67 34 33 13 102 44 154 67 51 24 95 44 97 44 2 0 26
13 54 30 27 16 50 27 50 24 0 -2 17 7 37 21 21 14 41 25 45 25 7 0 273 156
293 172 43 34 337 213 346 211 5 -2 9 0 9 5 0 4 17 16 38 27 20 11 40 24 44
30 4 5 8 6 8 1 0 -5 6 -4 13 2 19 15 321 165 337 167 7 0 80 33 102 45 10 6
23 10 30 10 7 0 25 6 40 14 25 13 229 84 259 90 8 2 21 6 29 9 8 4 50 16 93
27 43 11 81 22 85 24 5 3 26 7 47 9 22 3 47 8 55 11 17 6 59 14 115 22 22 3
46 7 53 9 12 4 98 14 157 19 17 1 35 4 40 7 6 3 97 5 203 4 105 0 192 3 192 8
0 4 -4 6 -8 3 -5 -3 -31 2 -58 10 -27 8 -64 17 -83 20 -18 3 -43 8 -55 10 -20
4 -75 11 -150 19 -17 2 -31 4 -31 5 0 5 -363 18 -368 14z"/>
<path d="M4530 4010 c-9 -6 -10 -10 -3 -10 6 0 15 5 18 10 8 12 4 12 -15 0z"/>
</g>
</svg>
