<svg id="zoom-tool" xmlns="http://www.w3.org/2000/svg" viewBox="0 0 15 15">
  <defs>
    <style>
      .cls-1 {
        fill: #1d415e;
      }
    </style>
  </defs>
  <g id="search_1_" transform="translate(0)">
    <path id="Path_166" data-name="Path 166" class="cls-1" d="M9.376,0A5.622,5.622,0,0,0,4.4,8.254L.494,12.164l0,0A1.653,1.653,0,1,0,2.834,14.5h0l3.91-3.909A5.624,5.624,0,1,0,9.376,0ZM2.249,13.919a.825.825,0,1,1-1.166-1.166l0,0L4.859,8.968a5.672,5.672,0,0,0,1.169,1.171Zm7.127-3.605a4.688,4.688,0,1,1,4.688-4.688A4.688,4.688,0,0,1,9.376,10.313Z" transform="translate(-0.001)"/>
    <path id="Path_167" data-name="Path 167" class="cls-1" d="M16.281,5A3.281,3.281,0,0,0,13,8.281a.234.234,0,1,0,.469,0,2.813,2.813,0,0,1,2.813-2.813.234.234,0,1,0,0-.469Z" transform="translate(-6.907 -2.656)"/>
  </g>
</svg>
