<?xml version="1.0" encoding="UTF-8" standalone="no"?>
<svg width="100px" height="79px" viewBox="0 0 100 79" version="1.1" xmlns="http://www.w3.org/2000/svg" xmlns:xlink="http://www.w3.org/1999/xlink">
    <!-- Generator: Sketch 39.1 (31720) - http://www.bohemiancoding.com/sketch -->
    <title>CP Logo</title>
    <desc>Created with Sketch.</desc>
    <defs></defs>
    <g id="Page-1" stroke="none" stroke-width="1" fill="none" fill-rule="evenodd">
        <g id="Desktop-HD-Copy-9" transform="translate(-120.000000, -12.000000)">
            <g id="CP-Logo" transform="translate(120.000000, 12.000000)">
                <path d="M42.4578723,77.8828191 C42.4578723,77.8828191 46.585,78.1626064 52.6312766,74.2610106 C59.3802128,69.9056915 64.797234,71.9051596 64.797234,71.9051596 C64.797234,71.9051596 60.4839362,71.0349468 54.5121277,74.9876064 C47.7169149,79.4849468 42.4578723,77.8828191 42.4578723,77.8828191" id="Red-Swoosh" fill="#D95A35"></path>
                <path d="M73.8363298,58.1225 C68.7480319,58.1225 64.9836702,61.0772872 64.9836702,64.259734 C64.9836702,65.9044149 65.8225,67.9895213 68.3719681,67.9895213 C69.4666489,67.9895213 70.1693085,67.8283511 70.7698404,67.353883 C70.7437766,67.4879255 70.7198404,67.7996277 70.7698404,67.9751596 L74.0725,67.9751596 C73.9405851,67.5868617 73.9278191,67.2863298 74.0092021,66.9113298 L76.191117,58.1225 L73.8363298,58.1225 Z M72.9570745,58.9214362 L71.6272872,64.5086702 C71.3145213,65.7900532 70.7453723,66.8943085 69.4267553,66.8943085 C68.0294149,66.8943085 67.2767553,65.6283511 67.2767553,64.1570745 C67.2767553,61.5900532 69.6400532,58.9214362 72.9570745,58.9214362 Z M18.6899468,67.9775532 L20.7606915,59.4243617 C20.9021809,58.7802128 20.7995213,58.3307447 20.7154787,58.1190426 L24.0915426,58.1190426 L23.8043085,59.2892553 C24.6692021,58.3435106 25.9942021,58.0296809 27.0426064,58.0296809 C29.4553723,58.0296809 29.3016489,60.1105319 29.0548404,61.135 L27.7899468,66.3355319 C27.7154787,66.6445745 27.5644149,67.3839362 28.3771809,67.3839362 C28.5782447,67.3839362 28.8218617,67.3046809 28.9601596,67.1456383 C28.6426064,67.8270213 27.6670745,68.278617 26.6064362,68.278617 C25.3995213,68.278617 25.019734,67.5605319 25.019734,66.7264894 C25.019734,66.4248936 25.095266,66.0653191 25.095266,66.0653191 L26.3426064,60.91 C26.4984574,60.2903191 26.4995213,59.3791489 25.7575,59.3791489 C24.6814362,59.3791489 23.6149468,60.097234 23.3559043,61.135 L21.7027128,67.9775532 L18.6899468,67.9775532 Z M39.3039894,64.7232979 C45.0492021,64.2940426 47.0359043,57.8435106 42.8864362,57.8435106 C40.7827128,57.8435106 36.1454787,60.2195745 36.1454787,64.3190426 C36.1454787,68.972234 42.4353723,69.5009574 45.6231383,67.0169149 C43.2321809,67.6259574 38.5098404,67.2998936 38.5098404,63.8791489 C38.5098404,61.6025532 40.9992021,58.6573404 42.2321809,58.6573404 C44.0013298,58.6573404 41.9305851,63.6147872 39.3039894,64.7232979 Z M12.4724468,64.7232979 C18.2176596,64.2940426 20.2048936,57.8435106 16.0548936,57.8435106 C13.9517021,57.8435106 9.31393617,60.2195745 9.31393617,64.3190426 C9.31393617,68.972234 15.6038298,69.5009574 18.7915957,67.0169149 C16.4006383,67.6259574 11.6782979,67.2998936 11.6782979,63.8791489 C11.6782979,61.6025532 14.1676596,58.6573404 15.4006383,58.6573404 C17.1692553,58.6573404 15.0990426,63.6147872 12.4724468,64.7232979 Z M92.5944681,58.1856383 C91.8843617,57.8260638 91.0630851,57.6207447 90.207234,57.6207447 C87.2641489,57.6207447 83.157766,60.3069149 83.157766,64.5675532 C83.157766,68.5196809 86.4689362,70.3164894 89.6598936,70.3164894 C91.8157447,70.3164894 92.8880851,69.7117021 93.6694681,69.1244681 C93.026383,69.2962766 92.7051064,69.3925532 91.8157447,69.3925532 C88.3934043,69.3925532 85.382234,66.8941489 85.382234,63.8829787 C85.382234,61.1542553 87.3157447,58.9212766 89.2832979,58.9212766 C90.626383,58.9212766 91.2678723,59.562766 91.7407447,60.0824468 L92.5944681,58.1856383 Z M19.6569149,71.6125 C18.5021277,71.8433511 17.2867021,71.9795213 15.712766,71.9795213 C7.92234043,71.9795213 3.15425532,67.2364362 3.15425532,61.556117 C3.15425532,56.9364362 7.22606383,53.0013298 10.4085106,53.0013298 C11.7292553,53.0013298 12.618617,53.3390957 13.4824468,53.750266 L14.6138298,51.3736702 C5.85744681,51.3736702 0,56.9023936 0,62.4970745 C0,68.1603723 5.00212766,72.8146277 13.0095745,72.8146277 C15.8494681,72.8146277 17.5265957,72.4981383 19.6569149,71.6125 Z M32.2204255,56.1422872 C32.3044681,56.3545213 32.4071277,56.8034574 32.2651064,57.4476064 L30.3268085,65.4896277 C30.3268085,65.4896277 30.1874468,66.1289894 30.1874468,66.4369681 C30.1874468,67.4742021 30.6869149,68.2694149 32.0470213,68.2694149 C33.4331915,68.2694149 34.9565957,67.4279255 35.1970213,66.7337766 C34.8002128,67.0710106 34.4156383,67.1922872 34.0917021,67.1922872 C32.9284043,67.1922872 33.2071277,66.0087766 33.3980851,65.2204787 L34.9087234,58.9210106 L36.9374468,58.9210106 L37.1268085,58.1156915 L35.1018085,58.1156915 L35.586383,56.1422872 L32.2204255,56.1422872 Z M47.5553723,58.1175 C47.6394149,58.329734 47.7420745,58.7786702 47.6005851,59.4228191 L45.5213298,67.9754787 L48.5303723,67.9754787 L49.4867553,63.9898404 C50.1027128,61.6159043 52.0787766,59.9212234 53.9468617,59.9212234 L54.5665426,57.8148404 C53.4729255,58.079734 51.5335638,58.7930319 50.3154787,60.573883 L50.9149468,58.1175 L47.5553723,58.1175 Z M77.653883,58.1175 C77.7379255,58.329734 77.8405851,58.7786702 77.6990957,59.4228191 L75.6198404,67.9754787 L78.6294149,67.9754787 L79.585266,63.9898404 C80.2012234,61.6159043 82.1772872,59.9212234 84.0453723,59.9212234 L84.6650532,57.8148404 C83.5719681,58.079734 81.6320745,58.7930319 80.4139894,60.573883 L81.0139894,58.1175 L77.653883,58.1175 Z M95.4964894,59.8056383 C95.4964894,61.9024468 98.5119149,63.32 98.5119149,65.5997872 C98.5119149,67.0019149 97.5853191,68.3918085 95.1917021,68.3918085 C94.2411702,68.3918085 92.8757447,68.0503191 92.1778723,67.4497872 L93.1390426,65.9779787 C94.0475532,67.0508511 94.8161702,67.3934043 95.2305319,67.3934043 C96.1475532,67.3934043 96.3539362,66.7332979 96.3539362,66.0019149 C96.3539362,64.2710638 93.4810638,62.9301064 93.4810638,60.357766 C93.4810638,59.1141489 94.4901064,57.8465957 96.5002128,57.8465957 C97.6587234,57.8465957 98.7826596,58.1769149 99.5140426,58.7880851 L98.5528723,60.2598936 C97.6087234,58.8439362 97.0821277,58.6561702 96.492234,58.6561702 C95.8055319,58.6561702 95.4964894,59.126383 95.4964894,59.8056383 Z M56.409734,70.1214894 C55.2996277,70.3869149 54.0804787,70.9193617 53.0092021,71.5741489 L57.160266,54.4528723 C57.3022872,53.8081915 57.1996277,53.3592553 57.1155851,53.1470213 L60.2139894,53.1470213 C63.3006915,53.1470213 67.0650532,53.4714894 66.7804787,57.5667021 C66.5751596,60.5241489 62.9990957,63.3353191 58.7682447,64.2991489 C62.7081383,61.8470213 63.6448404,59.5725532 64.1373936,57.5667021 C64.7443085,55.0932979 63.3022872,53.9730851 60.2044149,54.2209574 L56.409734,70.1214894 Z" id="Center-Parcs" fill="#004990"></path>
                <g id="Bird" transform="translate(27.127660, 0.000000)">
                    <path d="M46.3345745,24.4355851 C49.3398936,14.5180319 48.9393617,6.90473404 57.9675532,-5.31914893e-05 C54.4234043,1.23398936 52.0069149,2.39675532 49.4404255,6.0531383 L49.3319149,4.22494681 C47.7542553,5.9281383 45.5079787,8.84569149 44.0430851,12.6398404 L43.6888298,10.3190957 C42.0111702,12.5978191 40.2867021,16.2339894 39.4723404,20.5786702 L38.8547872,18.2249468 C37.3856383,20.6286702 35.4654255,26.3137766 35.4654255,29.9201596 L34.8367021,28.3664362 C33.0191489,40.036117 27.9191489,46.9121809 22.181383,51.5148404 C33.1047872,47.1994149 43.3308511,34.348883 46.3345745,24.4355851" id="Fill-4" fill="#008348"></path>
                    <path d="M22.1668085,51.5266489 C18.7556383,52.4979255 15.5040426,53.0484574 12.6790426,53.1612234 C13.6896809,54.4883511 13.3391489,55.4777128 12.9008511,57.2931383 C15.9375532,55.7442021 19.0875532,53.9942021 22.1668085,51.5266489" id="Fill-7" fill="#008348"></path>
                    <path d="M22.168617,51.5251596 C22.1680851,51.5256915 22.1675532,51.5262234 22.1670213,51.5267553 C22.1675532,51.5262234 22.1680851,51.5262234 22.1691489,51.5262234 L22.168617,51.5251596 Z" id="Fill-9" fill="#008348"></path>
                    <path d="M27.852234,41.1774468 L26.2118085,41.1774468 C27.5708511,41.8396809 28.9740426,42.2455319 30.0368085,42.4907447 C31.0804255,40.7120213 32.0128723,38.7343617 32.802234,36.5274468 C30.0564894,35.3880851 26.0501064,33.2678723 21.4910638,28.6098936 C12.4043617,19.3253191 5.90170213,19.0040426 0.270851064,19.7290426 C2.94585106,19.9152128 6.25755319,21.7439362 7.10329787,22.3317021 L5.3543617,22.3317021 C6.69,22.907766 10.5969149,25.8630851 12.2703191,27.1402128 L10.4591489,27.1402128 C12.2453191,29.0402128 15.1660638,31.0317021 16.4070213,31.9487234 L14.6665957,31.9487234 C15.9538298,33.4242553 19.2144681,35.7396809 21.2532979,36.757766 L19.3623404,36.757766 C21.6160638,38.6604255 25.6735106,40.5641489 27.852234,41.1774468" id="Fill-11" fill="#008348"></path>
                    <path d="M46.0340957,39.9628191 C45.3181383,40.0266489 44.4495213,39.970266 43.4819681,39.8245213 C41.9218617,41.2729255 40.2436702,42.6090957 38.4894149,43.8293085 C40.3681383,43.6186702 42.8160106,43.3000532 45.2122872,42.8771809 C47.8213298,42.4160106 50.570266,42.2612234 51.8718617,43.1936702 C53.3218617,44.2330319 54.3489894,45.5729255 54.3489894,45.5729255 L54.5995213,45.3223936 C53.5973936,44.070266 51.9957979,41.9750532 51.1096277,40.9415426 C50.1415426,39.8128191 49.0394149,39.6957979 46.0340957,39.9628191" id="Fill-13" fill="#008348"></path>
                    <path d="M34.4454787,30.5579787 C27.8210106,26.006383 24.0917553,21.5840426 17.7731383,19.7840426 C11.6619681,18.0430851 6.49015957,18.3 0.270478723,19.7292553 C5.9018617,19.0042553 12.4045213,19.3255319 21.4912234,28.6095745 C26.049734,33.2675532 30.056117,35.3882979 32.8023936,36.5271277 C33.4550532,34.7010638 34.0103723,32.718617 34.4454787,30.5579787" id="Fill-15" fill="#62BB45"></path>
                    <path d="M51.1423404,38.3378723 C49.9620213,37.2857447 47.5918085,36.8320213 46.551383,36.64 L46.551383,36.64 C49.1439362,33.6171277 51.213617,30.2006383 52.4790426,26.4059574 C56.5795745,14.1038298 51.8109574,7.37244681 57.9678723,0.000106382979 C48.9391489,6.90489362 49.3402128,14.5181915 46.3343617,24.4357447 C43.3306383,34.3490426 33.0976596,47.2054255 22.1742553,51.5208511 C29.407234,49.4618085 37.3556383,45.5123404 43.482234,39.8245745 C44.4497872,39.9703191 45.3178723,40.0267021 46.0343617,39.9628723 C49.0396809,39.6958511 50.1418085,39.8128723 51.1093617,40.9415957 C51.5497872,41.4543617 52.1657447,42.2288298 52.7976596,43.0325532 C52.7306383,41.0543617 52.3481915,39.4123404 51.1423404,38.3378723" id="Fill-17" fill="#62BB45"></path>
                </g>
            </g>
        </g>
    </g>
</svg>