<?xml version="1.0" encoding="utf-8"?>
<!-- Generator: Adobe Illustrator 23.0.4, SVG Export Plug-In . SVG Version: 6.00 Build 0)  -->
<svg version="1.1" id="Layer_1" xmlns="http://www.w3.org/2000/svg" xmlns:xlink="http://www.w3.org/1999/xlink" x="0px" y="0px"
	 viewBox="0 0 283.46 283.46" style="enable-background:new 0 0 283.46 283.46;" xml:space="preserve">
<style type="text/css">
	.st0{fill:#878787;}
	.st1{fill-rule:evenodd;clip-rule:evenodd;fill:#13110C;}
	.st2{fill:#24377A;}
	.st3{fill-rule:evenodd;clip-rule:evenodd;fill:#E74210;}
	.st4{fill-rule:evenodd;clip-rule:evenodd;fill:#00733B;}
	.st5{fill-rule:evenodd;clip-rule:evenodd;fill:#6EB52C;}
</style>
<g>
	<g>
		<path class="st0" d="M38.65,221.85c0-4.53,1.51-8.18,6.27-8.18c1.96,0,3.27,0.36,4.14,0.74v1.45c-1.47-0.59-2.55-0.83-4.14-0.83
			c-3.49,0-4.7,2.97-4.7,6.82c0,3.85,1.21,6.82,4.7,6.82c1.59,0,2.68-0.23,4.14-0.83v1.45c-0.87,0.38-2.19,0.74-4.14,0.74
			C40.16,230.04,38.65,226.38,38.65,221.85z"/>
		<path class="st0" d="M56.61,230.04c-3.63,0-4.46-2.27-4.46-5.53c0-3.25,0.83-5.53,4.46-5.53c3.66,0,4.46,2.27,4.46,5.53
			C61.07,227.76,60.26,230.04,56.61,230.04z M56.61,220.3c-2.81,0-2.98,1.81-2.98,4.21c0,2.4,0.17,4.21,2.98,4.21
			c2.76,0,2.98-1.81,2.98-4.21C59.58,222.11,59.37,220.3,56.61,220.3z"/>
		<path class="st0" d="M70.74,222.11c0-1.38-0.81-1.81-2.13-1.81c-1.38,0-2.08,0.23-2.87,0.68v8.84h-1.49V219.2h0.83l0.32,0.89
			c1-0.74,2.08-1.11,3.21-1.11c2.53,0,3.61,1.15,3.61,3.19v7.65h-1.49V222.11z"/>
		<path class="st0" d="M82.04,215.16c-0.43-0.11-0.83-0.17-1.49-0.17c-1.38,0-2.4,0.49-2.4,1.87v2.34h3.36v1.17h-3.36v9.46h-1.42
			v-9.46H74.6v-0.66l2.13-0.62v-2.23c0-2.04,1.17-3.19,3.83-3.19c0.45,0,1.06,0.04,1.49,0.15V215.16z"/>
		<path class="st0" d="M88.42,218.99c3.61,0,4.04,2.46,4.04,5.53v0.68h-7.01c0.09,1.85,0.57,3.53,2.98,3.53
			c1.53,0,2.47-0.15,3.51-0.59v1.28c-1.19,0.53-2.47,0.64-3.51,0.64c-3.59,0-4.46-2.46-4.46-5.53
			C83.95,221.45,84.82,218.99,88.42,218.99z M85.44,223.98h5.53c0-1.89-0.11-3.68-2.55-3.68C85.95,220.3,85.5,222.07,85.44,223.98z"
			/>
		<path class="st0" d="M101.49,220.47c-0.32-0.11-0.74-0.17-1.28-0.17c-1.45,0-2.3,0.23-3.08,0.68v8.84h-1.49V219.2h0.83l0.32,0.89
			c1-0.74,2.23-1.11,3.42-1.11c0.49,0,0.87,0.04,1.28,0.11V220.47z"/>
		<path class="st0" d="M108.24,218.99c3.61,0,4.04,2.46,4.04,5.53v0.68h-7.01c0.09,1.85,0.57,3.53,2.98,3.53
			c1.53,0,2.47-0.15,3.51-0.59v1.28c-1.19,0.53-2.47,0.64-3.51,0.64c-3.59,0-4.46-2.46-4.46-5.53
			C103.78,221.45,104.65,218.99,108.24,218.99z M105.27,223.98h5.53c0-1.89-0.11-3.68-2.55-3.68
			C105.78,220.3,105.33,222.07,105.27,223.98z"/>
		<path class="st0" d="M121.95,222.11c0-1.38-0.81-1.81-2.13-1.81c-1.38,0-2.08,0.23-2.87,0.68v8.84h-1.49V219.2h0.83l0.32,0.89
			c1-0.74,2.08-1.11,3.21-1.11c2.53,0,3.61,1.15,3.61,3.19v7.65h-1.49V222.11z"/>
		<path class="st0" d="M131,218.99c1.04,0,2.23,0.13,3.17,0.53v1.28c-0.83-0.28-1.68-0.49-3.19-0.49c-2.68,0-2.98,2.1-2.98,4.21
			c0,2.1,0.3,4.21,2.98,4.21c1.51,0,2.36-0.21,3.19-0.49v1.28c-0.94,0.4-2.13,0.53-3.17,0.53c-3.59,0-4.48-2.46-4.48-5.53
			C126.52,221.45,127.41,218.99,131,218.99z"/>
		<path class="st0" d="M141.39,218.99c3.61,0,4.04,2.46,4.04,5.53v0.68h-7.02c0.09,1.85,0.57,3.53,2.98,3.53
			c1.53,0,2.46-0.15,3.51-0.59v1.28c-1.19,0.53-2.47,0.64-3.51,0.64c-3.59,0-4.46-2.46-4.46-5.53
			C136.93,221.45,137.8,218.99,141.39,218.99z M138.42,223.98h5.53c0-1.89-0.11-3.68-2.55-3.68
			C138.93,220.3,138.48,222.07,138.42,223.98z"/>
		<path class="st0" d="M152.16,223.73c3.02,0.28,3.74,1.3,3.74,3.04c0,1.64-1.04,3.27-4.27,3.27c-1.02,0-2.49-0.26-3.17-0.53v-1.28
			c0.66,0.23,1.68,0.49,3.19,0.49c2.21,0,2.81-0.93,2.81-1.93c0-0.98-0.3-1.66-2.4-1.83c-3.08-0.28-3.72-1.36-3.72-2.83
			c0-1.51,0.98-3.15,3.97-3.15c1,0,2.13,0.13,3.06,0.53v1.28c-0.83-0.28-1.66-0.49-3.08-0.49c-2.1,0-2.55,0.79-2.55,1.83
			C149.74,223.07,150.12,223.56,152.16,223.73z"/>
		<path class="st0" d="M170.46,217.28c0.09-0.25,0.15-0.57,0.15-1.02c0-0.64-0.23-1.28-1.81-1.28c-1.89,0-2.27,1.47-2.27,2.62
			c0,2.8,1.64,8.01,5.78,10.12c1.23-0.79,2.13-2.06,2.13-3.95c0-2.42-1.13-3.25-2.66-3.25c-1.21,0-1.74,0.11-2.55,0.36v-1.28
			c1.06-0.34,1.7-0.4,2.55-0.4c2.38,0,4.14,1.38,4.14,4.57c0,2.02-0.87,3.51-2.12,4.55c0.74,0.21,1.55,0.32,2.44,0.32v1.4
			c-1.47,0-2.79-0.28-3.95-0.79c-1.15,0.53-2.4,0.79-3.59,0.79c-3.42,0-5.95-1.4-5.95-4.99c0-2.13,1.32-3.51,2.76-4.21
			c-0.3-1.11-0.45-2.21-0.45-3.23c0-1.72,0.89-3.93,3.74-3.93c2.53,0,3.19,1.17,3.19,2.59c0,0.34-0.11,0.74-0.21,1.02H170.46z
			 M170.74,228.44c-2.29-1.49-3.91-3.85-4.8-6.27c-0.89,0.47-1.7,1.32-1.7,2.87c0,2.59,1.87,3.68,4.46,3.68
			C169.36,228.72,170.06,228.64,170.74,228.44z"/>
		<path class="st0" d="M191.86,222.26h-6.99v6.16h7.74v1.4h-9.25v-15.94h9.25v1.4h-7.74v5.57h6.99V222.26z"/>
		<path class="st0" d="M196.58,219.2l3.04,8.71l3.04-8.71h1.64l-4.15,10.84h-1.06l-4.14-10.84H196.58z"/>
		<path class="st0" d="M210.56,218.99c3.61,0,4.04,2.46,4.04,5.53v0.68h-7.01c0.08,1.85,0.57,3.53,2.98,3.53
			c1.53,0,2.47-0.15,3.51-0.59v1.28c-1.19,0.53-2.47,0.64-3.51,0.64c-3.59,0-4.46-2.46-4.46-5.53
			C206.1,221.45,206.97,218.99,210.56,218.99z M207.58,223.98h5.53c0-1.89-0.11-3.68-2.55-3.68
			C208.09,220.3,207.65,222.07,207.58,223.98z"/>
		<path class="st0" d="M224.27,222.11c0-1.38-0.81-1.81-2.13-1.81c-1.38,0-2.08,0.23-2.87,0.68v8.84h-1.49V219.2h0.83l0.32,0.89
			c1-0.74,2.08-1.11,3.21-1.11c2.53,0,3.61,1.15,3.61,3.19v7.65h-1.49V222.11z"/>
		<path class="st0" d="M234.62,229.97c-0.28,0.04-0.55,0.06-0.83,0.06c-1.76,0.11-3.46-0.7-3.53-2.79v-6.89h-2.13v-0.66l2.13-0.62
			v-2.87l1.49-0.42v3.4h3.29v1.17h-3.29v6.85c0.09,1.3,0.79,1.66,2.04,1.66c0.28,0,0.55-0.02,0.83-0.04V229.97z"/>
		<path class="st0" d="M241.24,223.73c3.02,0.28,3.74,1.3,3.74,3.04c0,1.64-1.04,3.27-4.27,3.27c-1.02,0-2.49-0.26-3.17-0.53v-1.28
			c0.66,0.23,1.68,0.49,3.19,0.49c2.21,0,2.81-0.93,2.81-1.93c0-0.98-0.3-1.66-2.4-1.83c-3.08-0.28-3.72-1.36-3.72-2.83
			c0-1.51,0.98-3.15,3.97-3.15c1,0,2.13,0.13,3.06,0.53v1.28c-0.83-0.28-1.66-0.49-3.08-0.49c-2.1,0-2.55,0.79-2.55,1.83
			C238.82,223.07,239.2,223.56,241.24,223.73z"/>
	</g>
</g>
<g>
	<polygon class="st1" points="140.67,146.96 140.67,146.96 140.67,146.96 140.67,146.96 	"/>
	<path class="st2" d="M195.03,180.8l4.8-19.33h-5.18c-11.18,0-19.48,6.52-19.48,13.51c0,3.61,1.86,8.21,7.45,8.21
		c2.42,0,3.96-0.35,5.3-1.4c-0.06,0.29-0.12,0.96,0,1.37h7.25C194.88,182.28,194.85,181.64,195.03,180.8z M189.79,175.53
		c-0.67,2.82-1.92,5.24-4.83,5.24c-3.06,0-4.72-2.77-4.72-6.03c0-5.65,5.18-11.5,12.49-11.5L189.79,175.53z M73.35,183.16
		l4.54-18.81c0.32-1.43,0.09-2.42-0.09-2.88h7.42l-0.64,2.56c1.89-2.07,4.8-2.77,7.13-2.77c5.3,0,4.95,4.6,4.43,6.84l-2.79,11.44
		c-0.17,0.67-0.49,2.3,1.31,2.3c0.44,0,0.96-0.17,1.28-0.52c-0.7,1.51-2.85,2.5-5.18,2.5c-2.65,0-3.49-1.57-3.49-3.44
		c0-0.64,0.15-1.46,0.15-1.46l2.77-11.33c0.35-1.37,0.35-3.38-1.28-3.38c-2.39,0-4.72,1.6-5.3,3.87l-3.64,15.05H73.35L73.35,183.16z
		 M118.68,175.99c5.79-2.45,10.34-13.33,6.43-13.33c-2.71,0-8.18,6.46-8.18,11.47c0,7.54,10.4,8.24,15.67,6.9
		c-7.02,5.47-20.88,4.31-20.88-5.91c0-9.03,10.22-14.27,14.85-14.27C135.69,160.85,131.32,175.06,118.68,175.99L118.68,175.99z
		 M59.66,175.99c5.77-2.45,10.34-13.33,6.43-13.33c-2.71,0-8.18,6.46-8.18,11.47c0,7.54,10.39,8.24,15.64,6.9
		c-7.02,5.47-20.85,4.31-20.85-5.91c0-9.03,10.22-14.27,14.82-14.27C76.67,160.85,72.3,175.06,59.66,175.99L59.66,175.99z
		 M235.94,161.61l-1.89,4.16c-1.05-1.14-2.45-2.53-5.42-2.53c-4.31,0-8.56,4.89-8.56,10.92c0,6.61,6.61,12.11,14.15,12.11
		c1.95,0,2.65-0.2,4.08-0.58c-1.72,1.28-4.08,2.62-8.82,2.62c-7.02,0-14.3-3.96-14.3-12.67c0-9.38,9.03-15.29,15.49-15.29
		C232.56,160.36,234.37,160.82,235.94,161.61L235.94,161.61z M75.48,191.16c-4.69,1.92-8.39,2.62-14.65,2.62
		c-17.62,0-28.62-10.22-28.62-22.68c0-12.32,12.9-24.49,32.17-24.49l-2.5,5.24c-1.89-0.9-3.84-1.66-6.76-1.66
		c-7.02,0-15.96,8.68-15.96,18.84c0,12.49,10.48,22.92,27.63,22.92C70.26,191.95,72.91,191.66,75.48,191.16L75.48,191.16z
		 M103.11,157.13h7.4l-1.05,4.34h4.46l-0.44,1.78h-4.46l-3.32,13.86c-0.44,1.72-1.05,4.34,1.51,4.34c0.73,0,1.57-0.26,2.45-1.02
		c-0.52,1.51-3.87,3.38-6.93,3.38c-3,0-4.11-1.75-4.11-4.02c0-0.7,0.32-2.1,0.32-2.1l4.25-17.7
		C103.51,158.58,103.28,157.59,103.11,157.13L103.11,157.13z M136.85,161.46h7.37l-1.31,5.42c2.68-3.93,6.96-5.5,9.35-6.09
		l-1.37,4.63c-4.11,0-8.44,3.73-9.81,8.97l-2.1,8.76h-6.61l4.57-18.81C137.26,162.92,137.03,161.93,136.85,161.46L136.85,161.46z
		 M203.07,161.46h7.4l-1.34,5.42c2.68-3.93,6.96-5.5,9.35-6.09l-1.34,4.63c-4.11,0-8.47,3.73-9.81,8.97l-2.13,8.76h-6.61l4.57-18.81
		C203.47,162.92,203.24,161.93,203.07,161.46L203.07,161.46z M242.32,165.19c0,4.6,6.64,7.72,6.64,12.72c0,3.09-2.04,6.14-7.31,6.14
		c-2.1,0-5.1-0.76-6.64-2.07l2.13-3.23c1.98,2.36,3.67,3.12,4.6,3.12c2.01,0,2.47-1.46,2.47-3.06c0-3.81-6.32-6.75-6.32-12.43
		c0-2.74,2.21-5.53,6.64-5.53c2.53,0,5.01,0.73,6.61,2.1l-2.1,3.23c-2.1-3.12-3.23-3.52-4.54-3.52
		C242.98,162.66,242.32,163.68,242.32,165.19L242.32,165.19z M156.33,187.87c-2.45,0.58-5.12,1.75-7.48,3.2l9.11-37.68
		c0.32-1.43,0.09-2.42-0.09-2.88h6.81c6.78,0,15.08,0.73,14.44,9.73c-0.44,6.52-8.33,12.7-17.62,14.82
		c8.65-5.39,10.72-10.4,11.79-14.82c1.34-5.45-1.83-7.89-8.65-7.34L156.33,187.87L156.33,187.87z"/>
	<path class="st3" d="M125.61,204.94c0,0,9.08,0.61,22.39-7.95c14.85-9.58,26.76-5.18,26.76-5.18s-9.49-1.92-22.62,6.78
		C137.2,208.46,125.61,204.94,125.61,204.94L125.61,204.94z"/>
	<g>
		<path class="st4" d="M200.68,46.92l-0.26-4.02c-3.47,3.76-8.39,10.16-11.62,18.52l-0.79-5.12c-3.7,5.04-7.48,13.02-9.26,22.59
			l-1.37-5.18c-3.23,5.27-7.45,17.79-7.45,25.71l-1.4-3.41c-1.04,6.67-2.56,12.62-4.47,17.96c-6.06-2.51-14.87-7.19-24.88-17.43
			c-20-20.41-34.3-21.11-46.67-19.54c5.88,0.44,13.16,4.45,15.02,5.74h-3.84c2.94,1.28,11.53,7.77,15.2,10.57h-3.99
			c3.93,4.19,10.37,8.56,13.1,10.6h-3.84c2.85,3.23,10.02,8.33,14.5,10.57h-4.16c4.95,4.19,13.89,8.39,18.69,9.72h-3.61
			c2.97,1.45,6.05,2.36,8.41,2.88c-4.9,8.36-10.92,14.75-17.29,19.86c24.02-9.49,46.53-37.76,53.14-59.57
			c6.61-21.81,5.74-38.55,25.59-53.75C211.63,36.32,206.33,38.88,200.68,46.92z"/>
		<path class="st4" d="M120.29,159.66c6.67-3.41,13.6-7.28,20.38-12.7c-7.51,2.13-14.65,3.35-20.88,3.58
			C122,153.49,121.25,155.67,120.29,159.66z"/>
		<path class="st4" d="M193.17,121.52c-1.57,0.15-3.47,0.03-5.62-0.29c-3.41,3.17-7.1,6.11-10.98,8.79
			c4.13-0.47,9.52-1.16,14.79-2.1c5.74-0.99,11.79-1.34,14.65,0.7c3.2,2.3,5.47,5.24,5.47,5.24l0.52-0.55
			c-2.18-2.74-5.71-7.37-7.66-9.64C202.22,121.2,199.78,120.93,193.17,121.52z"/>
	</g>
	<g>
		<path class="st5" d="M167.69,100.84C153.1,90.83,144.89,81.1,131,77.14c-13.45-3.84-24.84-3.26-38.49-0.15
			c12.37-1.57,26.67-0.87,46.67,19.54c10.02,10.25,18.84,14.94,24.9,17.44C165.5,109.96,166.73,105.59,167.69,100.84z"/>
		<path class="st5" d="M204.4,117.94c-2.59-2.3-7.8-3.29-10.1-3.73c5.71-6.64,10.28-14.15,13.04-22.51
			c9.03-27.08-1.46-41.87,12.08-58.09c-19.86,15.2-18.98,31.94-25.59,53.75c-6.61,21.81-29.12,50.08-53.14,59.6
			c15.9-4.54,33.4-13.22,46.85-25.74c2.15,0.32,4.05,0.44,5.62,0.29c6.61-0.58,9.06-0.32,11.18,2.15c0.96,1.14,2.33,2.85,3.7,4.6
			C207.9,123.93,207.05,120.32,204.4,117.94z"/>
	</g>
</g>
</svg>
