<?xml version="1.0" encoding="utf-8"?>
<!-- Generator: Adobe Illustrator 22.1.0, SVG Export Plug-In . SVG Version: 6.00 Build 0)  -->
<svg version="1.1" id="Layer_1" xmlns="http://www.w3.org/2000/svg" xmlns:xlink="http://www.w3.org/1999/xlink" x="0px" y="0px"
	 viewBox="0 0 100 79" style="enable-background:new 0 0 100 79;" xml:space="preserve">
<style type="text/css">
	.st0{fill-rule:evenodd;clip-rule:evenodd;fill:#13110C;}
	.st1{fill:#24377A;}
	.st2{fill-rule:evenodd;clip-rule:evenodd;fill:#E74210;}
	.st3{fill-rule:evenodd;clip-rule:evenodd;fill:#00733B;}
	.st4{fill-rule:evenodd;clip-rule:evenodd;fill:#6EB52C;}
</style>
<g>
	<g>
		<polygon class="st0" points="49.5,50.9 49.5,50.9 49.5,50.9 49.5,50.9 		"/>
		<path class="st1" d="M73.9,66l2.2-8.7h-2.3c-5,0-8.7,2.9-8.7,6.1c0,1.6,0.8,3.7,3.3,3.7c1.1,0,1.8-0.2,2.4-0.6
			c0,0.1-0.1,0.4,0,0.6H74C73.9,66.7,73.9,66.4,73.9,66z M71.6,63.7C71.3,65,70.7,66,69.4,66c-1.4,0-2.1-1.2-2.1-2.7
			c0-2.5,2.3-5.2,5.6-5.2L71.6,63.7z M19.3,67.1l2-8.4c0.1-0.6,0-1.1,0-1.3h3.3l-0.3,1.1c0.8-0.9,2.2-1.2,3.2-1.2
			c2.4,0,2.2,2.1,2,3.1l-1.3,5.1c-0.1,0.3-0.2,1,0.6,1c0.2,0,0.4-0.1,0.6-0.2c-0.3,0.7-1.3,1.1-2.3,1.1c-1.2,0-1.6-0.7-1.6-1.5
			c0-0.3,0.1-0.7,0.1-0.7l1.2-5.1c0.2-0.6,0.2-1.5-0.6-1.5c-1.1,0-2.1,0.7-2.4,1.7l-1.6,6.8H19.3L19.3,67.1z M39.7,63.9
			c2.6-1.1,4.6-6,2.9-6c-1.2,0-3.7,2.9-3.7,5.1c0,3.4,4.7,3.7,7,3.1c-3.1,2.5-9.4,1.9-9.4-2.7c0-4.1,4.6-6.4,6.7-6.4
			C47.3,57.1,45.4,63.5,39.7,63.9L39.7,63.9z M13.2,63.9c2.6-1.1,4.6-6,2.9-6c-1.2,0-3.7,2.9-3.7,5.1c0,3.4,4.7,3.7,7,3.1
			c-3.1,2.5-9.4,1.9-9.4-2.7c0-4.1,4.6-6.4,6.7-6.4C20.8,57.1,18.9,63.5,13.2,63.9L13.2,63.9z M92.3,57.4l-0.8,1.9
			c-0.5-0.5-1.1-1.1-2.4-1.1c-1.9,0-3.8,2.2-3.8,4.9c0,3,3,5.4,6.4,5.4c0.9,0,1.2-0.1,1.8-0.3c-0.8,0.6-1.8,1.2-4,1.2
			c-3.1,0-6.4-1.8-6.4-5.7c0-4.2,4.1-6.9,7-6.9C90.8,56.9,91.6,57.1,92.3,57.4L92.3,57.4z M20.3,70.7c-2.1,0.9-3.8,1.2-6.6,1.2
			c-7.9,0-12.8-4.6-12.8-10.2c0-5.5,5.8-11,14.4-11l-1.1,2.4c-0.8-0.4-1.7-0.7-3-0.7C8,52.3,4,56.2,4,60.8c0,5.6,4.7,10.3,12.4,10.3
			C18,71.1,19.1,70.9,20.3,70.7L20.3,70.7z M32.7,55.4H36l-0.5,1.9h2l-0.2,0.8h-2l-1.5,6.2c-0.2,0.8-0.5,1.9,0.7,1.9
			c0.3,0,0.7-0.1,1.1-0.5c-0.2,0.7-1.7,1.5-3.1,1.5c-1.3,0-1.8-0.8-1.8-1.8c0-0.3,0.1-0.9,0.1-0.9l1.9-7.9
			C32.9,56.1,32.8,55.6,32.7,55.4L32.7,55.4z M47.8,57.4h3.3l-0.6,2.4c1.2-1.8,3.1-2.5,4.2-2.7l-0.6,2.1c-1.8,0-3.8,1.7-4.4,4
			l-0.9,3.9h-3l2.1-8.4C48,58,47.9,57.6,47.8,57.4L47.8,57.4z M77.5,57.4h3.3l-0.6,2.4c1.2-1.8,3.1-2.5,4.2-2.7l-0.6,2.1
			c-1.8,0-3.8,1.7-4.4,4l-1,3.9h-3l2.1-8.4C77.7,58,77.6,57.6,77.5,57.4L77.5,57.4z M95.2,59c0,2.1,3,3.5,3,5.7
			c0,1.4-0.9,2.8-3.3,2.8c-0.9,0-2.3-0.3-3-0.9l1-1.5c0.9,1.1,1.6,1.4,2.1,1.4c0.9,0,1.1-0.7,1.1-1.4c0-1.7-2.8-3-2.8-5.6
			c0-1.2,1-2.5,3-2.5c1.1,0,2.2,0.3,3,0.9l-0.9,1.5c-0.9-1.4-1.5-1.6-2-1.6C95.5,57.9,95.2,58.4,95.2,59L95.2,59z M56.6,69.2
			c-1.1,0.3-2.3,0.8-3.4,1.4l4.1-16.9c0.1-0.6,0-1.1,0-1.3h3.1c3,0,6.8,0.3,6.5,4.4c-0.2,2.9-3.7,5.7-7.9,6.7
			c3.9-2.4,4.8-4.7,5.3-6.7c0.6-2.4-0.8-3.5-3.9-3.3L56.6,69.2L56.6,69.2z"/>
		<path class="st2" d="M42.8,76.9c0,0,4.1,0.3,10-3.6c6.7-4.3,12-2.3,12-2.3s-4.3-0.9-10.2,3C48,78.5,42.8,76.9,42.8,76.9L42.8,76.9
			z"/>
		<g>
			<path class="st3" d="M76.5,6l-0.1-1.8c-1.6,1.7-3.8,4.6-5.2,8.3l-0.4-2.3c-1.7,2.3-3.4,5.8-4.2,10.1L66,18
				c-1.5,2.4-3.3,8-3.3,11.5L62.1,28c-0.5,3-1.1,5.7-2,8.1c-2.7-1.1-6.7-3.2-11.2-7.8c-9-9.2-15.4-9.5-20.9-8.8
				c2.6,0.2,5.9,2,6.7,2.6H33c1.3,0.6,5.2,3.5,6.8,4.7H38c1.8,1.9,4.7,3.8,5.9,4.8h-1.7c1.3,1.5,4.5,3.7,6.5,4.7h-1.9
				c2.2,1.9,6.2,3.8,8.4,4.4h-1.6c1.3,0.7,2.7,1.1,3.8,1.3c-2.2,3.8-4.9,6.6-7.8,8.9c10.8-4.3,20.9-16.9,23.8-26.7
				C76.4,14.3,76,6.8,84.9,0C81.4,1.2,79,2.4,76.5,6z"/>
			<path class="st3" d="M40.4,56.6c3-1.5,6.1-3.3,9.1-5.7c-3.4,1-6.6,1.5-9.4,1.6C41.2,53.8,40.8,54.8,40.4,56.6z"/>
			<path class="st3" d="M73.1,39.4c-0.7,0.1-1.6,0-2.5-0.1c-1.5,1.4-3.2,2.7-4.9,3.9c1.9-0.2,4.3-0.5,6.6-0.9
				c2.6-0.4,5.3-0.6,6.6,0.3c1.4,1,2.5,2.4,2.5,2.4l0.2-0.2c-1-1.2-2.6-3.3-3.4-4.3C77.2,39.3,76.1,39.2,73.1,39.4z"/>
		</g>
		<g>
			<path class="st4" d="M61.7,30.2c-6.5-4.5-10.2-8.9-16.5-10.6c-6-1.7-11.1-1.5-17.3-0.1c5.6-0.7,12-0.4,20.9,8.8
				c4.5,4.6,8.5,6.7,11.2,7.8C60.7,34.3,61.2,32.3,61.7,30.2z"/>
			<path class="st4" d="M78.2,37.8c-1.2-1-3.5-1.5-4.5-1.7c2.6-3,4.6-6.4,5.9-10.1C83.5,13.9,78.8,7.3,84.9,0
				C76,6.8,76.4,14.3,73.4,24.1c-3,9.8-13.1,22.5-23.8,26.7c7.1-2,15-5.9,21-11.6c1,0.1,1.8,0.2,2.5,0.1c3-0.3,4.1-0.1,5,1
				c0.4,0.5,1,1.3,1.7,2.1C79.7,40.5,79.3,38.9,78.2,37.8z"/>
		</g>
	</g>
	<g>
		<path class="st1" d="M66.8,78.9l0.9-7.5h1.1l-0.9,7.5H66.8z"/>
		<path class="st1" d="M73.1,74.8c-0.2-0.1-0.5-0.2-0.7-0.2c-0.5,0-0.9,0.1-1.2,0.2l-0.5,3.9h-1l0.6-5h0.7l0.1,0.3
			c0.5-0.3,1-0.4,1.5-0.4c0.2,0,0.5,0,0.7,0.1L73.1,74.8z"/>
		<path class="st1" d="M74.9,76.8c0,0.7,0.2,1.2,1,1.2c0.6,0,1.1-0.1,1.8-0.4l-0.1,1c-0.7,0.3-1.3,0.3-1.8,0.3
			c-1.7,0-2.1-1.1-1.9-2.6c0.2-1.6,0.9-2.6,2.6-2.6c1.4,0,1.9,0.7,1.8,1.6c-0.1,0.8-0.6,1.5-2.1,1.5H74.9z M76.3,76
			c0.6,0,0.8-0.3,0.9-0.6c0.1-0.3-0.1-0.7-0.9-0.7c-0.9,0-1.2,0.6-1.3,1.3H76.3z"/>
		<path class="st1" d="M80.4,79c-0.8,0-1.2-0.3-1.1-1.2l0.8-6.4h1l-0.8,6.5c0,0.2,0.1,0.2,0.4,0.2l-0.1,1H80.4z"/>
		<path class="st1" d="M85.4,78.9l-0.1-0.3c-0.5,0.3-0.9,0.4-1.4,0.4c-1.7,0-2-1.1-1.9-2.6c0.2-1.6,0.8-2.6,2.5-2.6
			c0.5,0,0.9,0.2,1.3,0.4l0.1-0.3h0.7l-0.6,5H85.4z M85.5,74.9c-0.3-0.1-0.6-0.2-1.1-0.2c-1,0-1.2,0.8-1.3,1.7C83,77.3,83,78,84,78
			c0.5,0,0.9-0.1,1.2-0.2L85.5,74.9z"/>
		<path class="st1" d="M90.9,75.3c0.1-0.5-0.3-0.6-0.7-0.6c-0.5,0-0.9,0.1-1.2,0.2l-0.5,3.9h-1l0.6-5h0.7l0.1,0.3
			c0.4-0.3,1-0.4,1.5-0.4c1.2,0,1.8,0.6,1.6,1.6l-0.4,3.5h-1L90.9,75.3z"/>
		<path class="st1" d="M97,78.9h-0.7l-0.1-0.3c-0.5,0.3-0.9,0.4-1.4,0.4c-1.7,0-2-1.1-1.9-2.6c0.2-1.6,0.8-2.6,2.5-2.6
			c0.4,0,0.7,0.1,1.1,0.3l0.3-2.6h1L97,78.9z M95.4,74.7c-1,0-1.2,0.8-1.3,1.7C94,77.3,94,78,95,78c0.5,0,0.9-0.1,1.2-0.2l0.4-2.9
			c-0.1-0.1-0.2-0.1-0.4-0.1C96,74.7,95.7,74.7,95.4,74.7z"/>
	</g>
</g>
</svg>
